<mxfile host="app.diagrams.net" modified="2024-04-18T00:21:08.181Z" agent="Mozilla/5.0 (Windows NT 10.0; Win64; x64) AppleWebKit/537.36 (KHTML, like Gecko) Chrome/123.0.0.0 Safari/537.36 Edg/123.0.0.0" etag="-J3irnEgVv-36bu4aV0m" version="24.2.5" type="device" pages="6">
  <diagram name="PÃ¡gina-1" id="17oAOc-nKt-72o6wyZnl">
    <mxGraphModel dx="1869" dy="605" grid="1" gridSize="10" guides="1" tooltips="1" connect="1" arrows="1" fold="1" page="1" pageScale="1" pageWidth="827" pageHeight="1169" math="0" shadow="0">
      <root>
        <mxCell id="0" />
        <mxCell id="1" parent="0" />
        <mxCell id="rWQBrJEAZ2Um7FXQGi53-1" value="" style="shape=image;verticalLabelPosition=bottom;labelBackgroundColor=default;verticalAlign=top;aspect=fixed;imageAspect=0;image=data:image/png,iVBORw0KGgoAAAANSUhEUgAAAzgAAAJZCAYAAABlU5DJAAAAAXNSR0IArs4c6QAAAARnQU1BAACxjwv8YQUAAAAJcEhZcwAADsMAAA7DAcdvqGQAAPn2SURBVHhe7N0FuBRlFwfwAwqCCkqISJdKWUirSCPd0t3d3R3SKUpIgzQCCgooqKSotJ90iSCgtIrw7f/dd+7Ozs7ejo3/j2efOzO7997ZvcvsnHnPOW+8Rw5CREREREQUAOLrr0RERERERH6PAQ4REREREQUMBjhERERERBQwGOAQEREREVHAYIBDREREREQBgwEOEREREREFDAY4REREREQUMBjgEBERERFRwGCAQ0REREREAYMBDhERERERBQwGOEREREREFDDiPXz48JFeJiIiIiIi8mscwSEiIiIiooDBAIeIiIiIiAIGU9SIiChCLly4IBcdN7h586YcO3pULXuze9duvRRxOXPllKRJk+o1T2nTpZN0jhvgcTly5lTLREQUvKIc4OCDbvXKlXqNiMh3VKtRI+Tkl7xDgIJAxRqsmAMTbL9165Ze8w/5CxTQS6LeB+nSO98LSRyBUE4dCBUoWFB9JZE9u3erGxGRL8GFrOqOz/OIiHKAg4Nhvdp19BoRke9YvGwpT2AdjBGXkK/nXcsXL17UjwpuRjBUsFDBkAAo2EaEpkya5LhN1mtERL4Bx+cly5fptfBhgENEASuYAhwELBhlwS2uApg0yZ6TNMlT6TXvsqfNLEkSPyUzNy/XW0Qq5yumvnfficN6S+j2nzyil2JekiRJVKCDgAcpc0ZaXKC9txjgEJEvYoBDRGQSiAGOkUZ2FMHMEUcw4whi9u7Zo++NHi+nyaQCEEjrCDrMQUu+rLn0kitQiaxXulbTSyJz2w6VfNly67WIO37xtNy6d0ctX7pxRS5ev6qWsQ33GaI7MMqRI4cKeBD44L1mrgnyNwxwiMgXMcAhIjLx9wDHCGQwEoN6mOgYkXk60ZMhgUnIV0dAYw1kYkN0BjgRZQQ+6uulM27rvzjWowofyMZoD9Ld/OF9yACHiHwRAxwiIhN/CnAwMoPjKW5HjxyN0qhM3qy5PAIYY92XxGWAE5ZL1zEKdCVkNChkXW1zjg5FVNq0adX7sUChgiro8bX6HgY4ROSLGOAQEZn4coBjjM7s2eUMaiIzMoNUMoy6IHBB6lhcjMJEhS8HOKExRnsw8oOAB8uRSX1DbQ/en0Z6W1y/VxngEJEvYoBDRGSSI2cOx0mk5xwqOKHsP3CgXosd5tEZfI1Iy2UjrQwBQNrkz0maZKn8JhgIjb8GON4YwQ4CH3zFekTT3YzUNiPgSZrU+xxA0Y0BDhH5InS2RL2jneo1a9i2kGaAQ0RBJzJXgyIKx8Yvt2yJcLoZghmc6BujMkaaWSAKtADHG3SGQ6rbvhNH9HL4U9yMtLZSZUrHeMDDAIeI/E3Hzp0ct856zYUBDhEFnZgIcNDNTAU1m7dEaIQGrZVxYp8vWy55OU1mn6uTiUnBEuBYIcUNgc6+k0cinN6Gq5gIdkqVLh3tNTwMcIjI38R5gJMmVWqpWqq8XiMiil17Dx6QfYd+VMvRFeAYozSoozl27JjeGjo0ADBGZ3BCH6ijM+ERrAGOHXPAg+Xb9+/qe7xDDQ8CHTQtwNeoju6EN8DJ98obkv/VPHqNiCh2rflyo1y6clktx3mAgwPigrHT9RoRUeyatmiOTF88Ry1HNsCJzCgNAho1QqO/kgsDHO8Q6PxyCcHOEdl6aE+4Ap6oju6EN8BpV6+ZtK/fTK8REcWuhj3bhVyw9BbgxNdfiYjIBrqdDR86VCqWLSdF335HenXvIV99+aXX4AYpZ/WLVJDJTXrJoQmrZV67YdK2TC2evFOEYJSvcr7iMrxOB9k1cpGs6DZe2jjeR+ic5w1GERGgVCxXXt545VXp2a27GmEkIgo2DHCIiCwwUjNv7lwV1OBk8ZO580JNQSuWO7/0rNJUNvf/UDYPmCW9HMvFXymg7yWKOgQ8CJRXdp8g349Y6Ah82jsCoGIqoLaDAHz1qlXSpmUrBjtEFHQY4BAROZiDGozUjBg6zGtQYx2lmdK0tzRwrPvTHDTkv1C3ZYzuIKDG6A4CbKRD2mGwQ0TBhgEOEQWtiAQ1SA3iKA35IozuIMBGOiRGdxB4Y3QHLcetzMHOu2+9rdIvkYZJRBRIGOAQUdC5fPlyhIMapAZxlIZ8HUZ3EHgbtTuhBTsXL15U6ZdIw0Sws+Obb/Q9RET+jQEO+YULly/JgaMH3W5/3bqp7yU7dq/Znzf/0vcGt3NnzzKooaBgBDtbBsxSdTuoF7ODYOenH3/Sa0RE/o0BDtnCifD4uTOk1YBuMnPpJ/LgwQN9T9yYMG+m1OvW2u127reL+l6yM2n+LI/X7MzF8/peMmNQQ4HOqNtBvZjRpMBbsENE5O/8KsC5ffeOfLFzm5rPovOIftJz7BC1vH7bZrn8xxX9KIqqGzf/lJqdmsnsFYtkx/5dMmXBRzJNzx8SV06eO6OXXDKny6CXyM6p82f1kkuW9Bn1EjGooWDFYIeIAp1fBDj/PXwoyzetlfeavS9dRvZXk/Vt/na7fLZ9s1ru9cEQKdm4unQa0Tdk4h+KvIVrP1XpTWb7D8dd6sLDRw/l7CX3kYfnUzwnTz8ZvDPAh+XRo0dy+sI5veaUIllySfp0Er0W3HKmy8qghsjBHOw0K15Vb/Vd125c90i95QVOIrLy+QDnv//+k1YDusrgqWPl2p839FZPeNyWb7+Wnft36y0UWXZpTC9mzKKXYt/F3y/L3//8o9ecMnMkIlSXrlyW+3/f12tOWdLxNTM8+UQivUREhoQJEuol3/Xp5+s8Um+/P7BP30tE5OTzAc6ImRPluwN79VrosmbILO3rN9drFFlvv1lQLzk9lzyFtKrdSK/FvtNMtYqwk+c9U/qyZvA+AzoRUVzAaPPBX46qWs/+k0ZJ60HdVVbGxE8+lK27dnhc3LI7tvHzgIisfDrAQf3H0o2r9ZrLY489Jm/kfEVez5FbEiV8wrktfnwZ1a2/JEyQQK1T5FUrXV5Gdx8g5YuWkta1G8u6mQsldcq4S+Oxq7/haETo7ILCzHzNiMhH3P/nb5m/ZpkUbVBZanVurmo9V23+TL7Z+72qq/1o+QJpP7S3FK5dVo6fOqG/i7WFRBQ+Ph3gfOY4yFm9mCmLfLNwnSwZP0uWTvhIdq/YLE2r15WWtRvJKy/l0I+iqKpcoqyM6zVEOjVqKcmSPqu3xo1TFzw/0DgaETq7oJCvGRH5gt0/7ZcyTWvK6I+myJVrf+it9u7euycpnk2mlllbSETh5bMBDq7ubNu9U6+5VC7+njqgGZ5ImFB6NG8vHRu00FtCd+feXTlz8ZycvXhe/vn3X701dOgqdvLcaXVgvXXntt4aOf8++Fe1Nz536YIqno8I/G7sR1T3Iabgb4b0gejeP9vRCNMVO/xN8bpEZl6c6HpNUQOGxgx4/tgPfBCHB94PqJf55fQJVSiLhhoRce/+PfW+ROGtme1VTo7gEFEc+3DZJ9Ksb+cwAxtDkqeeVmnS8NvV3z1qC7Om54UbIvIU7+HDh+E7E/Niz+7dUq92Hb3mXb5X3pAFY6frtbAd/OWI1OrsGbRgBGdK/5GSKW34WwQjkFi9eYMs27RWjp74JeTk8/HHH5dShYvKiC59JHGixGqbASe8GCL/fMdWufj7b3qr08uZs0nN9ypJrXJV1M8wO/S/YzJujvvzLJr/LalUvIxM+GSmanONK1KA31no9byO399Xnk36jNpmZ+1Xm2TB2k/l2Mn/qfV48eJJhjTppE2dxvJ2ngLSdfRAtd2QPUs26dOqs1q2259iBd6SxtXqqABy9ZaN8j/HyfWfjpPyrxeuUyfo3h5v5/sDe2XBuk/lf2dOyuWrV0Je25TJUshLmbOqfcyb+3W1LbIK1yqngkzDU4mflF2ffi6zVyxWr815R8Bo/F6M4iHgxfstNFF5TQ0IkL9wvD8Wf7ZKjvx6zC04wRXFkoWLSOs6TSR96jR6qwuuYM5yvL9+PHrQLcccH+bv5C0obes1DfWDe8/PB1QHwQNHfg75vegsV71MRWlXv6m8XbuC22uG99oPq79SzzNYoaU8XjPImzWXzGs3TC1T3HmlazW9JDK37VDJly23XqO4MGPzcpnpuIWlXb1m0r5+M70WfqizQSpaRCAVHdkagCZCLQd0VcuG2uWryqD2PfQaEQWDhj3bhXRN7ti5k+Pmfn4GPjuCc+fuXb3k7tczp6RcizrSon8Xla+Lq/ehQXvj6u2byIDJox0nocfdrqxj8sot322XBI+71+0sWr9CSjetqeaBsQY3gKvtw2dOkOb9O4cEK4bDjoBi78EDbjcEDdU7NFHBhPnxuPqOIKNWlxZqBMDq8tXf1cG8z/jhISfigOeAEaje44apE3Hr77tj+h12+4ORlq6jBki7Ib1UEef5y5ccJ8CJ5MnEiW0f/9D0mhl+cJxY13bsd7N+nVXO9G9Xfnd7bf+4cU0FPw16tJXuYwZFanQFcJJuPlGHRE88IVXbNVYflBgJM/9eBHRN+3ZSnXbsRMdrCng+DXq0kV7jhqpg3DrycvP2Lfnp2OGQK48G7G+rgd2kSZ+OKsixFtAisN70zVdStW0j+er7b/RWF7zfh0z7wPH9HdR/bvPv/f3aVZmxZK406d3R4zXDnEHBHNwQUdzCxUJvwQ2Ok7gI2LtlRxnSsZc0qFwzJFPDfKHntE26chaO4BCRDZ8NcDBCg8YBdnAy+u0Pe1THlSL1Kqo8XuuJIuAEu3HvDnL81K96i6eMadK5jcIgqEHnNszkb2a3L7iKjlEZM7sOLwjEcPLpDU56dzlOds3w++t0ax1m22ucfFuZCy7t9gcn//iwMTPSl+web01t2v3zD9LUcYL+8/EjekvoNn79pZqY1RyIhJddqhXahSOtzBsEroOmjHELYCC6XlMEo7h6gM4/3qARxpgeg0KaYAD2u7EjMNmxb5fe4mJ9fyF1recHQ1XgaFAt0x3B0bKNa0J9Le32n2kcRBRXcOwbNn28XnOJHy++Cma+mP2pOl42qlpb3i9bWfq27iJb5qyQskVKqu6oBtuGM6E0GMAxEynA1gthkRHZNGRc7MKFWVxcsztPIaKY4bMBzgupnlfpNmHBiAg6sdTt1sotNxcHoc4j+9uOjKAjGAIoXNE2z4a/dddOmTjvQ73mVCRvIVk7Y4Ec3LBDts5frdKHzD7dtE5u372j1+xPyOGZJEml4GtvqjQoO7jab8CBs8fYweqAGBnmk1m7/TGfNBuMmhbb2g1TcTqCmnZDeoa7fsmAoMhcU4UgEqNqdjekjhm8vZ7h8YnjfWGIztd0+55vVUqeWYVipWX1tE9UKkWXxq2lZ/MOkvvF7PpeZzpb+6G93F57pI0N7dRb9q/+Sn5ct10m9Bnq1gUQI3zLNq3Ra6Lapv5w+Ge9FjGcN4iI4grSva2jytC9WTsVzCB7wArbxvYYKCUKF9Fb7D8Pstoc23BBEaPxBd9/T0o0qiZlmr0v+aqXUl3Zrv/1p7qQ2ahXe7eb3YVQHLfXb/1Cpcu/VuldKdWkhlRoWVf9XNz6TRyhMiCssJ/I8sBjCtQsI5Xa1JdiDavK65WLqp/lLcOAiKKPzwY40Kd1Z2lWs77XkRwz1NYsWr9SLaPmptPwfh6F49mzvCgrp8yV7QvXyuezl8nmuSukYvH31H1I9Rk0dYxb4f+rL+eUGUM+UDU3uNKUJlVqxwF3kFo24Er7gSMH9ZrjwGZzhalk4Xfla8fvnDd6qvq9ObO9rO9xQbMEw+otG9QIlRmCMdT84CT6u2Wb5KNhEyTDC2n1ve7MJ7N2+wN5cr4q3Zu2lcn9RqrakrffLKC2Wx+PE+60z7+gljEygtQ2a1peqhQpVYvu7QvWqNe0Q4Pmtn8z1B8BrmghDXDlF+ttb2dMXXLsPtDwWuAqX1ivBVK98PeB6HxNUb9jVaJQEcmR9SWVL96yVkNpWOV9fY/TCscHmjmIhfG9h6haLtQUIU0SVyuxP2a7fnROYHf41+Myd9UStWxWJF8hWTRupny/fJMsm/ixvJnrNX2PO47gEFFcwOfwys3r9ZpLiULvSJPqodfvIrvCfEw+ZckwwEWi5y1TGCBjomKrerJu6+duFx+R3ouU7OrtG6vjsZF+bNysdbCRTUPG50Ol1vVkseN8xC41Gz+L01kQxTyfDnCQ3oOT8K/mr5ZeLdyviNvZvvtb/fU7jxSm1M89L3NGTpZcpp+B4u8ybxdTy6hnsHaiQncqtLIs2bh6yK1Gx6b6Xper153dYHAAtaai4SrU8M59JJGeOR3BERoLWOEk1/DZds/22CjoHNyhpzqJTv7Ms2okaVzvofpeFxw406V2BiR2+wN1yleTheNmqOCx9NtF1cl48YLv2D7enCq4acdWNdxvhqL4ReM+lColy6nXGB9Gbes2lUolyupHuBjtPe3SDMyyZDAFaDYpc/j5yNM2vxbj+3gWjCMgMzr1RNdrCjf+ck9fhC4j+6v3R/+JI20npv18p3tKIAyfMcHtvYUb5n8wu3r9mvq6YfsWj5SIUm8VlVlDx6ugBq28X8ueS2YMHmt7NZTzRBBRXEBKsPWiGDStUU8vhQ+CBYy+mOG4Zq4tnLNikUpdD60rJrpVopOpGY6ZaNJiiGwaMi6q9Z0wwiMYMkNgh89LIopZPh3gGJBShi5eK6bMlc8+XKxOyu080Olo223aS9evWF2dxHqDblhWOEiiyYD1Zm3vnFCPvlj78wO6eSE9zQyBhFXGtOnVVwRZ+w/9pJYNCCJavN9Ar7mgY5j54A4ISIwRJrv9QeFmj+bt3EahDHaPN58Y79zvWTvyfrkqtl3CcLJtlUDXOtkFLWZuRaWWERwEghghsULwiw8cq4QJEkbrawre5pPBe2PVlg3SvF9n6Tl2iN4qKsgyj/IZECxa31vWK354byGw2fztdr3FpWuT1nrJBd3bMqZxvpcMCFAzprVPjSQiikl2NYEY9X8jxyt6LXzCqg9F+u7E+bP0WsTg55iP+5FJQwak4pkvRD395FOq6yvOW6YOGKUaKQzp2FvfS0QxyS8CHLNsGTPLpL4j3ObCMaTU25DOY5UrjElA91tqG3Cww0lweG7GLP926WC5snmOOp25eF4vuRgH6p+Oew6FI7XO2ukNcCXKelXfHJDY7U+xAm+rYX07do83p2bZ5Sh7m1wVLaOtjFQ3PB+MnHi75dY/EwWZF393HzFCuqDd8D6CiIeW1w0BbfJnk0XrawodG7ZQqWihwYjR13u+U8sHjh70+Jm46mf3XrLe0AQDcz9Ya4dwHwIvKwTfVyyjcOleSGv7XImIYhrmnbNK7zgmWS8khcVuPjRjtB/HvR4fDPaouU2XOo1M6DNMvlm0XjZ9vExNCm7HeoyPTBoyPh/RYdUMNb5I/8Z5C1LVMeJjTFpKRDHLZwMcDPViqNmu68jf//wt/9hsx3wtcPPOLfXVzJp+ZnXztvuVc4y67F25JVw3Y84Vuxn3rQdOsI5gIH0t9XPOIOmOKWfYgJbLdoyaIzNzy0y7/cmT0/tVM7vHm0dTbtu07jbS88ww8mX3AVH4jfzqK9IEUWvi7YaTd8AHo3W0DK+FNVgA1PRYt5d5p7gavYjO1xQwxw+u4i2f9LFKc/NW92K8njdve74fUVxr916y3lAXZM4jN9z/+2/bNIzPv9mqOhaZsf6GiOKKXR3Kv/8+0EvhZz+C4zy2YYTc2jwHtTHLHMfpskVKqBEjBBuYI+3d/IX1I1ysx/jIpCHfsKTPAaYtKFSrrJouATWU1mMzEcUcnwxwcDUec32gWBBzrezYv0vVUwDaNHYa4dlAAFeDiuoAJ+WznqM7GDq2tn421+lYCwzv3rvrcWKK+WMwd4n5duKs62eEp4UlTlatMzib5yixG5lC6tisZfNDTuBROI/1uSsXq3Uz8++z258XM2XVS57C2v/nHR8SVnNWLlEtMA0ISloP7K5GQsxw1arcuyX0WvjYNRhA7vSHSz8JeS3wvvj404WqK45VuXdLqq/R+Zri92F+Gnzfqy/nUhPeoci/xnuV9CNckupA7dkknpO4YlTGCu8l6/sL77kUNu9n7C+69JgvAGDUaOCU0XrNhR3UiCiuxI/vmTp89tJ51SUyImw7qOkRHKOBjRlaTtsd+9E8yMr6OR3RNGRAmrldmjSO0ZiP74PZ01TzA2uzGSKKGT4Z4PSdMDwkuMCwb6sB3eS1SkUlf43Sqk2j3TwiaBaAK+uQ/9U86qsZ8mkrtK6nWkcOnT5OqrZrKMs3rdX3Og56L7kf9NAeEt1TcNUIB2KkvTXp3UFN0GjcMKHkn7dcQZN1CB1Bi7kNNdgdpM0H1zdzveoRbMGk+bNC2k3mr15arVtHLMB8YLYd0rfMaWMW1v4XtGmOgNSpym0bSGnH3wVXtzAJK1KyzFC/0r9tt5BGC+HlrVZnysKPQ14LtP6cMG+mx2uBjmR5c7+ulqPzNZ2xdJ50GNZHBd4L161QbbPR/nrr9zv0I5yQBvheEWdAl/ul7CEBrAFz2aChAIJuNBJAx52q7Ru5vb9mOYJypLIhOLSraUL70oLG/jv+b+AD166Y166NKhFRbLCr0cSozlLHMTA06DZmvhhoTaHG6Lwx7YJd+3xv6dOXbKZJsAY4EU1DBnRZHeD4nDN3RLVCq2xcmCKimOdzAc7SDatth3+RquStMwq6d/Vr00WvidStWN22kxTS1NA6Er/j+KkTble28T3W1sY4eKHnfZ6qJaRmx6YeV14wT49xEo3c37O/XVDLhhcc+2U9qbefidm1H3h8nfJV9Zo7PH+MluCqvh2cRGfSzQrs9gevk93rAuHZ//qVang0TAAEBZgLAFe3rAEC9mlop17y3jvF9ZbwswsGDaG9Fng90bnOEF2v6RFHkIuRQEB3nZEfTlSBTrshvTzmeKhRpoIqMAV88KFLnRkaTfT6YIhKX8BktfjQM0YpAYHN4PY99JpI0+r2HYew39h/b/83gDN9E1FcyeMlhRcXpjD6bv3MwHx2k+d/JHW7tZYkTzmPoXb1mOlfSBdSW2iXhmx0oDRDwLTF0rDFHCgZIpqGbECK9Y7Fn8no7gOkaqnyqrulVWifa0QUfXwuwMHIjd0wrzeY5Xjh2OkhozfgnK9mcMgJpjdG/i5gbhpMOIa+++GB4W/zCShSp8wnqGA3zG2XBpbZMqqCn430p9DYFZjjeRsBie3+hHIlPzz7j9d42sDRtsP+dtDRa2jHXuGasNVOWKNddvC6zRwyziOQi+priiYFqv2npYjVDp5vr5ad9JoTJvTMniWbXgsdmjEsmTArpLMelHyrSEjKnTf4MMVrbhXWa0ZEFFPQOcyuMQyOpQhy3qlXUVr07yKDp46V1oO6S+Ha5eXDZZ+ots1GQxy7ekzzcc3uM2n64jlu7aBxUbPVwK4eF4PMgRJEJg0ZkLmA1GwcgyuXKCsju/aT1dM/0fe6mL+HiGKOzwU4rWo3knUzFki10uVDHerFfCu9W3aUtdPnq04pVug1v9bxc4wRFisMm6OziRlGcfA9dilugFQrzJUya9h49bvNgZjdybg1cIHwPA6jJAscQRt65VtTm7BevmgpGdG1r97iYj7g2/0eb3nFEN79x+v5xezlqm23t2AQ+9+xYUvZOn+17YdCeODDxTzhJyDAmjForLyYKYve4oJgFnMlLZ04y3ayzqi+prjKN67XEKlYrIzHSJ8BH4Zjug9Uo0fWx6Cj28op89T7xjznkRkKYfH+XzV1nurWY4b33vjeQ9Xrave6o9EF5jayNt/Aa2Y0bSAiim1ID+7QoIVe84TMCkzCjJTxb/Z+H1KbY/68CutiFzqcWaHOsmyzWlK2eW0p1rCqSktHkGNl1PEYIpOGjOYB7Yf0Vr9rxMyJ8uV3X6u09umL56r7zaqVqaCXiCgmxXv48KFn0UEE7Nm9W+rVDn02YsAJGE4wIwLD0j8eO6RybzHBF66MIF0oQ5q0aq4P64mqNzjQHf71mMr7RcE3DpzWE0gr1Ebg+zAE/ejhQ3UlP1vGLOokNDZhrhR0iMFVJ2O/feWEFXVKZy+eV6/R9b9uOAKLdKpmBx3h7ObZiS4IflCkig416CaGYBVpEHZXCe1E9TXF9yHV8MzFC3Ln3h1J81xq9b40j7iEBlcucWURPwPttHH1Ee8vjCJ6C57M8D7e8/MB1Qku3QtpJFfWl8M9qhbMpi2ao67qQt6suWReO8/JYSl2vdK1ml4Smdt2qOTLFnrdA8WsGZuXy0zHLSwY1UDqVnjhmI2gYesu9yAhNLiIhotWgP+3+P9rhhESpIEBjslFG1S2rUEMS/Oa9aVb07ZqGWnItRyBTXhG6htUrqmyPgDPDaM+YUFmwcZZS1S6OBFFHibixQT90LFzJ8ets1o28+kAh4goujDA8T0McHxLTAU4gDRf1C0u+WyV3hK6YZ16h2QAdBs9UE0dYYb6GHPa8ZovN8rAKWM8Uq0NuCCKWhtclDMb1a2/GtnH/lVr18hjgk87SEMe0rGXuiCFDm5oIR0WpBAj+8Nb8wMiCr/wBDg+l6JGREREgQXBALqMoXgfHTm9jfJjO4KAN0xztoUnhRqjOXNHTnarxzVgMm5M+Jkz68t6i0tU05DRQAYTVNt1iwOkTyP9/dPJsxncEMUijuAQUVDgCI7v4QiOb4nJERwrdJ7ce/BHNdXAzdu3JWXy5CrdFy3x7dr6hxdGcDDvzNlLF1RwgdTfjGnTRShtOjJpyGiCcOG3S3Lm0nm5ePk3lfac5vnUkiPLiyHNEogoenAEh4iIiHwOUrYwfx06XHZo0FzqlK8m7+YvHKXgBtCEBSNEaNmM5jGoC41oTSiCE4zWoAOcsV9h1VjidyAFrkjeQlKnQjWpUKy05Mn5KoMbojjCAIeIiIiIiAIGAxwiIiIiIgoYDHCIiIiIiChgMMAhIiIiIqKAwQAnjqDn/oGjB91ux07+T98bPTARpvnn/3j0kL6HiIiIiCgwMcCJI+d/uyD1urV2u42fO0PfG3UIoKw/v9uYgfpeIiIiIqLAxAAnjthNXGZMOBYdEED9++BfveaUxTIxGhERERFRoGGAE0fsA5xMeinq7H5+1gzR9/OJiIiIiHwRA5w4cvLcGb3kEp0jOHYBTmaO4BAREUWrC5cvudW74vbnzb/0vdGDNbVEEcMAJ46cOu8Z4GTlCA4REZFfmTR/lkfN65mL5/W9UceaWqKIY4ATR6wBSJKnnpYUyZLrtaizHSHiCA4REVG0sk85Z00tUVxigBMHrlz7Q27fvaPXnKJ7dOX0hZgNoIiIiILdo0ePHJ+35/SaEz5rkz6dRK9FHTMyiCLObwOcBw8eyLnfLqr/+Pf/vq+3erpx8085ef6M/POv+9WP8Lj/z9/qe2/dua23RAwOfAhm8DOwvwa79LSwrvbg6s2lK5fll9Mn5PIfV9SQtTdXr1/z2OewDob//fefyiPGvv5166badyIiIvIOn8vWc5DoHl2xC3BYU0sUOp8NcFBQ16hXe7fbJ6uXqoBl6LRxUqhWWSnTtKaUb1lH8tcoIz3GDlYn5oCT85VfrJdKbepL4VrlpELLupKnanGVt3r56u/qMd58f2CvtB7UXYo3qip5qhRX35u/Rml5p25Fadavs+w//JN+pHd3792TD2ZPk3frV1I3/Iw3q5VQv//E2dNehrPtA5DdP+2XJn06Sr7qpaREo2pSpW1DKdagihR6/z3pNnqgCkisbK/22Px8BH3rt34htTq3kNcqvSulmtRQ+1rQ8bNx6zdxhJx3BD1ERETkye4zOLpHVziCQxRxPhvgHHYEOHsPHnC7/XL6pFRr11iWblztluKF0Y0N27dI497t1ZWUNoN7yIDJo+XXM6f0I5wjFOg8Uq97G9vRjx+O/Cy1u7RQQcw3e7+X36787jaK8ceNayr4adCjrXQfMygkmLLCYyq2ridzVy1RIykGBBP4/bW6NJc1X27UW12sIzjnLl2QVgO7qeAGQc7f//yj73HCCM2mb76Sqm0byVfff6O3OtmNEGW2/Hzsf4MebaTXuKFy8JcjHq/Jzdu35Kdjh+W55Cn0FiIiIjI7HQujK6ypJYo4nw1w7K6KrP1qk0rP8ub4qRNSqXV9FaB4g+Hkn465t1fc/fMP0tQRSPx8/IjeErqNX38pnUf080jj2rl/tzTv30X9Dm8wunP41+N6zcU8wnLtzxvSuE8H2bFvl97i8lh89z8ZgrueHwxVAZkhrBEcBHsNe7ZzBDZH9RZPjz32mIzpMUgSJXxCbyEiIiIzu+CDNbVEcc9nAxy7k3R4OXM2KfN2MXn6yaf0FndIqcJJeZ6cr3p9jLl9I4KadkN6RrhGB0HRtt079Zqo1LeeHwyJVO1KgscTSNrUadQy9qP90F5uAUviRIllaKfesn/1V/Ljuu0yoc9QSZgggb5X5N79e7Js0xq9Zh8cmkeItu/5Vv535qRec6pQrLSsnvaJLJ3wkXRp3Fp6Nu8guV/Mru8lIiKKGf5QU4vPWTQTuHbjut7iZHeuEtboinoe506rnxfW/rCmlihyfDfAsbkq0rhaHVk7Y4FM6jdCPh4+UW91lz3Li7JjyWeyePyH8tUnq+TJxIn1PS5PJkqkvuKg2nXUADWqYpYqRUoZ1a2/bF+wRjbPXSEdGjT3GDmBL3Zu00siQ6aP85jYC11U+rfpKlvmrZRt89dI39Zd5ImECfW9LpnSpQ/5+Ss+X6dSw8zG9x4iNd+rJE8lflIFQ2WLlJRa5aroe512/bhPL3kOmZsDKMBImFWJQkUkR9aX5PUcuaVlrYbSsMr7+h4iIqLI8+ea2j0/H1AZD6iDLdeitrxdt4IUrV9Zpi6cLQ8fPfQIcHBBMvVzqfSaC4KU8XNnSMnG1Z3Po1U99fOwP6itXbx+pVszIkNYGRkG1tQSufPJAOfOvbvy+7Wres0JB41ODVvoNVEn4nZBBwIKDN/CM0mSSo4sL6lls2RJn1VfN+3Y6pFOhu9dNO5DqVKynOMg9bxkeCGttK3bVCqVKKsf4WK0hsSBGOlpZggqZo+YJPUq1ZD0juDihVTPS4PKNaVJtbr6ES7mqz2f79yql1yGz5igDorm2/ptm/W9Tka9D147axqfOYCCG395zrDcZWR/9XP7Txwp3zk+FIiIiKKDP9bU4rN0yLQPpEmfDrLv0I9uvwfnJzOWzJUmvTuqIM0sc7oMEi9ePL3mtGj9CintCOBmr1gkF3//TW91QXfU4TMnSPP+nT0uuLKmlihyfDLAsfaUh/yvviGJnnCOvAAOcNZR12eTPiNv5n5Nrzn98697cT4YB4ed+z1rXN4vV0UFJFavZc+ll1wSPP64+ooif+yPWZl3iskrL+XQay6vvOy5LYsebkZL6QNHDqplMwRhOCiab9YDckI9MmT32lmv9ngb3sbPXbVlgzR3fCj0HDtEbyUiIoo8f6upxec5mvws27gm1PQuBGpW1s9bBDUjZk70yPCwu0CL0aIJn8zUa05hjeBgX1lTS+TJJwMcu/Q0pJ6ZXXQc2DA8bJY9cza95HLhsvvVEqR5PZ/iObV8/NSv6quZXVACl696HojTPv+C+vqDTVDi7eeYa2sMxggOrkhZD6Y4IGFUKaxbxjTp1OPtXjvr1Z6ODVuoEbDQfLZ9s3y95zu9RkREFDl2J+ngqzW1Ez/5UH44/LNeixjz5+3WXTtl4rwP9ZpTkbyFVKr9wQ07ZOv81fJO3oL6HqdPN61zG9FiTS1R5PhmgGPpGALWeWLsWjMaIyEGXDGxDh+bDwy3797VSy5Xr/+hl1yQO2tXt1L4jfzqq/lgZLhiahFtwEH308/X6TUXY0QFw8hW3Zu1k70rt4R5+2jYBPV4u9fOekUpZbIU6sC3fNLH0r5+M3kzl/uol8HuZxEREUWEP9XUossppnmwKpKvkCwaN1O+X75Jlk382OvnpvF5izSxQVPHuF2IffXlnDJjyAcqsIsfL76kSZVaxvYYpJYNSNEzZ3KwppYocnwywLFtu2gZhbC7qmE9kbd7jPnqyvOOA5/VnJVL3HJ9z1w8J60HdvcYSk/xbDIp924JtZzyWc92jZ9uWqtGZAzI2e00oq/HlRbk6mZKm14tP5vkGfXV7DebIkpMFoq5ccw3dIgB2375pueMDwGk1GGk6NWXc0m7es3UQbvGe5X0I1ySPuWsZSIiIooMf6upRf2PNZOi1FtFZdbQ8Sqowe9DyvqMwWNtAy7j8xZ1O9aOa/gdaKZgrqet0bGpvtfFuNDKmlqiyPPJAMd6xQJBgPkkHeyuCFlHcMLKXS34el695IKuLJXbNpDSTWqoA0S5FnXcAhXA1Zb+bbuF1AQVL/SO+mqGUR90eUH3ljLN3pfiDarapny94Djo4mAPuV/K7lGciBxgNBTAaBQaCaDTStX2jdQEoMZt1vIFIbm1dq8dih4NM5bOkw7D+qgCzIXrVqghfQzNb/1+h36EE/bpvSLOAI6IiCgy/KmmFoHN5m+36y0uXZu01ksu6JKaMY3z4qQBgUfGtM508S8cAZcVzgus9bS4WdPtWVNLFHU+F+DgQHf2twt6zQktF40gwBCuERy7kSDTwaB+pRrqqpAVDnLI/cUBwnolBwHD0E695L13iustIm+/WUBeypRVr7lDzc25Sxc8DmAGc+CG4eriBd2DJVzB6fXBENVGs0i9iqrTirmVJAKbwe17qGW71w4BlPFBcuTX4/KRIxgCFCSO/HCiCnTaDenlkcpXo0wFrznPRERE4eFPNbXImLC2nsYoUKa0rouEBuzvFcvIVLoX0qoUMthvqeHBuYNRMxvWLXVKZ5tp1tQSRZ7PBTiY7MvaC94auIB1dAYHBWsLRNv2iqaWzKhFmTZwdLhnBMYVm6Ede0n1MhX1FpeB7bur+0Njd5C01hZhQs/sWTwP7HZwQF4yYZZk1Clutq+dDuiQD9x3wggVBIUFz69Xy056jYiIKHL8qabWrp72/t9/q++x+vybrXLtzxt6zcl8rnLztnunU1xMtauftbvle+UN9T2sqSWKPJ8LcOzSyqwHQ+S13rQU5FtT2MD6s9AqETm4Znlzvy5fzF6uCh4f122frXBg6tiwpep4YlerAjiorJg8x3YkByMhaBZQtVQ5vcXFut/Jn3lWVk6ZJ71bdlRXp+ygaLJV7Uayauo8VUhosHvtjIAOQ+fjeg2RisXK2OY6A2pyxnQfKMM79/H6GCIiovDyp5raFDb1tCj6R+bE3/+40uMwIjJwymi95mLeH6TYmd29d9fjvAW1s9Z6WtTYGlhTSxR58R4+fOi9yXs47Nm9W+rVrqPXvMMViQVjp+s134QuZ2cvnldXOq7/dcMRDKVT9StIkTN3OQkLJtr61XGQiuf4lzPbS5ItQ2avwVNoMNqCUZnTjv3BkDpGmpDGljPby1EKQHA1Cj/zzMULcufeHUnzXGrV6MAYCSIKRNMWzZHpi+eo5bxZc8m8dsPUMsWdV7pW00sic9sOlXzZQk+1oZg1Y/Nymem4hQUn0hgtCA/Mpm8OTpCq9cPqr9zSzlEMj3oRs3mjp0rB197UayIrvlgvAye7BxVogYwuYTBp/iyZtWy+WjbD70v3/Avy0BEEoAmBNe0cn+3j+wwNSTtH2rbdHDpIB0+fJq36LLYb0YGRXftJ1VLl1bLdcypa4C11sTPNc887XpOzMsIROGECTgP2FedJuPAKdq/dgTVbQ9LOpyz8WGYumae6s1UoVkZ9vfbndcfvHuU22oXXesfi9Uw7p4CBuZ/QyAM6du7kuHVWy2a8TG+SMEECeTFTFtWXv075avJWnvwqoIhIcAO4klK9dAWpVrq8yjWOTHADGHFCgIW6nLoVq6v9Qk5xVEdXkM6HfaxUvIx6nu/mL8zghoiIopU/1tQ2rV5PL7nDaAtGg7wFN2DONsFntvWzGnUwCFryVC0hNTs2dQtuAOnhRnDDmlqiqGGAQ0RERNHOH2tqS75VRMq9W1Kv2UOraLuaW3P6GDIt+rbuEu4LnI2q1g5pGASsqSWKGgY4REREFO38saZWpaz1HqoeY/czkG6/cNwM+cdUkwMIsBCYmWEUB5OZ5n81j97iDr/rnbwFZdaw8aruFs/JwJpaoqhhDQ4RBQXW4Pge1uD4lpiowYkr0VFT+9etm7Ln5wPyx41rku6FNJIr68vhHiGyQhc4zGuD/Xn08KFKf8+WMYtqGhQVrKmlYMQaHCIiIgo60VFTi9Ge0m8XVSMxRfIWinRwA+iq9kbOV1R9LkaOCjv2J6rBDbCmlsgeAxwiIiIiIgoYDHCIiIiIiChgMMAhIiIiIqKAwQCHiIiIiIgCBgMcIiIiIiIKGAxwiIiIiIgoYDDAISIiIiKigMEAh4iIiIiIAgYDHCIiIiIiChgMcIiIiIiIKGAwwCEiIiIiooDBAIeIiIiIiAIGAxwiIiIiIgoYDHCIiIiIiChgMMAhIiIiIqKAwQCHiIiIiIgCBgMcIiIiIiIKGAxwiIiIiIgoYPhsgPPo0SNZ8cV6adK7gxRvVFWKNayqlrEN90XFuUsXZMi0D6RCy7rydt0KUqNjU5m5ZJ78/c8/cvbieXXfhHkz9aOJiIiIiMhf+GSA89etm9JmcA8ZOHm07P75B/ntyu9y+ervahnbOgzrI3fv3dOPjpgvv/taqndoIss2rpGT58/ItRvX5civx2XKwo+lUa92cvTkL+q+z7Zt1t9BRERERET+wicDnI7D+8o3e7+XJE89LT2bd5BNHy+TzXNXyIC23STp00lk664d0n5Yb/3o8Nv14z71s2/fvSMFXssjMwd/IN8sWi9LJ3wkrWs3lsOOQKfP+OH60URERERE5G98LsD5es93svfgAXkycWJZ+MEMaVK9jmROl0EyvJBW6lasLos+mCmJEyVWwcoPh3/W3xW2/x4+lFEfTVbL5YuWkjkjp0jRAm9JqhQp5fUcuaVTo5YyZ8Rk+efff9VjiIiIKOpiKuUc37vS8TMa924vRetXllJNakjnEf3kx6OH1P3z1yxTKecHjh5U60QUPHwuwFm0foX62qhKLXk5cza1bPZipixSt0I1tTx/7XL1NTy+P7BXfj1zSp5K/KT0adVZHovv+dQxqlOlZDm9RkRERFERUynnN2/fkrZDesoAx8/Y8/MB+f3aVblw+ZJs/na7NOzVTlZt/ky27f5WpZyfPn9WfxcRBQufC3BOnjujvu4//LN0Gz3Q9vbTscPqMWcunlNfw+N/p0+or2/mfk1SPJtMLdspXvBtvURERERREVMp5whukPGRKOET0r1ZO1kzfYF89ckqmdxvpGTLkFn6TxolPx93nisQUfDxqQDn/t/31VUY2HfoR9n0zVe2tx+OOFPTrlz7Q30Nj1MXnFdwMryQTn31Jv0LafUSERERRVZMpZx/vmOrenzCBAlkyYRZ0qxGPcmeJZukff4FKf12UVk+aba8/WYB1RmViIKTTwU4CRIklASPP66Wpw0cra70hHZDc4DweiZJUvX1jxvX1Fdv/rhxXS8RERFRZMVUyvknq5epr42q1pYcWV9Sy2YIfDBC9Nhjj+ktRBRsfCrAQV1MlvQZ1fKtO7fVlR67W8a06SRlsuRqObyyZciivh785aj8999/atnOweNH9BIRERFFVkyknKOxwK9nT6nlUm8VVV/tZEiTTqWqEVFw8rkanHyvvKG+zv50kfz7wL6j2fg5M6RM0/dl9ZaNekvY8r/6hiR4PIFcunJZ1nxp/31oH71g3ad6jYiIiCIjplLOL1+9IvfuO5sSINUtNEw5JwpePhfgtK3bVJ5N+oyahLP9kN5qIk7Dw0cPZcHa5TJ31RK5cfNP2wAILSNnLJmrghWzdKnTSP3KNdTy8JkT5LPt7hN5IvBp1Ku9/HnzL73Fnrefb8DPqdW5ecjQPBERUbCJqZTzpEmS6KXwpJyHfj8RBS6fC3AQ3Azr1FsSPZFIduzfJSUaV3MEDC2k/dBeUrpJTRk1yzmXDQoUa5WropYN6H2PlpFTF86WJZ+t0ltdEDzlyfmqKjzsOXaIFKlXUbWvrNquoeNn15D/nTkpFYqV1o/2FNbPhw3bt6g0uO8P7NNbiIiIgktMpZxjqocXUj2vlo35buxglOfE2dN6jYiCjc8FOFCy8LuyetonKhj5998HjoDhiGzdtVMu/v6bOgiO7j5AFRBavfBcKnlcXzGyG5p++smnZMHY6dK0el1VhHj1+jXV5eX4qROOA2Zq+WT0VKn5XiX12Hjx46mvZmH9fFi/zTkyhOJHIiKiYBVTKedv5Smgvn60fIHXn4umBd4yLYgo8PlkgAMIZBaP/1D2r/5SfZ01dLxs/GipulUuUVY/yl3q556XrZ+slrUzFkjZIiX0VnfoqtKjeXv5dulGmecIaDB0vmrqPNkyd4W8mes1uXXHeUBEMGQV1s8/dvJ/cvLcadWuEpOGEhERBauYSjnv2KCFaj19/vIlad6vi0dq+YK1n8q0RXP0mr2zF8/LB7OnqUlCvWHKOZH/8tkAx4Ae+RjJKZKvkBrujhfPc2TFLFWKlLbtKJHuVr97Gxk6fZxax6RjBV97U0oUKiI5s70c8nOv/ek8ACd58mn11crbzweO3hARETnFVMr5c8lTyOAOPVUmBubZeadeRRWItBzQVQrXKuf4uZMkZ9aXJGsoXdSGzhivgqsOw3p7nS+HKedE/svnA5zokip5StWtBQes/x4+1Fs97dy/W33FhGERgatRm775UlImSyHli5bSW4mIiIJXTKWcVyxWRjUmyJo+kzx4gJ97VH1+37xzSwVLi8Z9KMmfeVY9Nl48z1MdowNbqhTPyRMJE6plK160JPJfQRPgvJgxiyR9Ookqdvz40wV6q7tfz5ySb/Z+r5ZxUI6IPT/9oNpc4koU2lETERFRzKWcI/tiw0dLZP3MRTJ90BiZM2KS7FzyWcjoDj7vwS7lfEC7bmpfVk6xT2VjyjmRfwuaAAe1NzjowdQFs2Xw1LGqwwqu/Fy4fEnWb/1CGvRsq/KA38j5ipR6K2IBzmvZc8ug9j2kdnn3YXYiIiKKvpTzziP6qZTzI78eV+svZsoixQu+I4Xz5JdkSZ2jNhCScv6UZ4ATP158tS9In7PD0Rsi/xY0AQ7gKlC7es0k/mPxZfmmtVKxdT15tdK7UqpJDek1bqj8deum5Hoxu7oSFNaB1woFj7XLV3U7uBIREVH0evDfA5Vyvvfgj3qLJ0z7gE6pwJRzouATVAEOtK/fTA15Y1gcQ88YxsbwNTqoYQRm+cSPGaQQERH5qLy5X1dfjQ5sVo8ePZI5KxapZYzuZEiTTi2HF1POifxf0AU4gKJEFDaumb5Aflr3texb9aUsGjdTjcAglY2IiIh8U71KNSR7lhfljxvXpFan5vLFzm1y/a8/1eSeGNnpMXawSjFDJkbP5h30d4UfU86J/F9QBjhERETknzCqMrHvMMmWMbOaC6fLyP7yVu1y8ma1kqo2Z+PXX6oObKi7fftN56SgEcGUcyL/xwCHiIiI/EqmtBlk7fQF0rd1F9VcAA0J4sePLy+kel5qvFdJ1s1YKO+XrawfTUTBhgEOERER+R2klDeoXFO1h/5m0Xo5vGGnbJu/Rk0uii5tRBS8GOAQEREREVHAYIBDREREREQBgwEOERER+YTbd+/I79euys3bt/SWwIfniueM505E0YMBDhEREfmEuSsXS9H6lWX0R1P0lsD3wZzp6jl/tHyB3kJEUcUAh4iIiIiIAgYDHCIiIiIiChgMcIiIiIh8zK07t6Xn2CHSbfTAoKpJIooODHCIiIiIfMznO7bKZ9s3y6ZvvpKNX3+ptxJRePhcgPPXrZsyZNoH6vbw0UO91eV/Z06q+6YtmqO3uPt6z3fSpHcHVbDXoEdb2fXjPn2Pp7MXz6ufVaFVPXm7bgWp2LqeDJ02Tm2PquOnTsiAyaOlQsu68k7dilKna0sZNmO8nLt0QT/C3eU/rsjIDydKpTb11b5UbddQJs2fpbqq4CqO8Zr8999/+jtcYvo5428yYuZE9T1lmtaUUbMmy517d/W9REREFN3ezPWqJHnqaXn6yafkzdyv6a1EFB4+F+DgxHnZxjXq9uiR3mjy25Xf1X2f7/hKb3FZ+cV6aTO4h+z++QfVcnH/4Z+k1cDu8tOxw/oRLpu/3S41OjZVP+vkudNy7cZ1OXH2tCzduFpqdmom3+z9Xj8yYv598K9MXTjb8TOaqv05ef6M/HHjmtqHJZ+tknItasu23Tv1o52+/WGPVGvXWBauWyG/njml9gUB0qxl86V25xaO5V9DXpP/HroHfTH9nO/dv6eCs0XrV6jvOffbRVmwdrkaNn9k9wciIiKiKMuaIbPsWLxe3V7KlFVvJaLwCJgUNZxso9UidG7USr6YvVxql6+qRoG+3vud2m7Ye/CAdB7RT42OFHojn8wbPVV2LvlMFn0wU97NX1iNmLQd3FN+OPyz/o7wGzZ9vMxYMlce/vdQmlSvo37mt0s3yqeT50jN9yqpAOXGX3/qRztHeloN6CY3bv6pDmCT+o2QbfPXyKqp86Rn8w7y2x+/S8v+XfWj3cXGc17xxWdy+sI5daBdOWWuzBkxSVIkS64Ct7OXoj7SRURERPYSPZFIEidKrNeIKLwCJsC5fPWKKsJ7MnFiaVGrgWRMm14GtOsmnztO+nHyb1BBwexparlyibIyd+RkKfjam5IyWQo1BPzhkHFqO4KEaYvt0+C82bF/lyMgWC+PxY8vs0dMVAEKfmaKZ5PJKy/lkKGdesvA9t0lXjzXyz7m4ynqd+V75Q1ZPuljKfN2MXkh1fOSM9vLKkBaMXmuxH/M/s8UG8/5l9O/qq9VS5WTXC9ml8J58svyiR/LxllLJFPaDOo+IiIiIiJfETABTsrkyeXxxx+Xu/fuybSFs+Wff/+V+I5AIn3qNPoRTj8fPyKHfz0uiRI+oYIBO/3adJEEjyeQ3T/tVzU/4TVh7kz1tX7l99UoiZ065atJxeKl1TJSvvA7sJ8D23VXV2qssqTPKC3eb6DX3MXGc06d8nn19dNNa9VoE6R9/gV57LHH1DIREVFYIlqXGpoN27dI836dpXijquqG7IPvDuxV963ftlnVmW7dtUOtm0WkXjUijw0P8z6XaFRN2g3pJd/rffbm/j9/h9TfIl3cTlTqd3HxE2nujXu3V8+zVJMaKtPjx6OH1P3z1yxT33vg6EG1bkCJALbj66H/HZMuI/tLsYZVVTbK5au/60c5RXb/hs+coLbj+9d8uVGaOV477GOrgd3U74QHDx7IvFVLpWbHpvJu/Urq9+MiszesJw4ujw0aNGiwXo6UixcuyOqVq/SadzgprlqqvF7zDm941HhA23pNHSfs8dSyAcXwG77eIsmeeVbqVayhtzqeSHyccD9SqVioQ1nx+Tp1cMj9YnZ14m747sAe2bb7W3n6qadV/cmWb7d73JDedenKZUfA8I8Uej2fZM2QSX+3d9f+vBEySjK4Qw81OuKNc1+RNvajbN65TbI4fn77+s3UNjtJn06i6magTZ0mIcFFbDznbI6v6OLym+OgtXzTGkewdFj9LdOkSq3uJ/IX+P+279CPajlN8lRSJX9xtUxxZ+Zm57EeKucrJmkdfxeKO/tOHpH9jltY8r+aR93CA3WpMxbPk97jh8phx4kp0rHvOk7WceKKE9WlG1ZJ9qwvSuZ0GdXj9/z8g/o8y5H1JSlRqIjaZsDFvD4Thsv0xXPl/G8X5fadO+p25uI59Tn1+GOPy7GT/1OfhficMl9oxIl8tzGD5MLvv6mTWnzebfpmq3pM6ufc33cReWxY7PYZ5zlI/Tb2+a/bt9R+v5nrNbd9vnf/vnRyBBy4QNm4Wh2Pi6Co323er4vscZwDXHecgyAI+uPGdZVqvm3XTsn9UnYVROL7W9Vu7HZhEtkfXUb1VwHCRf08se3kuTOybtsX8nyKlPLFzu2qdjdPzldUVolh+aa1jr/barn+158yd+ViOXriFxWw/OsIOFrWahhyjhOV/es4vI+6OHvl2lVVj4zXDvt41hEQo7tcwdfflH6TRqnzkivX/wi5b/uebyV+/HgqK8YMv/v9zs1lx75dqkwArzl+Ps6Jyr1bUuJZzjXJt635cpP6fwkFChZUN6uAGcGBtnWbysfDJzoOlBlUwIFi//Kt6qorMYbTulvYnzf/Uq0Xvd1wAIIr16+qr2G56vgPBvhPEp6ACHBQhgwvpFVfvQnt/ph+zqi32TBridSrVEOl3uGAhatZ/SeOZF9+IiIKVUTrUkPTZ8Iw1S4Zn0U4kUZa9/aFa1WadcHX86qRgY3bt+hHu0SkXjUijw2PyO5zWKJSvwtth/RU5wnI7OjerJ2smb5AvvpklUzuN1KyZcgs/R3BAy5ohgYXjF7KnFX9TdfNXCgjuvYLubga1f0zIJipX6mmrJ2xwPHazXYEW6+qYKput9ZqVK180VLqvbTxo6VSq1wV9T0fLV8Qcj5jYD1x8PG5ACee45/h4UPPIdX/9Dbz48zefrOAfPbhYhndfYA66UfXtfZDe8nBX46q+59K/KT6igPLpo+XhXmrUNSZThaWxPrKCg6ON/76Sy2HJVnSZ9VXdFkLzZXrod8f088ZI0j923SVTY4DfQ3HB1J8x4F61ZYN0mvcUP0IIiIid5GpS/UGV/23fPu1Wp4+aKx0adxaXn05l6ROmUo1ysEJKwImZDFYhbdeFSLy2LBEZZ/DEpX6XQQN2LeECRLIkgmzpFmNepI9SzY16lX67aIqkMB5xd///KO/wx6+f2yPQepviiAGtb2GqOyf2Vt58qsU+pczZ3O8djlldI+BajtS2hCsjO42QL2XkM6P9xKyS7Df1q6wrCcOPj4X4CR71nnSDxjatcIwJCDy9gbDnCiaXz3tE3kxUxZ1hWjj184rJC851gHDnQgGvN2SP/Os+vps0mfU48OCAwN61YM1X9WbbBkzq68nzp3xuNpgdvB42CkDsfGcMZI0zPGBNKJLX7WOqz8cxSEiIjsRrUsNDaYqAKQTITiwQvZEj+btbT+/wluvChF5bFiiss+hiWr97ierl6mvjarWVqmAVghcBrTt5pYyZgffa5euHtX9MytbpIRecsLfIfVzztrgYgXeUn8rA37fa9lzqWWkQJqxnjj4+FyAg+FS4z/7sVPOiNvs+EnnttQpn1NfDcgFnbNikUrDMuA/VeE38qtlYzuunjyRMKHKOV2/9Qu1zQr3Yb4aFAFeueZMPQsL/pNVLFZGLWPIGXnHdvDzjPSxnI6DAwI15IbOXblEbbNCoPLhsvl6zV1MP2eMRmEIGMWRZua86D9v3dRLRERETkiZ/uW080SySsmy6qs35ppRb349e1p9LfVWUfXVDibFtNZeAH5+mzqN1fLMpZ9I8YZVVNqcXeF+RB4blqjsc2iMn5vZESQYF0rtFC/4jl5ywef6r2dPqeXQ9itDmnQqVS00Rt2UVVT2zypTOs/RFYwAQnqb9H3jQrP5vAjqVqgmzyVPoebyQ6ODFv27yA9HIj4VCPkPnwtwoFiBt9XXmUvmuQ3dnjp/VtZ+tUktF7P8x0B3knFzZ8jQ6ePUsCjc//u+qhkBo0AOb3DjqgGK21DkZ4aiJXRkQfBwwnEQMP6zhEfXpm3UlQU0QmjSu6PHFQRcNUDnmBPnnP/50du+c8OWahk5o3NWLlYHHwM6frQe2E1dDbET088ZxXpN+3aSvhNGqAJIw5ffOYfccWCOzFUtIiIKbJGpS/UGn4tGt7XI1qyGp17VEJHHehMd++xNVOp3kYJnBGthfb9dAGFmpOZbRUd9seFJmzmAHtejLnYjQ8aIjPlcClhPHHx8MsBpXrO+GiJFd7BiDapIywFdpW63VlKtfSN1Eo68S+SJmiG3FW9a5JaiDWWHYX3kvWa1VHCAIdRqpSvoR+LnN5ACr+VRhWqYkd9oM4k3O74HbZJTpUgpk/uPUnm44YXAYFyvweo/Eq4MlGxc3bHPjaXj8L5SvUMTddXA6PpgqFamghq+RoAybs50KVSrrCrMq9W5uWqlif+EJQrZX+WI6eeMQBO5tRiNqt2lhdovtM3s5zggQIcGLdSHFxERkVlk6lK9wefMM0mSqmV04QqNEVjZCate1Swij7UTXftsJyr1u0mTJNFLYX9/WPd7q6GJrvpiCK0+K6KnH6wnDi4+GeAgN3PZxI9V4ReGGXfu3636sqNwDEOai8fNVLmWZu/kLeg4OR+pitjQKeOr77+R369dlddz5JaPhk9Qow0GpGvNHTVFujVtq97wOHBhtAKtKaFSifdUARyK7iIKbR5RtFalZDlJoFtWYsQDbRSRfodWj+bAA89jfO+hqogOzQAwaoPCTBxEEz3h7G6C/5B2Yvo54wA9a+h41aXkwYP/1H7t/vkHeSJBQunapI3Ur+Rq001ERGSITF1qaIxUJ2OOFjsIpow5UrwJrV7VKiKPtRNd+2wVlfpdnGfgnAFC2y+M8qCFcmREZf9iA0aOWE8c+HwywAEUr30+e5l8vWidGipePP5D2bfqS5k+aEzIVREr1IZsmbNCtQycMXis+v4l42dJ1vSew+MILDBStGfFZvly3kqZOfgD9dhvl26QMd0HqtGMyML+jerWX/av2SobPlqi9gUtDnc7flevFh1UMb8V2iB+v/xzWeQI3qYOGKW+opUmupsg7e3Y59+rG0a2zGL6OeNgOK7XENm2cI36Oyz8YIbsWPKZSnnj6A0REdmJTF1qaHBBD1C4b62vMGC6A1zsswpvvSpE5LFhico+hyaq9btv5SmgviI13tvfZf7a5SrjIzKiun/RDUEk64mDj88GOIbnUzynhorR+zw89TA4qKJlINKrMAIUnpPwdKnTSNECb8kbOV9RoxvRBeljCDSwL2hxiFGU0CB4wQhQycLvqq/WYMab2HjOxt8hb+7X3UaGiIiI7ES0LjU0uAiImk+cdDfs1U4uXL6k73FCqvaAyaP1mrvw1qtCRB4blqjsc2iiWr/bsUELlYp+3rE/mIjTGnwtWPupTFs0R69FXFT3L7qxnjg4+XyAQ0RERP4nMnWp3uCC36huA1SX1V/PnJIyTd9X399mcA95t34l6TpqgLqIiIuhVhGpV43IY8MSnn1O+WwydeEwoqJSv4vGQ4M79FT7h1rnd+pVVN+HeufCtcrJqFmT1CgM6p0jKyr7F91YTxycGOAQERFRjIhoXWpocJK6euonKiDAiTNGgJDehjS3/K/mUSnXWWw6tkWkXjUijw2P0Pa5SL5CsmLKXNtWyGGJSv0uIH1w6YSPVJbJgwcP1Peh3vnmnVtSq1wVWTTuw5B0+vBMxGoV1f2LTqwnDk7xHj586N5LL4L27N4t9WrX0Wveoc/7grHT9RoRUexCysX0xc60i7xZc8m8dsPUMsWdV7pW00sic9sOlXzZcus1igszNi+XmY5bWNrVaybt6zfTa+GHugu0EEb7ZIyGIKU6rNRtb5Bedfr8WbWMxkRIuw4LTuQxvx66e6EzWsY06b1euY/IY8PLvM8vZswSUuwfVZiM9ND/jsqNv/6UZI6g5JWXcoY7xR0wunT+8kUVcObI9lJIF7Sq7Ro5ArJfZXK/kR6dayMiqvsXnRCs4vkiyELpAFPu/VPDnu1k36Ef1XLHzp0ct85q2YwjOERERBTjIlqXGhrUTGAEBLfwBDcQkXrVyNS2hsW8z9EV3ACChYjU73Ye0U/qd28jR349rtbRIQ4dagvnyR8S3MC1P53trZM8Ff75AO1EdP9iEuuJgwcDHCIiIqIg8eC/B6omau9B5xVwO5gb76qepwYtv4n8DQMcIiIioiBhNDWYu2qJ3Lj5p1o2Q8cztMoGjO5kSJNOLRP5EwY4REREREGiXqUakj3Li6q+qFan5vLFzm1q/h/MW4ORnR5jB8v6bZtVWl7P5h30dxH5FwY4REREREEiweMJZGLfYZItY2bV+KDLyP7yVu1y8ma1kqo2Z+PXX6oaJLSSRr0KkT9igENEREQURNA4Ye30BdK3dRfVXCBVipQSP3581fygxnuVZN2MhfJ+2cr60UT+hwEOERERUZB57LHHpEHlmjJnxCT5ZtF6Obxhp2ybv0aGdeqtWm8T+TMGOEREREREFDAY4JAtFB1iIqVN33yltxAREfk2TOSIGyYVNfO2PSpu3bmtfia+kn/D+8J4j1BgYIDjw9DR5NKVy6rTSWwb+eFENUssvhIREfk6nKQWrV9Z3X7/44re6n17VE1e8JH6mfhK/g3nWcZ75J9//9VbyZ8xwPFhX+3aISUaVZP2Q3vrLbGnaP631Nd38xdWX4mIiIiI/AEDHLI1tFNv+W7ZJhnRpZ/eQkRERETk+xjgkFfJn3lWLxEREREFV40u6qt6jh0i3UYPlJu3b+mt5A8Y4BARERFRiNBqgIOpRvfzHVvls+2bVTCHCVDJf/hcgPPXrZsyZNoH6vbwkWe3k/+dOanum7Zojt7i7us930mT3h1UoViDHm1l14/79D2ezl48r35WhVb15O26FaRi63oydNo4td3O5zu+Uo/H10P/O6Zm/y3WsKq0GtBNLl/9XT8qfMLaz08/XyerN29QyxcuXwp5Tf777z+1zXD6wjm1z9j3t+uUV89l4OTR8svpE/oR7nDQMn4WrkzMXDJPqrZrKOVb1pFF61foRzmv0BjP1c6jR49kxRfr1XMo3qiqeh2wjG24z5uI/H2IiIgo9oVWAxxMNbpv5npVkjz1tDz95FPyZu7X9FbyBz4X4Ny5d1eWbVyjbnbnyb9d+V3dZ3fivdJxct1mcA/Z/fMPqtXf/sM/SauB3eWnY4f1I1w2f7tdanRsqn7WyXOn5dqN63Li7GlZunG11OzUTL7Z+71+pMsPRw6qxy/dsEaa9e2kggAENicc358iWXL9qLCFZz+/P7BX3Q/X/rwR8poYLS4R/C1Yu1wFJ9hn7Dseh+eCIKNmx2Yya9l8j5aYf//zT8jP6jN+mExZ+LEcP3VCTp0/K08kfEI/SuTHo4fUY/CcrRCEYv8RSGEf8TfB64BlbOswrI/cvXdPP9olIn8fIiIi8j3BVKObNUNm2bF4vbq9lCmr3kr+IGBS1DBq8MGc6Wq5c6NW8sXs5VK7fFUVCHy99zu13bD34AHpPKKf3L57Rwq9kU/mjZ4qO5d8Jos+mKmuSGBko+3gnvLD4Z/1d7jD0OxLmbOqx6+buVBGdO0nCR5PoO8NXXj3E9uql6moltOnTiPDO/dRN8w8DBh5GTVrsmpniMd+Mnqa4z/gZ7LwgxnSqGptNdIzaf4sGad/l53tu7+TPq06yVefrJLR3QdItVLl9T2h6zi8rwoAcVWjZ/MOsunjZbJ57goZ0LabJH06iWzdtUPaD3O/6hORvw8RERH5rmCq0U30RCJJnCixXiN/ETABzuWrV1QB2JOJE0uLWg0kY9r0MqBdN/nccSKNE2qDOtGePU0tVy5RVuaOnCwFX3tTUiZLoYYfPxwyTm3Hife0xfZpcAkTJJCxPQapxyOix/eHV3j3s+DreaXAa3nUcvJnk6lgB7fH4sdXIy4fLpuv7pvUd4QMat9DPfa55Ckkb+7XpXfLjvLx8AkSP158WbBmuRqNsVOzbCVpWKWWpH3+BfWcjeApNEgxQ4CI/Ucw1aR6HcmcLoNkeCGt1K1YXQV9OBAg9cwcIIb3eRMRERERRUXABDgpkyeXxx9/XKVGTVs4W41s4AQfox9mPx8/Iod/PS6JEj6hTrDt9GvTRY3I7P5pv6r5scqR9SVJkyq1XouY8O5naKYu/FgePHgglUq8J6XfLqq3uiucJ7/UruAcIcFIjp2Shd/VS+Fn1Ok0cgRGL2fOppbNXsyURepWqKaW569drr5CdDxvIiLyT7gwN2DyaKnQsq68U7ei1OnaUobNGC/nLl3Qj3CHzy6kWzft28lZ59mgijTq1V4Wr1/pUYsaHTZs3yLN+3VWvws3ZHF8d2Cvum/9ts2qJhXZCaHZtnunqslFTSrqV7C85duv9b3exVQtrSGizy2sGuCwanQhos8Jhs+coH7u5T+uyMFfjki/iSPkvea1pGbHps7tEax1tsLPRWOESm3qq7rrqu0aqfMjZPN4c/+fv0OeP153byL7/sFFd6TvN+7dXtUml2pSQ2UYGRem569Zpr73wFH3coGYfg+A+e+x5suN0szx/djHVgO7qTp0wLnovFVL1d/o3fqV1Hse/29DE1u12I8NGjRosF6OlIsXLsjqlav0mncYJagajhQo/KFQWwJt6zV1nATHU8sGNADY8PUWSfbMs1KvYg291fFE4mP04ZEaXUBtxwrHf1C8MXO/mN0tfey7A3scB6Fv5emnnlZ1K1u+3e5xQ8oUuof88+8/Uuj1fJI1Qyb1vTv275JDvxxV20oWLqK2RVR49xMQXH353TeSOmUqqfFeJb1VpP+kUfLgvwfSo3l7NXLizbNJnpGVmz9Tb87mNRuoEZr7f/8tc1YuVvd3athSpZTZ+faHPSoYfPXlnFIkXyG9VWTiJx+qg0E8x98Fj7F7/U6eOyO/OQ5Ejz0WX+roYCciz5soJuw9+KNKL4U0yVNJlfzF1TLFnZmbXRdBKucrJmkdfxeKO/tOHpH9jltY8r+aR93C498H/8qMxfOk9/ihcthxUnTj5p9y13Fyhs8lnCQt3bBKsmd9UTKny6i/w/k5325IL8d9q9UJ9u07d9TnzsXff1Ofw1/v/V7ezPWaym4ww8nijCVz1XKjqrVUGjV42w646NZnwnCZvniunP/tovN3OW5nLp5T3bMef+xxOXbyf+ozC+cxSGs3GOcE+Bz78dghGTp9nJx1BGzYV5zLYPmLnVvVc8VFR/wsMwRxC9d9qk5ofzp+WK7/9afjxPW+3HB8PXriF1nlCDLix48vb+R81e1c6M7du6rJES7Wnjp/RtXL/nHjuuO1/UtKvVVUcmV7WT0uss/t408Xyjf7nHXI2B/8Htxa1W6sziNwArv4s5WSMnkKt/MDiOxzgo7D+6jzDhT0D5g8yvF+Oa5qfq9c/0P9/s07t0sJx7nXM17OW0KD85Xm/brIHsc5yPU/b6gAAa8ZMk227drp2J9XHCfxm9Rj29RpEpLRgn3v5Hgu+P2Nq9VR6WpmUXn/IKuly6j+KkDAexs16NiGc6h1276Q51OkdLx/tqua8TyO/cup/64Q0+8BMP4eV65dVTXd+H7sI97X6C5X8PU3pZ/jfHT5pjXqb2Tct33Pt46/cTzJ98ob+ie5IJjrNmaQXNDPF+fam77Zqn5v6ufCf/zH3wrfCwUKFlQ3q4AZwYG2dZvKx8MnqpQpFNxPXThbyreqq6JFw2ndIe1Px5sAbf+83XBwgivXr6qvZoktb/CICs9+eoP9uv/3fbWcNb3rA8FOtoyZ1VdcdbFr9Wj9jxoW/F40BwCcKNq9brj9cMSZmnbl2h/qqyEqz5uIiPzPsOnjVXDx8L+HKqUZaczfLt0on06eIzXfq6Qa4eDk14AAqG63VuoKdrrUaVR9qKrznPOpfNBzsGRxfO7hRBkjQAgcoqrPhGGq/S/Sv1vWaijLJ30s2xeuVenqSBXHFf6N27foR9tbvWWDOgHEyf5HwybIN4vWy6JxM9UJMTIVVm3+TAZPGasf7RLTtbSRfW5h1QCHJjqe0/TFc1Q99LxRU9T+Tuk/Up5N+oz6e2NEI6IweoiRBby3XsqUVSb1GyHb5q+RVVPnqTri3/74XVr276ofHTFRef+0HdJTnf8go6h7s3ayZvoC9Xec3G+kZMuQWV3M/tkRJIYlJt4DZghm6leqKWtnLHB8/2xHsPWqCuLrdmutRl/KFy2l/j9v/Gip1CpXRX3PR8sXhJxHG2K7FtvnApx4jn+Ghw89h6H/09vMjzN7+80C8tmHi9UfGSfS6PDVfmgvOfjLUXX/U4mfVF/xh8VBM6xbhaKl1ePN4j8W9ZctrP30JtETT6jRE0CQEBp0hjM8aVMghzd8RCRIkFASPO68AjVt4Gjb18t8WzrhI/VYs8g+byIi8i8Y4cDVfnzWzB4xUZ1MonY1xbPJ5JWXcqhuXAPbd3d8prk+ixAQ4ao/TqLWTJ+v6kPxWZEhTTqpUKy0Oil9K09+dYKFlKeowNV7I4Vs+qCx0qVxa3n15VwqawIn2HNGTFJBGLINQoPupDixw0njO3kLSqoUKdUIU68WHWTKgJHqMeu3faGuthtiupY2Ks8N50feaoBDE13PCSMV43oNUfuB/cWIRJ9WndV9SI+LqDEfT1En0RhRwAl+mbeLyQupnle/B0H3islzI3VeF5XXGEEDvh813UsmzJJmNepJ9izZ1N8RpQcIJHC+hPdWWGLiPWCG/28o3UBZArJ6RvcYqLYjWEWXudHdBqj/z7j4gP/PKOHAflu7Ecd2LXbUz9SjWbJnXZ05MLRmhSEtCK0tM/64+COvnvaJqgnBFaKNXzsj1Jcc64ChNhw0vd3QIQRfcdUgpoS2n94gnctImTvg5eBgMEZSUj/3fLQ8Dxzc8AYGRObW18y4ZUybTlI6/j5YthOZ501EgePS9Suy74T7lcnjF0+rGwWOCXNnqq/1K7/vlvpiVqd8NalY3Hkh8fipX9WJH+o1h3Xuo1KVrJB5MKxTH/V15/7dIWmnkWHUKpR7t6Q64bPCxUSkgof1+YnzBVyBNy4+mpUoVETdcPUa9UOGmK6lja7nFhHR9ZxwYdmaup7/ldfVV1y4xe8IL0ydgXpqBFUD23W3zVzBeU2L9xvotfCLymv8yWrnSBRGtVDXbYXAB51pjWAlNDH9HihbpIRecsKoHs4roViBt9T/VwNe59ey51LL1hHW2K7F9rkAB0N1xot9zHGwszp+0rktdcrn1FcDrvjMWbFIpZ4Z8EYu/EZ+tWxsR/T6RMKEKt9x/dYv1DYr3FeuRW2VA2xNs4qq8O5naGrooeMPl85T+al2kF86xfEGghplKqiv0cHIqZz96SKVW21n/JwZUqbp+7J6y0a9JXqeNxH5nlv37qhgZd2+bTJj83JpMn2A263GuK7yStdqbrcyw1tL0xnOq4CGsevmSc3x3TweW6hvfY+fOWbtXPW78HsRLJHvQYaBUVBepWRZ9dUb42T2ux/2qK+oaTEuptnB1fe8etLFqBQo/3rWGVBjhMAb1OvY1RKY4aTdLhgzFC/4jvr669lT6it8r/e7UvH31FdvjPtxwRInhFbeLiRG13OLiOh6TjmyeZ7wJ306qV5ynC/cCv/5gvE6ZHa8n4y0fTvG3ygiIvsaI9g13guhfS9GLZGqFpaYfg9ksvn5GIWF9DZ14Mb/Bet5Hf6ft6nTWC3PXPqJFG9YRaWvhta8ISp8LsCBYgXeVl+Ry2keOsNklGu/chaBFbO8GdEdYtzcGarID1cGADUjKCwDozgLQ6VGpI4OLiiyMkPRErpL4IT8hOMNGNpBKzLCu5+haVDlfXk9R261jw16tvXoSoLisYY926mOIxhSRN5ldEEdDQLQk+fPSPshvd3S4PB80CBi7qolKtfVHABFx/MmoriD0ZVth/aowKL/0qkq0EDwUbhfAxWs9F86TTUNQJG6+fbLpTP6J0TO7ft3PX7moh0b1O/C70WwhEAIgVTHuaPV/iHYso4QUey6et15cRBXiY2sg7CgUBmypg/78dkyOrMxLv/hWScbHjjJNDq4hdasB8K63+4kzyxDGuf9py+cVV9jupY2Op9beEXnczJKCczMowTWCcxDg/MhiO7XISqvMVK1jJP6sL43rPcWxPR7wK7E4XE9smT3u41RJ+yDVWzWYvtkgNO8Zn01PIeOW2gN2XJAV1V0WK19I3VSj5w/6/AncguRQoXhbbShxGz67zWrpYYnkQ9YrbRrFAMdxZAXihzenmOHhLTMQ7s6fA+6lyGHdnL/USpXMDpFZD+9wZDemB6D1IfAr2dOqVaHGHFCLQtaMpZvUVfl+uJNizzW6OxShuBmWKfe6k2N/OoSjatJrc4t1O8u3aSmKi4EzIljFJtBdDxvIoodGBVBkIBApsywViqAwOhKp3ljVGCxbt92FWgg+PAVCKS2H96r9g/BFoIfYwQIgc9CR1DEFLjYYzTjwUnOjb/Cd8X9yUTOE9trf4VeXwrGxbXIfkYj8HomiXNUAN2nQmMEa978cd3zJN3sqr4/xTPOq94xXUsbnc8tvKLzOUXnOUuypM6yB7tAyuxKGH9Dq6i8xkmTuLrAhbVfYd0PMf0eMNfIWek/eYTEVi22TwY4GJpeNvFjyZQ2gxriQp4titFQtIRhxMXjZqqTfDMU9k3uP1INXaP/+lfff6M6fmGk46PhE9zaQiJFbe6oKdKtaVvVJhkvLtraoX0xIH8URWco+IpuEdnP0CB4WT19vgoGn0iQUP2srbt2qtbXjz/+mOp4sW7mwlCHZCML+Z6on0ER6L//PlD96vG7kdqHNyvetMgdNYuu501E0Q9pZuaABqMiCBIQyFy6Ef4r5LhYgXQH3NrVa+Zxmz9mmsft2Offq+4/1u3oCmT9/hKF3lE/OyLHZgRhCHzGrp2rgjQGPLEDBc9GBoR1Dg9v0C4a0D7aWwo04Aq+0V0qRxbn90SG8fnordgdEKAZc354g3bIdlerDcaJmzHqhBP4mK6lja7nFl6x8Zwiw3gdTpw749HVy+zg8bDbo1tF9jXGCBXOhSC078UoD87pIiu23wMRERu12D4Z4ACKrj6fvUy+XrRODWctHv+h7Fv1pUwfNCYkKrVCId+WOStUu7oZg8eq718yfpbtcDcCJAQHe1Zsli/nrZSZgz9Qj/126QYZ032gGsGx6t+mq/owxteoCO9+VixWRv0+BHt2MMqFIG3Xp5+r1ptTB4ySBWOny67lX6iOF3ZDhziY4GfiFtqBBScXoT1XBDL4m+xf/aX6OmvoeNUiEDe8ae1E5O9DRDEHAQ3SzVDLgtQupJlFJKBBkIFgA0EHOioagcrW+avVMQi39vWbedyM+VPMN8DJsHU7ugJZv3/awDHqZ6OdKn6fERhhPxpWeV/tV1gXS7wFPAjwWM8TfZBShM8wQDG5t4AFda5GekoR3YEMV/hR5+nNks9WybnfLqrPsMhMWG3AhTdAMba3OlBMfYCLcqFBJsWW7+wn9MRoxvJNa9XyO/lcc3XEdC1tdD23iIjL+mBvcjrOJdGUCr937soleqs7nFwb3d8iIiqv8Vt5CqivaKfs7f8GJktHplFkxcV7IDSxXYvtswGO4fkUz6nhLIwWhKceBgdVtKtDHQ9GgIwh09Cg137RAm+piZ68TXwZ3SKzn97gDYLWmzjQ4wM+utPqQpM4UWL1t0H/f4y8hfU8ovN5E1H4GaM0RkCDdDPUsoRWI4MRmSoly6kLHggk9q7cogILBBkINhB04MKFEajENiMwwn6gjSz2y9hH7O/Irv1U4BPaiI8R8CDAw8gVRrAQ+HF0J+q6Nm2jrtJj4s4mvTt6dFVCW2HMZ3PinPO1xucJuqcB5kKZtmiOqtMwoH4TE1V/MHuaWh/YrpvXC57hgUwHdHDCSWTDXu3UpKJmSKkeEM5W1H0nDFeZDGao/2jUq706uUZq/fvvVdb3xHwtbXQ+t/CKy/pgb/Ce6tywpVpGMIH3j3m0DYFY64HdVLp8REXlNe7YoIU6Vzvv+B5MQGo9uV+w9lP1/o+KuHgPhCa2a7F9PsAhIqLIw0gNRiiMUZrQAhqMfiCgQWCA0RGMyIzq1l+NpiCQ8KdUUuxv1VLlVeCDER8EPhhtCivgwQgWAj+M7iAYRCobgkOKOFyUHNdrsLqCjrSkko2rS7X2jaXj8L5SvUMTqdquYchs5IYieQtJR31CiiCnUK2y0rh3e2nat5MUer+smiDywX8PpFnN+lK2SEn1uMhCFsSobgPUSBBGYdD9E/vUZnAPebd+Jek6aoBKacdFvNDgvZb0qSSqjqBYQ2dNb6U29VU9LE6c8fzxf8rc8jema2mj67lFRFzWB4emWpkKqlUyTqrx/sF7ChN/1urcXN6pW1GdYONYEVFReY3R8Gpwh54h9ebv1Kuo9gc154VrlZNRsyap0ScExpEVF++B0MR2LTYDHCKiAIPRB9TTIP0KIzUYobCDgAWpZhihwaSKCAIQ0ODDHqMjgcT5XIt4BDwI6PDhagfBIFLZEBwaaWwUMZjwcuOsJep1TvDY43Ls5P/ky+++lqMnflHTQmC2f+uJDVrJLpnwkQpEUTex5+cDgnbQN2/fUifPGKnr3rStfnTUIPth9dRP1ESUOAHGqBJS5pA6h8AFadRZwugChxqCFVPmqMdjdAI1vTihxM/D/D/4+Zgg0Sqma2mj47lFVFzWB3uDwGt876EqdR/1Lxi1QZMk1EYlTpRI3depkTOojqiovMZI4cSE6HhPY24f7A9qzm/euaWaNC0a96GaYwlCK/QPTVy8B7yJ7VrseA8fPvReGRcOe3bvlnq16+g175A6hYMSEVFcwHA/rghD3qy5ZF67YWo5UKB+ZKsjkFn0zWeh1tHgZB4BTMnCRRwnkJEv0A40aJKCK6lrvtwU6uSRTyd6Ukq8UkAq5ysm+bLl1lsDA1psowtdWFDzhLTAiEKtA9KU0L4W70OkKeMKcmiQ3nbGcUNaUfo0aWO0ZhPpQqfPO1s5I+Ua6esRhdog/Ix48eOpOUy8Bc9WSNU58usvaooFpN3lypY9WtPNo+O5RVRMP6fIwLw7h/53VG789ackfzaZSpmPrpGkqLzGCIjPX76ogn7MA2R0f8MoGCbAndxvpNfJU8MrLt4DdhDMYZ5LdIhDPXfGNOkjXK6AVEfjON2xcyfHrbNaNmOAQ0RBIVADHMz3ghNTtG32xhi9aFS1FoOacECws3XXDpm/ZrlHCpVZmmTPSdv3ajmCneJ6i3+L6QCHiJw6j+in2jdj9DzXi9n1Vk9F6lVUbcbnjpysRgPJKTwBDlPUiIj8EAIbTLaJ+V68BTdIP0MalpF6xuAmfJCeh7oj1CAhdQ91O3bpExgpQ10TUgERHLBWh4jCA3VkqEvbe9D7aDHmZDTmUAq0lOHYwACHiMiPGJ3QvAU2qFvAVUFnjckYNXJDkYegEHU75podK3Riw8hH6WGtGOgQUZhQEwNzVy1RKXxWSMlES2VAjVeGNOnUMoUfAxwiIj+AwAYtjL11QsOJNzqfoYAeow/RXbBJzrm8MBKGYAddsaz1FQx0iCg86lWqoS6eoA6lVqfm8sXObaq9NlqKY2Snx9jBsn7bZlWb0rN5B/1dFBEMcIiIfJg5sLE2D0AQg3oIBDY48WYaQ+zA645GDUhhCyvQQTc7TiBKRGZobDCx7zDVTQ7F/11G9pe3apeTN6uVlPrd28jGr79U8wailTTmgqSIe2zQoEGD9XKk3Lp5U06eOClp06XzuKn7b91SX/HBG5k+40RE0QG5zkZRYprkqaRKft8uDEdg00m1Jv5abjlOmM1wgt3i/QYyoc8w1XoztiYoJk85sr6kmjekfT61HDv5q2prbPjnwb9qtA3z6mA057WML6nWub7q0o0rctOxn/j/Yb3hPYjnA2gvixsRRR7mp6lVtorj67Oqw+Df//wt9//+W1I/l0ree6eEjOk+kMGNF+h2aTSAKVCwoLpZRbmLWmimTJrkuE1Wy+yiRkRxyV+6qGEOG8ykb1dfg8AG6Wc4oWYKmm9a8+VGr62m0WK6d9Wmftl1DQ0tjPcku6gRUVxiFzUiIj+BK/yo28AM+tbgBilQOKlEShROLBnc+C5kKuBi3vwx09SFPTOkriHVEMEC09aIiGIOAxwioji27dAe1RnNOgcJAhl0RGNg43+QwmUEOuhsZ4YAtszw1mxEQEQUQ2ItRQ0fzJyDgYjiCiZvNHJ2fSVFDVfx+y2dapuOhjls0J6YjQMCA1IkF6x1BDSmGh3AZKG9qjSV4q/4dq69OUUNI4p8XxJRXDl+ylXv6C1FLdYCHCIiXxHXAQ6u2i/cscF21nicPKIjGou4Aw+C7FGzJsnWXTv1Fhe8J0fU6aAK+n2ROcAhIvIVrMEhIvIBaCLgLR3NqLNhcBOYMOqByVeRtmZtLW2krSHwJSKiqInREZw9u3erGwWukydPysbPXB/IxXPnl5fTZtZrRL4pbfLn4qSTFU5ex66dq9dcUIzOeWyCj7e0tWKO4yhGc5IkfkpviXtoW37xuvs8TERx4Z9//5E529boNZEcOXJIqTKl9RoFmzhpE02Br2e37rJ61Sq1jBaoWwbM8qkPZSJfgJQ01NpsP7xXb3HCVfy+rTurGfIpOCFtrc/44R5tpVGbM7lpb8nOC0ZEHjrOHR1yPE2SJIn8eOigWiYyMEWNouTLLVv0kkiJVwowuCGyMFLSrMFNlZLlZO2MBQxughxG7dBtbWTXfm5d8i7duKpahjNljchTlXzF9JJzQnnzuQgRMMChSMMBBQcWA9LTiMgFJ6c4ScXJqgEnsTiZRUoa2z6TwZg/x9pSGimNuFrNdtJELug6iKwRw5ebGeCQOwY4FGnmAwoONL7e5pQotuBkFCel1nobnLziJBYns0RWmEphwdgZanTPDKN/GAXcd+Kw3kJEyBoxcASHrBjgUKRZ09OIKPSUNJy8cj4wCg1G9TC6Z5ey1nTGQDU5KBG5Z40wTY2sGOBQpDA9jcgTOk0xJY2ig7eUNbQXZ8oaEdPUKHQMcChSmJ5G5A5X1vsvnabXnJiSRlFhpKw1rPK+3uKE0UFMvMkgh4Id09TIGwY4FClMTyNy6b90qsfEnUxJo+iAUb8+rTrLtIGj3UYAf7l0hkEOBT2mqZE3DHAowpieRuSC4Gbdvu16zYkpaRTd0E4co4HWIKf0sFaq7osoGDFNjbxhgEMRxvQ0ImenNDQTsAtumJJGMcGZsuZel3P7/l01ksMgh4IV09TIDgMcijCmp1GwQ3CDk0pcQTfgyvr8MdMY3FCMMupy7IKcbYf26C1EwYNpamSHAQ5FCNPTKNjhSrldcIMr6/lfzaO3EMUc5/vNM8jpNG+M6uRHFEyYpkZ2GOBQhDA9jYKZXXCTJlVqnTbEZgIUexDkrJm+wGNSUHTyY5BDwYZpamTFAIcihOlpFKyM4AZXyg24gr52xgIGNxRn0MyCQQ4FO2ua2p7du/UaBSsGOBRux44eZXoaBaVL16/YBjdIEzJ3tSKKCwhy2tVrptecGORQMLFmk3AUhxjgULhZDxj5suXWS0SBCw0FMHO8ObgpUegdBjfkU9rXb6Y6+JkhyGHjAQoWxUwXXffs4ghOsGOAQ+Fmrr95OU0mSZL4Kb1GFJjsuqVh5GZUtwEMbsjnoINfn1ad9JpTv6VT2UKagoL5ouuxY8fkwoULeo2CEQMcCpebN2+qA4aBzQUoGGDkxhrccOSGfFnDKrXcanKMFtIMcijQlbCkzbMOJ7gxwKFwsaansf6GAl3/pVNl/8kjes3ZtWrawDEMbsjnWRsPGEEORiSJAlWa5KkkTbLn9Jp71gkFHwY4FC7mfFa0h86eNrNeIwo8CG7W7duu11zz3KR9/gW9hci3IcjJ98obeo1BDgUHc3YJR3CCGwMcChe2h6ZgsXDHBtvghq2gyd9MHzRGpVUakG7JIIcCWb6sufQS20UHOwY4FCZre+h82VwHEKJAgra6Y9fO1WtOKNpmcEP+yBmcz/AIctB4gCgQsV00GRjgUJh2W66AFM/NERwKPCjCHr3GPbhB2110piLyVwhyrF3/th/eKzM2L9drRIElr2kUh+2igxcDHAoT20NToEPKDupuzHPdYOSGwQ0FAoxAIs3SHOTMdAQ4+04c1mtEgcM8isN20cGLAQ6FCu2h9+5xTRTH9tAUiMasnevWDhoTeaLdLlGgQJCDxgNmaIPOehwKNOY6HGAdTnBigEOhsh4Y2B6aAg3qbsxNBdKkSq1SeogCTYlCRRyB+/t6zdlZDUEOUSBBl1e2iyYGOBQqc4DD9tAUaOzqbtB5ypzKQxRI+rTq7NZ0AHM9sR6HAk2+bLn1EkdwghUDHAqVuUDPfMAg8nfe6m7YMY0CnXXCWtbjUKAxd3tFF1jW4QQfBjgUKhToGRjgUCBh3Q0FK0xYy3ocCmT5srqfr3AUJ/gwwCGvrAeE7Gky6SUi/8a6Gwp2rMehQJYmeSq3Ohy2iw4+DHDIK2uAwxEcCgSsuyFysqvHWbhjg14j8m8vm2qGMWE5BRcGOOTVbtMVD/PEWUT+DKlprLshcrLW44x1/P+4dP2KXiPyX+aLski3x7QXFDwY4JBX5iseHL2hQIDUNFylNrDuhoKdXT1Ov6VT9RKR/+J8OMGNAQ7ZQnCDziMG1t+Qv0MBtTk1DVetWXdD5KzHQbBvwEWAbYdcEzwT+SPrtBZMUwsuDHDI1m7W31CAsaamta/fjHU3RBrqccz/H/D/hV3VyN+Z0+vNafcU+BjgkK1jR1xXOl5Ok0mSJH5KrxH5H8zxYe6ahsJqpqYRuSBVzfx/4tKNq5wAlPye+eLs3j0clQwmDHDIljlX1TrMS+RvcDXaDFericgdRjXRMt2waMcG1XWQyF+xDid4McAhD5jx9+LFi3oNV0DYQY38F9remif0xNwf+V/No9eIyMzacMB6cYDIn1gv0B5lHU7QYIBDHqyFeNYZgYn8BWoIZnyxTK85Gwu0r99crxGRFYJ/a8MBdB8k8kdIr0eavYETfgYPBjjkwTyE+3SiJ9WMwET+yG7OGzYWIAodugua/5+g+yAbDpC/MtfhMEUteDDAIQ9HTQ0G2D2N/JW1sUC+V96QqqXK6zUi8sY50tlMr4m6SMCGA+Svsqd1jeBg+guk4VPgY4BDHsydRthggPyV9YSsb2s2FiAKL3RUQ7dBAxoOXLp+Ra8R+Y+X07ifx1xkgBMUGOCQG+uVDU7wSf4IozeoHTBUKVnOcbL2ol4jovCwdhvkKA75I+uFWqapBQcGOOTGemWDIzjkj6wnYuZ0GyIKHzQcQGqnASmfHMUhf2Se8PPCeY7gBAMGOOTGemWDDQbI39iN3mASQyKKOOvFAbRdJ/I3aU3nMtZOsRSYGOCQG3ODAfMVDyJ/wdEbouhjHcVZu3cbO6qR3zFfrD127JheokDGAIfcmFPUmJ5G/gbpMxy9IYpe1o5qHMUhf5PPcsGWoziBjwEOuTFf2WB6Gvkbjt4QRT+M4pg7qi385jOO4pBfsV6wPcoAJ+AxwKEQ1vobdlAjf4LRG/O8Nxy9IYo+aBtt4CgO+ZskiZ9SE5cb2Co68DHAoRAeLaKZokZ+xDp606iq64SMiKIGk+SmSZVar3EUh/yP+Zxm9y62ig50DHAohPmKRppkz6krHkT+wDp6g6JozntDFL1Yi0P+LF+23HqJIzjBgAEOhTBf0WD9DfkT64kWa2+Iop91FGfd3m16icj3pU3+nF5yBDgXL8rNmzf1GgUiBjgUwtxVxHylg8jXoXWtAaM3KIomouhnvnhw6cZV2XZoj14j8m1pkrlfuGUntcDGAIcUXMm4deuWXmODAfIfOMFCuoyhaqlyeomIolvJwu9Kkqee1muO/3+H9+olIt9mvXDLTmqBjQEOKdYrGUxRI39hPsHCiRfSaIgoZuD/WIlCRfSayNZDe9hsgPzGy6aLt6zDCWwMcEhhBzXyRzixMjcXMJ94EVHMKFnY9f8Mo6fbDjNNjfyDuXnS0SMcwQlkDHBIMV/JMPeKJ/Jl1hMrpqcRxTxcSDA3G1i713WRgciXmdPUbrHJQEBjgEPKhfOuAIejN+QvFn7j6p6GEy42FyCKHeZRnP0nj6hW7UT+5NixY3qJAhEDHFLMKWqc/4b8AU6ofrl0Rq85W9gSUexoWMV9It2tbDZAfiBf1lx6yYmtogMXAxxSzClqHMEhf7DWVHsDTE8jij1pn39BsmfJptdEFn3zmV4i8h9sFR24GOCQgkmvDBzBIX9gnmQQJ1o44SKi2GMeNcWcOMcvntZrRL7J2iqaIziBiwEOeXZQ4xw45ONwIoUTKoM1XYaIYp41LdTc0ZDIH3AEJ3AxwCGPXvAcwSFfZz2RwuSDRBS7nHPivKPX0E3NNapK5KvymupwOIITuBjgkMdsvqzBIV+37ZCrPTROsMwzqxNR7DHPPYU5cZimRv6Ec+EELgY45NYLPk2y5/QSkW9C9zRzehpbQxPFHevo6b6TR/QSkW/iXDjBgQEOuV3BSJM8lV4i8k37Th7WS07mK8hEFLswemruprbvhPv/TyJfxrlwAhcDHHLLQU3LAId83L4TrivEmNyT3dOI4pZ5FJUBDvk6zoUTHBjgkFsXEY7gkK8zn0AxPS3mPXr0SH48ekgWrlshHy77RDZ/u13u//O3vpfI/f8h63DI37CTWmBigENy69YtvYQRHNbgkO/yrL95Qy9RTNh36Eep2Kqe1O3WSkZ+OFEmz/9IOo/oJ1/s2KofQeR5oWHb4b16icj3cC6c4MAAJ8hZ/2OnScYRHPJd1vqbQB7B+f3aVVn71Sb5YPY0aTeklwycPFpmr1gkW779Wm7dua0fFXO++v4badq3k5w8f0ZvIbLHOhzyZxzBCUwMcIIc/2OTPwmG+pv//vtP5q5aImWb15Y+44er5W27d8qKL9bL+LkzpNOIvlKkXiV1H1LHYsLF33+T3uOGyYMHD/QWotCVKOTqprafndTIx73MCc0DHgMccsMmA+TLgqH+pvPI/mrU5t79e3qLp/t/31ejO6u/3Ki3RK/Fn62UO/fu6jWnJxImlNdz5OacQ2TLmi7KURzyZZzQPPAxwCE3bDJAvgqFy4Fef7N+6xcqNSw8EjyeQNrWaaLXotehXzxbp04ZMEqWTvhIdn36hZR6q6jatnrLRinZuLrbDdso+FgvOHA+HPIXu3ft1ksUSBjgBLk9u/kfm/yD9YQp0EZw/nv4UEZ/NEWvuUudMpW8k7eg+mqoWbaSvJDqeb0Wvf689ZdecooXL5689UZ+tfxY/PjyVOIn1fLtu3dUOpv5hm0UnPK94rrowBEc8mXMVgl8DHAoxNOJnCctRL7oF1PrWRQ0B1r9zeH/HZMbN//Uay7dmraV7QvXykfDJqivyyZ+LHlyviqtajXSj4h+N2+7OitCwgQJ5LHHHtNrRPbMFx1Yh0O+jNkqgY8BDoXInjazXiLyPRevX9FLEpDNBTD6YadYwbf1ktNr2XPJ4vEfSqoUKfWWsCFgQTe08M5f8/DhI73k//64cU1Onjst//z7r94SO+7euyfnLl2QX8+cUvsQDKxpo2jrTuTr2GwpMMV7GEifZBRhrVu0lK++/FIt582aS+a1G6aWiXxNob711SSC0K5eM2lfv5laDhSfbd8sPccO0WsuRfIWkkEdeqiucRGBdtJoFoCT+2t/3lDb4seLr9LacmZ7WVrXbqS+mqEN9c79u1V3tn8fuAICfF/eV17XayIt3m8gH3+6UC7/cUWdxJtlSJPOLZXOaljnPpLhhbR6zeXgL0dVlzhInCiRTBswWh5//HG1brZh+xbVUc4s+TPPyvg+Q9V+AiYnXbB2uSxav1IuXL6ktmEE6sWMmaVzo9bqtRw+c4Labij8Rj5p5XhNYMe+XTJn5WK1bKhepqJUKl5G1m/brBo8nL5wThI4fuaWeSv1I5y+/O5r9doc+fUXefjood4q8lzyFFK2SAnp0KCFPP1kYBY4Hz/1q1Rt5xpZnNt2qMecI0S+YMbm5TLTcTOcOMPJaQMNA5wgV7dWbdm7Z49aZoBDvurWvTtSuF8DvSYybeBoKVGoiF4LDPsP/yQNerTVa+5w4v7Wm/mlZOF35b13ikvSp5PoezwhUBgxc6Lja+gpQqirKV+0lPRs3kGdfEPfCSNkTTg6s43q1l+1qQ7Lk4kTq5EMszrlq8nA9t31mkv7ob1k666des35O6qULKfXnFCnVK55LTn320W9xalPq87SsMr7avnajevSa9xQ+e6A98kmUSuCSUzNELyM6TFILa/a/Jn0nzRKLRs6OgKTX8+els93fKW3iCRL+qx8v3yTWr589XcZMHm0fPuD83jqzfMpnpMhHXvJu/kL6y2BJUdZ1/PqWaWpNChSQa8R+Q7UiDWdMVCvMcAJRExRoxC80ka+Ch3UzAKxVfGrL+dSJ792MBKAkZVBU8bIO3UrqJGeK9f+0Pe6HDh6UBr1ah9mcAMY5cBoSKNe7UJGeKLbx8Mn6iUXBFDX/3KvNTp1/qxs2/2tXnOavWKx2kezLd9u8whuUj/3vNQuX1Ut4/HtHIFSaMENWIOb8Fixeb1bcGOGwAvtve2CGzRlMMMEru2H9VYja4HIPOEnU9TIX1y44D4STf6PAU6Qu8j/1OQHLt1wP1EKxDlwUMg/uvsANbISGtSSIJ2tUpv6svfgAb3VOTcOAh98jQikWmHEJyY8kSChFMlXSK85oQ5o8Xr3tK65Kz2DGQQA3+z9Xq85Ieixale3iXrtYOXmz+Tn4zFT3P7bld/1kifsv/X3YvRp+4I1cmjDTlk1dZ7kfjG7vkfUBKpDpo3Ta4ElyVOu0UXrhQkiX8VzocDDACfIXbzofjWUyBddvO6a/yaitSj+pODreWXB2OluV8G9+evWTekxdnBIxzPUhtg1Kij3bkl1gv3dsk0yd+Rkx89+Ud/jgpGJsxfPS7MadWXeqCkeKXCohcF24/ZWngLqK9LNrLDNeFymdBmkc6NWHkHbkg2rQgIxjERh3+2gJsiw68d9cvTEL3rNKWPa9FK1VHm1jFGuyfNnqWUzjPBM6jdCdi75TDbMWixNqtcJqdWJKARS9SvVVIHouF5DpFqZCqpW6cNln+hHOOVyBDMju/ZTvxvPHbVOHw4ZFxKIAUaRvg9jpMkfmS8+cASHfBWbKgU+BjgUInuaTHqJyLeY59QIxA5qZnlzvy6rp82XReNmSsMqtbymrQGCg890cLB11w711eztNwvI+N5D1Qk2CvELvZFP5o+Zppattu7eKVkzZFZBVsIECfVWJ6RZYbtxQ80OviKAscI243GYLydH1pdU3ZDZnzf/klWbN6hlNAMwNzQw++HIz6rhAcy2FP0D6mKM9tVHT/zPI9UOgdns4ROkzNvFJGWyFOr5oeaoXqXq+hERg5S7fm26SOUSZVX9UvembeXg8aMedUZnLpyTUk1quE2AWqtLC0cQ5j5KtfvnH/RS4Ej6tCt91DwxL5EvSZLYvdHHzZs39RIFCgY4Qcz6H9r6H57IV6DJgCFHVs8RiECDq/5v5npN+rTqJNsWrpFPRk9T63aOnz6hvhrdwsyM0Q0zjM4UK+Deehou/Ob5/dEFncOstSifrFmmAp3lm9bqLU7WAHbOykVy7OT/PEY7Xs6cTXUlM5y31ObAqy/lVEGNld3rEhYEnnapkegkZ3Xn3l23yU+NG1LTzC5ctm8N7s+sI4RMUyN/wFbRgYcBThDjf2jyF79cOqOX3HP8gwHSqQq8lkfmjZ5iO/Jy5ZrzKrndPC9PJkqsl9yhu5nVP//+o5eiX+Z0GTw6oiEgazukp9y+6wpe06dOo9LJzNB8YMi0D/SaizX17b///tNLLnbPE7y9LqHJme0lveTObvTpiYQJVSOMsG7eRq78GUbszJimRr4qTTLvo+Pk/xjgEJFPs54gWScTDCSH/ndMtUu262qW4PEE8kySpHrN5Vm9zS6VbddP+/SSC2pV9h707CL2fChz10QHzF2E52BmpJ8ZGlero4rxkd5mQPMBawE/JjstWuAtveb0fErP54/X0xxAGb63eV3CYvfaA1LfrOpWrC57V24J8zZ1gHsr6kCAwM3suOniBJEvSZM8Zo95FLcY4BCRT7toCXACuQZnwtwZai6YSq3rydINq+XGTWc7ZRTkT1n4sep4ZoWCdiicJ5/6arb4s1Vu89qgg9nw6RPkF53WZoZ5dmISJhitVa6KXvOEAKJqKecoDxoBhKZz49Z6yQVtthMlfEKvOaERQ/cxg0JeR0AL6UmfeDYjCEt8S4qdAcGWUQdkQEME8ySfgH3Z/dN+txvS1gIR5hkycASHiOICAxwKwa4i5IusV4ADNcDBibdRdI55YoZOHyeFa5WTfNVLSd5qJWXmknnqPjPUtRQr+I5arlaqvCR6IpFaNiBtC5N3FqhZRrWVLuj4unTjan2vC+om3sjxil6LOa1rN/LYRwO6ryXWqWPvvFlQsmW0Px6hUULB197Uay5IC2tYtZZec0Gr6XfqVpQKLeuqr837dQ7pPBcdMGKBhgNmx0+dkF4fDJWT58/Ivfv31OSrDXq2lSZ9OrrdonM/fIm50YD1AgURUWxggEMh2GSAfJG5wUCgQhrWhHkz9Zo7pFhhIkk775etoupWAC2JezZvr5atcCL965lT8vc/nnU2CDiGd+7j0co5JqRIllwaVnlfr7mgfbK5sxn2pUm1unrNXedGLfWSpzZ1m9gGwAj0EGz8ceOa3hK9BrTtFvJ3MGASVQRVeaqWkFqdm6vX36xI3kIe9SqBInuWwHxeROQ/GOAQkd8I1DlwkIKWKW16vRY+qEHp27qzXnOqU6GaY1uXkJGQsOD1/GjY+JA0t9jQrEY9jzqNisXf86hlqVi8tMe2EoWKqFQ0b5CiNrHvcJUOF5os6TPqpejx9JNPyQTH7w2tpbcZOuJ90GuwXiOiuHbhPCf6DDQMcIjIbwRqehoCEsxXs2zix1KhWGmVbuUNJrcc1qm3zBg0Vs3zYtWgck3ZMvdTlfJldz88m/QZ6dWig3w+e7lbvURsQJtqBDkG52hNbb3mgoYEeC4GdJPr1ND76I3hlZdyyNrpC1QLaeuoFNarlS4v/dt01VuiD5ojfDFnuZqbx1v3NgRAuH/OyMkek6kGKraJJn9w4QIDnEAT7+HDh+4zj1HQ2LN7t9Sr7SrmPTTBMzefKK7N2LxcZjpugJNxzPQf6JBK9vPxw3Ly3Bm5/tcNNUKQMU16yZQuvfoa3nQytI4+d+mCnL5wVv7487qkez6NGr3ACEdkZ/P3J5ij5sCRg2q+HTxvjFRZR49iAlLi0AYbTSEuXbksyZ55RgXnubJl92hIEIimLZoj0xfP0Wv8bCHf1GT6ANl/0tmhMX+BArJk+TK1TIGBAU4Q+3LLFmnTspVe44cQ+aaOc0fL9sPOSR6DJcAh8mfo3IfmFgZ+tpAvYoAT2JiiFsQ40Sf5g2BoMkAUSAK5lTsFDjZWCmwMcIjIb/DEiYiIogOnxghsDHCIyG8wwCHyP2w0QESxjQEOERERxRimmRJRbGOTgSA2ZdIkx22yWn45TSbpVaWpWibyJU1nDNRLIu3qNZP29ZvpNSLyRRd//01KNnZN3NqzchOmA5HPWbdvu7oBmwwEHgY4Qcwc4BD5AwY4RP4hR9nCeonI9zHACTxMUSMiIiIiooDBAIeIiIiIiAIGU9SCmLUGZ2X3CWqZyJcU6ltfbt+/q5aZohY37v/zt8xduVh+PnZEXsqcVVrWaihJnnpa30vk7vipX6Vqu0Z6TWRu26GSL1tuvUbkG2ZsXi4zHTdgilrg4QgOKb9cOqOXiHxLbBUn3757R478etzrDSdtf978Sz86uHQbNVCmLpwtO/bvktkrFknLAV3l4aOH+l4idzdv39JLRERxgwEOEZHDT8cOS42OTb3ecEW6UK2ykrdaSWnSp6PsPXhAf2dgu3bjumzbvVOvOeG1+vXMKb1GFLq0yVPpJSKi2MEAh4j8xvFT/9NLcefOvbuy+6f90qhXe+k4vG/Aj2TEi2//MfFY/Mf0ElHo0jDAIaJYxgCHiPzGzdu39ZJv+PK7r2Xmknl6LTAlf+ZZKV+0lF5zKvh6XsmaIZNeo9hSpW1DNb+MccM6EUXOvhOH9RIFIgY4QaxAwYJ6ich3xWV6S7x48eSlTFkldUrv+zBj8Tw5f/mSXgtMY7oPlD6tOku5d0tKl8atZeaQD9RrQ7Hr0pXLahJN44Z1X4R6NSKiuMQAh4h8WlymtyRMkEDWzVwo2xeula3zV0uhN/Lpe1yQorZj7/d6LTA99thj0rDK+zK+91DVQS1Rwif0PUSefG2klYiCDwMcIqJwSJMqtXzQc7Bec/fb1d/1kr1Hjx7JlWt/yP/OnFSjPWi7HBH/PXwov135XU6cPa26vQWiu/fuyblLF1Tzgj9uXNNbI+fe/Xty8vwZueB4rR88eKC3usPf5PdrV9XvjEgdVVT/llao6cK+Xr0etefsDfYXr6fxuv7333/6ntiRJtlzeomIKPZwHpwgtmf3bqlXu45eEzk0YbVeIvId5rkKMPfK3pVb1HJ0+/aHPdKifxe95vREwoTy07qv9ZrzZDF/jdIeQUar2o2kc6NWes3l2p83ZMqCj+Sr77+R63/9qbc6R0ReezmXtK3XVN7Kk19v9YST3wnzZsqG7VtCWu8+Fj++Gknq1aKj7D/8k3y+Y6vabujQoLnkzf26Wt749Zfy6efr1LKhcbXaUqzA23rNadzcGXLol6N6zWlM9wGS+rnn1XKXkf3d9j++Yx/mjZqi17zfjxSqT1YvlV0/7XecXF+Xrk3aSM33KulHOaGO6eNPF8qRX39xCzSeS55CyhYp4Xg+LeTpJ5/SW5127Nslc1Yu1mtO1ctUlAKv5ZExH01xvN475N8H/6rteM9ULlFWpdY9mTixChY/WbVEFq1fKZf/uKIek+iJRI6/Qz4Z1rmPJEv6rNpmFdm/pbd9fTPXqzJi5kTVetsIOp5N+oyUKPiO9GndWZ5K/KTaBqu2bJD1W7+QH4787Bag4He/mes1tfx6jtzqORqOnfyfzHU8z6+++8YtCHv88celwKt51D7g9Y0J0xbNkemL56jlvFlzybx2w9QykS9pMn2A7D95RC03btpE+g8cqJYpMHAEh4j8xq07cZv6ctARBNiNoGRMk04vuSCwKNu8lvpqPiEGnKQeOHpQmvfrLH0njLB9XkdP/CLV2jeWJZ+tcptXBCfoCMbqdG0pW3ftUO2qzbfrf7p+F0aWrPdj9MHqf6dPeDzu3t+uk2K0hTbft+/Qj/oeJ7v7fzx6SBXBL1y3Qo08YQ6hf/91Bh1w2bFvCCjRie7Q/455jKJgRGPB2k+lQsu68o0lBfDq9T/cfh9ue37eL+93aqYCPiO4Aby2i9avkHrdW6lRonZDeqqAzghu4P7f9x2v5U6p2bGZ7YhMVP6Wdvu63/H61O7SUrbv+dYtYMFrhGCmeocmahTKcPHyJfV95scC1o2fiRElAwJb/AwExtbngxGt7w7sDdiRQKLISJo0qV6iQMEAh0Jcuu76wCfyFWmTx12KCwa4z1w8pwIbjES0HtRd3+OCepR38ro37MBV+0FTxnic7MaP53nIXfPlRhk2fbxec0IQ0rBnO5U+5Q1OUBHo+KJHjtet66gBXgNSBGmdR/a33X+MUJkhjaz9sN5y8txpvcXe6i0bbYM3w/FTJxwBVwOPYMkMhftrHD/HLKp/Szsrvlgfahre2YvnZbEjsI0MBIu9xw9To43eZEybXqqVKq/Xoh8CLiKiuMQAh0JcZIBDPihNMvcmA7HZoQkjAWWb15ZanZvLmI+nqivsVvUq15SUyVLoNZG/bt2U/pNG6jUntFqeMXis/LR+u+xf/ZX0aN7e7QT5s+2bZc/PrpPC0R9NVulp/gqjMeYREqu5KxfLz8edqSGGKiXLyfYFa+TQhp2yauo8yf1idn2Pc9RhyLRxes07pHi9905xyZI+o97izuh2lzVDZq+PwaiYITr+lt4gvSyX4zm+nDmb3uJu1eYNeiliVjqCJ2vdEVID189cJJ+MnibNataXHs3aq98fU27dcY04Zk+bWS8REcUeBjhE5NOsbaJxld1XvF+2suPk0VX3AMs2rvEoGEdtB+peEjyeQNVWNK1eV+o7AiOzyQtmqa+4Am+tqwHUdyyd8JF8v3yTLBo3U/K98oa+x3e9+nJO6d60rUzuN1L6tOok6V9Iq4LGD5d9oh/hhBP9kV37qZoftJ/Ome1l+XDIONXFzoC0t+8P7NVrnlBrs3bGApnYd7hs/Gipbcc7GN19gGyYtVg9Bh3hrC5fdQVmUf1beoM6mPljpsnKKXPVPk/p7x5EAd7nxihMlVLlVU1T4kSJ1boB69iOW6eGzhowu5blmdNlkBczZVE1Svh7lCj0jr4nZmC0zJAksXv9FBFRbGCAQ0Q+zdom+tjJuJ9jo8zbxWTZxI9lSMdeHqlKu3/ar5dchs2Y4DZBI24btm/W9zohDQ51F3YpVNmzZJNZwyaoQnIUwaOwfPaISSrVyFchIEMghhGD0m8XlYZVaqlUvoPHj6paGLMzF85JqSY13F6fWl1ayENLmtXun3/QS56K5n9Lnk/hSme0NjMANC5AwwFDnQrV9JKLucYmqn9Lb7CvRnMAKPVW0ZCGDgYEgtf/vKGWMzgCQ0yu+rhl1AXr2I4b3iNgfg0MHYb1kXfrV5LuYwap+hxrLU90sl6AyJc1l14i8i3HL4ae9kr+jQFOEONEn+Qv0InJEJsjOLhKj9EEK3TUyv1SDr3m7vIfV/WSCwrqsd/mm12x+m9Xr8jZS+f1FpeKxd/zqE3B6Eb5d0vpNd/T4v2G6vWzsktdQzqe9fXBzZpqdeGy9799uhfS6CUnBAVWWdNn0ktOmMAVoyneRPVv6U3WDO77AalTegYmDx5GPBAp9da7eskd6pMQ3CDIQfMK7HdMsP7cuJyolyg0t+/7bxowhY0BDoW4dIM1OOSbzGkuMXViZid+/HgyvHMfj3oFtGee9MmHes2duYOXAelT4bmhcUA8xz+rJy2pSQa0PY4ouzlfHj4M/zww4ZUz20t6yZ3d64N23Havh/Vm970GazCVMEFCveTyxBOeE5TaBWGGqP4tvUlksx92TQsio3jBd6RXiw6hTsaKjmu9Phiq16LX3oPuHfbicqJeovDiBd/AwwCHQly87nm1ksgXmAuVY7PJAOTI+pI0qeaaL8qAuU227d6p11xSJkuul1y2L1yr5u8J64aalZcyZ9Xf5bLrp316yd2uH+23G1DPYoXCeas/bbbFt/ne8MLJOk7y7ZgbMhjqVqxu+3pYb1MHjNLf4cm6u3bP3X6bXrAR1b9lRNjtW2Q1drxfv122USb0GSp1yleTdKndR7cAc+rYNc2IKnODgZfTeI5UEfkCdo0NfAxwglyOHPZpNkS+JLvpRAnter21H44p7eo380h5QgF473HD1Gz5ZubaCoNdcfzhX4+rGo+Qm64veSmTZ4Cz5duvZc6KRSGjL0iBwkSKmM8kNHaTVm7f/a1q02xAUfrxk//Tay7Jn02mlyIuXnzvJ+uvZc/lMSKGQM06soRAzO31cdxic/QOovq3jAvXblxXbZrRAKFskZIysH13+WL2chWoW2Ei1uhmrpFjgwHyVewaG/gY4AS5JKbJrW7d48Rv5JusJ0qYpT02Id1nSKfees0FgVanEf3kH9MEltVKl3fr/gVDpo+Tz3d8pa6YoysXghVMStmkT8eQ26J1K9RjUTCewWbiUExOmb96aanUpr7kq1FazRYfFrs0MRTA1+/eWn3/2NlTpV63Vm4BD6R9/gWvIzBRhZ9bvqh77RC6biFl6uT5M6o4H/vYoGdbt9cHt5umCU9jQ1T/lnFh1vL50qhXe2nSu4OaJPbgL0fk673fye+W2ieMGFkbG0QHcxCaL1tuvUTk23LkjNiIK/k+BjgUgh1FyFdZT5Ri+0o+FHztTaleuoJeczl64hcZ+eFEveacY6Vn8w56zQlX1buOGiiFapWVIvUqqmDFPBEjTjZbvN9ALeOEekDbbmrZCsX4v545FWqHLrPsWV6UN3N7jkL8dOywGgGat2qpRxtkqF+phl6KGXh+6S1pU5h1v0LLupKnagk17xCep1mRvIVsRyFiUlT/lrENDRCWb1qrljGKNGzGeMdr2ULaD+3t0QihSL5Cak6f6GYeFYrLSXqJQmO9oJvUdLGXAgMDnCCXLp3nlWIiX5Qmmetk6eLv0Z9aEx49W3SQFDZ1GTipXL/1C70mUs8RIGCOnPDUVaCL19geg1TqluHtNwtIxwYtwiw8fyZJ2B/KU/qP8ggmQoM2yqjhiElPP/mUTOg73LalsR2kin3Qa7Bei11R/VvGpo9XLHIbTfQGaZDYz+iG1Dgz6yS9RL7i+KUzeokCFQOcIJcuPQMc8g/mbkzWE6nYkvTpJNK/TVe95m7Q1LFuow6YI2fZxI8kT85X9RZ3CF6KFnhLFoyZLhWKldZbXdrUbSKfjJmq0sWskOY1rtcQ2xElK1ylX/DBDBW0hJZ2hhbKeG7DOnum4sWE3C9mly/mLFeBnLducAiAcP+ckZPVax9Xovq3jC2dG7VSHdTSpEqtt7jD3x/vg3mjp8bI62mtjTM3ByHyVWnTeraUJ/8X7+HDh+4zqVFQmTJpkuM2Wa+JHJqwWi8R+ZYxa+fKoh0b1DJO4LbO95/3Kgrmz1w8L6cvnFVX2LH/mFk+PCMYKL7/+dgROeX43kcPH8pLmbOpTmuoC/pg9jSZu2qJfqTT5H4j1cSadu7/fV9+OX1Srly7Kn/cuK7S4Z5LnlJSP5fKtrlBbEHTBDRrOH3hnEpxSvbMMyqwy5Utu0dDgrgWlb9lbMF7BnMGnbt0Qc5fvihPJX5K0jr2Eyl+kWktHl6jZk2SBWs/VctPJ3pSdo1cpJaJfM2MzctlpuMG+QsUkCXLl6llChwMcILcvLlzZcTQYXqNAQ75rnX7tkn/pdP0msia6fNVjUkwi2iAQxSTqrZrqBpGQLHc+WVK09gZDSSKqI5zR8v2w86OiAxwAhNT1IJcTnYOIT+RL6t7o4G4SlMjIk9ITzOCG2AHNfJl5iYDbDAQmBjgkBt2UiNfhRoc88SBDHCIfIf1/2O+rHHTaIEoonLm4oXeQMQAh9xwLhzyZearwnsP/qiXiCiumQMc1N+wwQD5skuc6DPgMcAJcgUKFtRLRL7PfFXYmRLjmjWdiOLOV9/v0EtMTyPfd+nGVb1EgYoBDrlhb3jyZdYTp2BPU3s26TOSIU06t1viRIn0vUSxAxPvmif4ZIBDvsyaqcILvYGJAQ659YBnihr5siSJn2IdjglmzN8851O32zt5+WFNscv6/7BE7vx6icj3sNY4ODDAIUmbzjXZJ//jk69jHQ6RbzH/P0yT7Dm3SXmJfA1HcIIDAxySdKYAhyM45OtYh0PkW8wjOExPI1/HVPzgwACHJF16juCQ/7CeQJmLm4kodnnW37A9NPk284VcTPJJgYkBDrmlqN2+f1cvEfkmax3O1l3f6CUiim1bd7lfYLBOyEvka3ghNzgwwCG3FDXYd+KwXiLyTZXzF9dLjg+rUyfUVWQiin1rvtyol1h/Q/7BPIJTsBDrbwIVAxySHDk5iy/5F2uXpjVfbtJLRBRbcGEBFxgM9d+tqJeIfNcvrMEJCgxwSJImTaqXnPadPKKXiHwTrhKb09TMV5GJKHYsWLtcLzmxPTT5OnZQCx4McEjJkSOHXiLyDw3eraCXRBU5s5saUewyN/jImzUX09PI57H+JngwwCEliWkUhzU45A+K53bvfjN/jfvVZCKKOWgNbe6eViV/Mb1E5Ls4ghM8GOCQkjMX63DIv6CbWjFTSoy1mxMRxRxr3Zv1ggORL+IcOMGDAQ4p5jqc/azBIT9RJZ/rqjEm/WQtDlHMw/818wWFyo7/h7jgQOTrOAdO8GCAQwo7qZE/Kv5KAXk60ZN6jaM4RLHhq++/UUGOoTibC5CfYA1O8GCAQ4pHJzXW4ZCfqGKaE2frrp1uJ15EFP3MFxJwgQEXGoj8waXrV/QS58AJdAxwSLEW2l264ToIEPkypMeYMU2NKOZg7htcSDCYLzAQ+TKkp126cVWviaS1THJOgYUBDoVImzatXsIwLgvxyD9kT5tZzaBuYDc1ophjbS5gvcBA5Kus6WnpGOAENAY4FMJch8M8VfIn5hnU0bqWozhE0Q/pn+bJPTHZLi4wEPkDawc1togObAxwKIS5VTQDHPIn6KZmbjYwbdEcvURE0QWjo+YaN/Nku0S+zlx/w8nNAx8DHAphHsG5ff+u28GAyJehRW0DyygOJiIkouhhHb1BWmjlfKy/If9hvnDL+pvAxwCHQljzUS8ywCE/0qBIBY7iEMUQpH2aR2/avldLLxH5B/Mcf5zcPPAxwKEQ1rlw9nHCT/Ij1lGcfYd+5CgOUTQxN+/g6A35G2tGCuf+C3wMcMiNeWZfpqiRv8EojhlHcYiiDqM3SPs0cPSG/I21rpgBTuBjgENuzGlqbDRA/gajOOa2tRzFIYo684UCjt6QP7J2UGOL6MDHAIfc5DDlpf5iOSAQ+YO2ZdyvLnMUhyjyrKM35pbsRP7CfMHWnKlCgYsBDrnJaRm25SgO+Zs0yVN5jOIcP/WrXiOiiDBfIEATD7RkJ/I35pR7NhgIDgxwyI01L/WXSwxwyP9YR3FGfjhJLxFReFlHb9DEA2mgRP7GnJHCFtHBgQEOuUmaNKkkSZJEr6FV9FW9ROQ/7EZxtu7aodeIKCxoCT1q1mS95hy9sTbxIPIH+04c1ktO1kwVCkwMcMiDeRTHemAg8hd2ozjmeTyIyLtpi2Zb5r2pzdEb8kvWBgPsoBYcGOCQh4KFCuol94mxiPwJRnHamIIcpNqY5/IgInuoWVuw9lO9JvJymkwcvSG/9Yupljht2rQqU4UCHwMc8lCgoCvAATYaIH+FURy0tTVMXzxHLv7+m14jIjvWmrVeVZrqJSL/Y85EsZ7fUOBigEMerMO3+ziKQ35seJ0Oesmpz/jheomIrBasXa5q1gyoZcuXLbdeI/Iv6J526YarlriAKUOFAhsDHPKA4dscOXLoNdbhkH/DyVmx3Pn1muP97Dh5Q3coInKHmhtrW2iO3pA/s2agsMFA8GCAQ7bMVznM+atE/qi34yQNJ2sGdIdiwwEid9ZGHGwsQP7OnIGCDrFsMBA8GOCQLfNBAMO75kmyiPwNGg5gDg+D80r1bL1GRHsPHpC1X23Sa2wsQIGB9TfBiwEO2bIeCPadZJoa+Tc0HMBJmwFdotAtiogwquneWMBau0bkj8wTfObMxdGbYMIAh2ylS5dOtVM0HL/o3keeyB9Z6wn6jB/GVDUKeqi7OX7qhF4TqV+kgmRPm1mvEfkna/0wR3CCCwMc8ooTflKgQcMBdIUy4KTO2hKXKJggNQ3t0w2oVbNOkkvkj6wdYBngBBcGOOSVW6OBS2fk1r07eo3If2EUxzw3DuoO2FWNghFGL9sP7a3XnEbU6cDGAhQQzBdm8xcooJcoWDDAIa8KWq52cMJPCgQ4eZvc1P2kDl3VWI9DwabdkF5uKZpITSv+Ck8EKTCYz1lYfxN8GOCQV5zwkwIV6gt6mupxcJLHehwKJqi7MU/oiQYcnPOGAgWCm9v37+o1pqcFIwY4FCrzsC7rcCiQoAWueQJQ1uNQsLCru5liGdUk8mesvyEGOBSqgqY6nP0cwaEAg3oD1uNQMPFWd4O5oogChfmCLDrCJk2aVK9RsGCAQ6GyXvXYdmiPXiLyf6zHoWDDuhsKBuYAh6M3wYkBDoUKB4YkSZLoNdbhUOBhPQ4FC9bdUDBAcGOuvylVprReomDCAIfCZL76wREcCkSsx6FAh9RL1t1QMGD9DQEDHAqT+erHpRtX5dL1K3qNKHDY1eP0GT9crxH5LzQV6DthhF5zYt0NBSrzhVg0SmL9TXBigENhsl792Hp4r14iChxGPQ6ubBsQ5CCth8hfoZ7M2lSgTZlarLuhgIQJyTExuYHpacGLAQ6FKV26dKoLiYHtoilQoR7HmraDtB52ViN/hOCmYc92bvVklfMVk7aOAIcoEG077J5Gb52wnIIHAxwKF/NVkO0cwaEAli9bbhlep71ec0J6D4Mc8icIaqwd0xDcDK/TQa8RBZ59J1z1N7gwa52wnIIHAxwKF2uaGpsNUCCrnK+4bZDD9tHkDxDUNOzZVi5duay3ODumMbihQLfVdG7C5gLBjQEOhUup0u55rGwXTYEOQQ7mCDFDug+DHPJlRnCDToAGBDfz2g3Ta0SB6fjF02wPTSEY4FC4lSxVSi+xDoeCA+YIQVqPwXnyyCCHfBfam9sFN2iiQRTItlnS5zmCE9wY4FC4FSjkOligSwnbRVMwQFqPNcjBRKAMcsjXoK05Ov8Z0BEQ718GNxQM2B6azBjgULh5pqlxFIeCA0ZycCXcgCvkHMkhX4Ggu/3QXh7BDUZu0BmQKNCxPTRZMcChcLO2i956iN3UKDjgCjhOFs1BDtPVyBcYNTdbd+3UWxjcUPBhe2iyYoBDEWJtF42rJkTBwFuQU7VdI7aQpjhhBDfmmhsGNxSMzBdc2R6agAEORUj1GjX0kpP1qglRIDOCHHNNDnCeHIptGDks0agagxsKerjQap6fj+lpBAxwKEJwVYRpahTMEORYGw8Agpxpi+boNaKYg+AG6ZEYwTFgZHFV9wkMbijoWC+0Wi/EUnBigEMRxjQ1Imd3Nes8OdMXz1GdrIhiytZdO2yDG4zcpEmeSm8hCh5MTyM7DHAowpimRuSE7mrD67TXa07oZMUgh2IC0iDbD+3tFtzkzZpLBTdsBU3BiOlp5A0DHIowpqkRuVTOV9w2yKnarqFc/P03vYUoakbNmqTSIM2QJsnghoIZ09PIm3gPHz58pJcj5cKFC7J65Uq9RsFixzffyE8//qTXRJoVryoJEyTUa0S+oYrjBDC20nb2nTgsHeeOltv37+otIkmeelpGdesvJQoV0VuIIgZBMua4MTcTAAQ3SJOMTngP7zt5RK8R+b7Pf/xWzly5qJaTJEkiTZo1VcsUWNKmSxfh4DXKAc6e3bulXu06eo2IyHfMbTtU8mXLrddi3vGLp6XJ9AFuQQ5UKVlO+rburAIeovBCvQ3SHc0padCzSlNpYKn/ig4zNi+XmY4bEZEvyV+ggCxZvkyvhQ9T1IiIogk6WG0ZMEvVRZghZc05XwknBaWwIaBBSpq13gZtoBG0x0RwQ0QUSBjgEBFFI2OuHFxlN0OKEbpfcb4cCo2zBXRbWbD2U73FCUEzgufYHJEkIvJXDHCIiGIArrKv6DZe0iR7Tm9xXplHobhd2hERgl8EwdZ6mzZlarGZABFRBDDAISKKIUhZW9l9ghTLnV9vcWLKGpkh2EXQi+DXHPgiOEZKWltHgENEROHHAIeIKAbhqvuUpr1tU9aqtmukai04mhO80EigRKNqKug1Q1CM4JgpaUREEccuakQUsDDDu11aD0ZWMElnbEOXtU5zR8ulG1f1Fqc0qVKrLmtsJx080P4Zozb7Dv2ot7jEVJe0sLCLGhH5oiRJk0qOHDn0mrvqNWvYtpBmgENEQceY/T0uYObtfkunus2+bcj3yhtq3py0z7+gt1CgwWjd/DXLZfriOXqLC1LSJjftrQLwuMAAh4j8TcfOnRy3znrNhSlqRESxyEhZQ22FuQEB4Gp+ycbVZdqiOUxbC0BIR6vStqFHcIP2z2gksHnArDgLboiIAkmsjeAgBaNqqfJ6jYgodu09eCAkHSguR3CscNV84TefeUwOyrS1wIF0NNRabd21U29xQa1N7ypNJU3yVHpL3AnvCA5GGvO/mkevERHFLnScvHTlslr2NoITawEODogLxk7Xa0REsQujIsaVc18KcODS9Ssyeu1c27S1EoXekT6tOjNtzQ8Z6WgL1i73GJHD6N3wOh18qolAeAOcdvWaSfv6zfQaEVHsQjt944IlU9SIiHwUrt4jbW1yk14eaWu46o+0tfZDe6lRKPJ9CGYQUKM7GoJqa3CDdDR2SCMiijkMcIiIfETxVwqoE1+cAFsh0GnUq726csVAxzcZqWjeAhuMHG7u/6Ga14aTdhIRxRwGOEREPgQnvjgBxolw5XzF9FYXDMsz0PEtRstnjLQtWPupbToaRueQFukLtTZERIGOAQ4RkQ/CiTBqNMIT6KDgkmKfObCxTtQJmIdpeJ32qjsaRueIiCh2MMAhIvJh4Ql0+k4YodKiEOhYRw8o+qHdc2iBDVLR0AYc6YaV8xXXW4mIKLYwwAmnazeuy4GjB91ul/+4ou8lX8S/GQUSa6CDuVPM0DITgU7+GqXVyTdOwin6HD/1a0h9TfuhvUMNbJCKxgYC0YfHciKKKAY44fTp5+ukXrfWbrfvD+zT9/qv7Xu+la6jBjhuA+Xwr8f11sAQqH8zCm5GoLNlwCzVjMAa6ABOvnESjmAHJ+U4OaeIQwoaWjxXbdfQcWuk6muMuRfMGNjELB7LiSiifDrAefDggRxxnHR7u/1y+oT8deumfnTMOnn+jF5yyZI+o17yT5+sXiptB/eUz3dsddy+ksa92sufN//S9/q/QPybERmMZgRGoGNtLw1IV8NJOU7OMfKAk3WctFPokOqHttxIQRs1a7IjQDyh73FBYImRNIyoMbAJW1if59bb1evX9HfyWE5EEefTE31iRKFmx6Z6zbsnEyeW6qUrSMtaDSVlshR6a/Sq1r6xHDv5P73mtGfFZkn6dBK95l/u3Lsrb9cuL/f/+VtvcZo3eqoUfO1NvebfAu1vRlHjyxN9Rpd9Jw7Lun3bZeuhPXL7/l291ROOxyULF1Gz0WfP8qLeGrwQ9KEj3d6DP6rUvtDqmIrlzi8lXskvxXMXCLhWzzE50Wd4P88Nwzv3keplKqplHsuJyMzvJ/o8df6sXgrd3Xv3ZOG6FdKgRzv598G/emv0efTokZy+cE6vOaVIltyvD67IX7YGN/HjxZcs6QLjqlgg/s2IwoJRBKSv7Rq5SHXvwsm4HXwwYGQCIztIY8NoRTCN7iCAQSCD9D2kn2GkBvVLSO2zC24wOtazSlM1WoMJWdE4gPPYREx4P88NmfUIDY/lRBQZPh7geA5Lh+bMxXOybONavRZ9frv6u9z/+75ec/L3QCDjC+kkwwtp9ZpTqzqNJFWKlHrNv9n9zbKmz6SXiAIfTsJxMv79iIXq5Bwti+04T/Z3qoAHJ/pIZUOTAqRpBUrAYw1onEFdb5W+Z5d+BkhBq1+kgqzoNl61eW7gWOYcNpEX0c/zzOkyqK88lhNRZPjdCE6KZ5OFehJ++H9H9VL0OXku8PJ/H3/8cZk/drrUr1RTqpQsJ9MHjZGODVroe/1fIP7NiCIDIw04OUfLYpys46TdW7ADKKLHSAZGNIyAByM8SPFDkODrk4sa6WbY34gENICRGtTVYFJOjIL1cgSG2dNm1vdSVERkBOeZJEklWdJn1TKP5UQUGT5dg1OhZV2P4sI+rTpLwyrvy73796TH2MHqyqMZanGGd+mr16IHUjdwddOsT6tOjv2opdfI19j9zfq27iINKtfUaxRsgqEGJyJu3bujanb2nTwi2w7tkUs3rup7widNqtSS9vkXJEfWF9VX1PLgK24xDSMyqMlAMHPx98sqoLl151aowYsdjNIgrU/dHO+JYA9mYrIGx+7zvGn1ulK0wFt6zSXRE4nklZdyqGUey4nIKjw1OD4b4Pz333/yepViqvOK2ewRk+StPM68crSOHDRljFo2dGvaVprXrK/XvLtx80+5/ucNiR//MUmZLLkkeeppfY8n/A78LrOPh0+Ut990zkyNTm7o+PJCquflqcSeLVu9wXP8/dpV9RzTv5BW4sWLp+/xXajbwUlFquQpQ33NoktkXyO7v5n5vUPBhwFO6C5dv+IIdhwBz4kjKvCJaMBjhmODtXlB0qex7SW95uTc9mJIoGLm3OaeIod1uzbN4cWAJnQxFeB4+zyfP2aaanQRmsgey2P7s4qIYo9fBziopynbvLZec9m+YI2kfu55tdxlZH/5Yuc2tWxYN3OhvJQpq15zh6t+Hy1foNoiWz84X86cTWq+V0lqlaui0rfMGvRoK/sP/6TXnLbOXy0nzp5WJ0wHf3GmxeHkGyfhfVp2sr0qZcAJ+8R5H6p0j9t376htCIwKvp5XhnbqLau3bJCd+3er7QaMGO3+ab9s3/Od3uKUOuVzMqbHIL3mgg+SrqMHerTRrlyirFQrXV6GTh/nMfQ/pf9IlRpg9f2BvbJg3afyvzMn5fLVK6roE9Cx7qXMWaVNncaSN/frapuVt9+D/Vu0fqXs2L9Lfv/jiuO1ryydGrXUj4j8a2ScVNn9zczvHQo+DHAixhzwXHQsH794OtTObL4IqXiom0EgUzx3fgY0YYipAMfb5/nOJZ+F2fk0IsfyyHxWYboE6+dqprTpZUjHXnrNHY4jxolViUJFVEaJFX5v7/HD1D6YGZ+/RBQ1fh3gIPUMed9mjz32mMwYNFbOXroge37+QZ38mpUvWkrG9Rqi19wtWr/CcXIzN8x5Xgq8lsfxOz5QracNb9UuJ9f/+lOviSRK+IQ0cBzUPv50od7iDt3IpgwY5Tj4vaO3uKza/JmM+XiqCrbspE6ZShImSCDnfruotzhtX7hWBQrN+3n+Eb/6ZJVHWsisZfNl0vxZes0pXeo0sm7GQvXcrM8pcaLE8sPqr9xGSH448rN8MHua/Hz8iN7iHV77AW27eQRIHq/dE4lk5pAPpPOIfm7BF4IWBJgQldcI90F4nh8FFwY4UYe0NgQ6l25ccQQ9V9VID7b9csmzTiK2oG7GCGJQb4SRmbSOdTYEiLiYCnC8fZ4Pcxz3rcdkfE6Zg5CY/qz69oc90qJ/F7VseCx+fPl26UZ5NukzeosTfn6dri1DAic0Qtj08TK1bLZ801oZPHWsXnNK73hea/XnLxFFjV8HOLNXLJLxc2fotbCVebuYjO4xUAUfVt5+Fg5i/z18qNdc6lWqIf3bdFXLOAkv+P57ajkiCufJL3NGTNJrTnMc+zEuAs/JgAPi/lVfyUPHQbV4wypy5dof+h4noy7JcOHyJanYqp5bG2gEXfPHTlMfHAjyCtUqq+9xyvVidlk5Za5eE9ntCCBbDegq//wb/rbbmD9n7qgpIR88dr8HqQKO95yah8ds0Qcz5c3cr0X5NcLvtvubWZ8fBR8GODELgY+q6znpfpKJkSCMAJlhm7cUOPxtzBC0WEdesqfJ5AxmsnFyzegUUwFORD7PUZfTo3l7tRyeY3lUP6twDlC0fmX544ZrYlEY032gVCrh+t1Is6veoYmaYNzs89nLJFNaZ8c3uHbjupRtUdvtAp3585eIos6v58Gx65zizdNPPiVZMmSSy1d/11tccOUIqU5mRfIWkrUzFsjBDTtUqtk7eQvqe5w+3bQuJC3KbgZlwIERrSpfy55LXYmy2nfQ+cIbfjj8s0y0jKiEF1pS4/chIKtYrIze6mIdyRo2fbzHHDcNq9YKObieuuDZzSarqSsNrlK1G9IzQh8YgA+abbtdTR/sfg8O+tbgBjDnQXS8RmA763WAzO9D5KsQhCDgaFumltsN8/IgmDTf0Hb50ITV+jud5rYdqrZZH4tW19afWfyVAgxu/EhEPs/NHdLCOpZHx2eV+lwtXlotm23f861ecpq/drlHcAPbdrs/btRHkz2yDxpVc33+ElHs8NkAJyItJRGMzFwyT11dwVC1AVdmBk0dIw8fuUZpXn05p8wY8oGqucFVFXQCGttjkFo2YLLQA0cOquXTNvuBGp2pA0bJho+WyLKJH6srPVbmoAe/v8cHg9UVIDMMxU/oM0y+WbReDXPjypUd8wEfObxWPxz+KST1DjVJqGsxw/d3btRKrzleW5sPG2NSNVW7M2qAmjzVDK25R3Xrr3KfN89dIR0aNFcfDFbmmii73wNIU8OIE34eUgrRje7ZpEmj7TWy+5tlyeC6n4iIYk9EPs+zmOa4Ce1YHp2fVZWKe36uInXNmDj8tyu/qxFgO9tNAc53B/bKxq+/1GtOuBDaqaHr85eIYofPBjinba7+F3ojn+NAVEZKFn7XbUjYgAMd8nANGL7CcLEZZkQu07Smmt/BuNXo2FTf63L1ujMNzO4KUp3yVVVxocHopmb2RMKEeklUsIQDpNlzyVPIsgkfSdkiJdQBGbm8GJZ/N39h/QgX8wH/xUxZJEdW905ECOS+3vudCvQw74MZDuyjug1w2x/7ERzn79i0Y6tHlyKklS0a96GaLweFnZggtG3dplLJJtgyzzht93sw+/TKKXNUWh1+HvKh0RwgOl8j+6t+3uf9ICKimGP3ee5N2CM40f9ZlT1LNo/mRPg8NTIxhs0Yr6amsPPj0YPqAuPf//wjQ6d9oLc64ULnqO7un79EFDt8MsBBy2W7AvNB7bqrjmEYPdn08VJp8X4DfY8LOpoZB6IvHAdAK/xco/2o+WYe5YGE+oBkd+Wp3Lul9JKT3fB4xjTp9JL7lSJDo6q1JUWy5HrNBSNMVuYDPlQp6Xmw/ur7HTJlwUce9TktazX0+Jl2z8n4HTstoz/wfrkqqkDSCul5VglMHejsfk/r2o0lawbPTkbR+RrZ/d6sHMEhIop13j7PP508R/au3OJxMzeqCe1YHp2fVVDZ5nMV3dW++v4bt3Q1BFHmttO4wLhj3y75cOknHo1v8PlrzOdDRLHLJwMcu4Ma0sKQrmRAvUXJwq5RFAO6m2BuG9h/2JWuBvge4+AU1s3oxmVNs0Iqm3UEBUX9VplNecKoLbHydtC7ZBnFAGuAU94RYFnrfnCwX/LZKr3mhKtSuHplZX1OGOXJoAOy46d+VV/NvO2rtQUmmLu52aWolStaUi+5i87XKLTnR0REscfu8xyfXzmyvGj72WsWW59VUKFoabdUdfhq1w4ZMXOiXnPq0qS1R93uwnWfypyVi/WaE6YsaFuniV4jotjmowGO54lxxjTpPU7qN+/crpdcMFeKMRx887b7HDC4MmR3xcjuhq5vGHK2Tj6XLvULHsPNdvtrPuG+oxsWmOGqlhVGX7Z86/6c7E7OMaphTYvDKJK5I1yCxxPI6O4DPeb0sXtO6V9Ipx4Pt+96NgAw0vXMcEVu7Veb9JpL4Teck6/Z/R7UOz2f4jm95i66XqOwnh8REcUe+8/zdB6fTVax9VllQBp0oTfy6jUnNC66/IcrOMr9YnY1V967+d3nuTv86/GQeh3APo7p4fn5S0Sxx29GcDKlTacK0JF+hkm8JsybKQvXrdD3uhR47U29JB497O/eu+sIem7pNSd0G8MEmuYbJvAETE5mTV1DtzYruzzhrKbH2aVZoV2teTj7+KkT0mpgV4+hfG8n53bNBszQwhONFKxsn5MpGHvecZC3mrNyifx65pRec/6M1gO7ux34IcWzyaTcuyXUst3vQf2QN9H1GoX1/IiIKPbYfZ6bMxy8ia3PKjO7Wh0DRncGd+ipvr6Tt4DHaI9Zx4YtvE44TkSxwzcDHJuCRLR7zl3hHclTtYRUbtNATbJpvmJiaFS1ll4SefUl91oNjHL0GjdUBSQIlHDVpUnvDtKkT8eQW9O+neTPW86OZLb5v6ZidoNdC0zzAdzckMCAAseyzWqp2Z2LNawqVds1VCfwVt5qR4oXfMdjON/w6su5pFnN+nrNnd1zMn9oFHzd/QoW4CpW5bYNpHSTGqopQ7kWdeTAUWeXOQMO9v3bdlMd0iC8r50hul6jsJ4fERHFHtumNjYXCq1i67PKrFThIl4n4qxTsZqagweSJX1WXs3uWQsKr+fILU28dPskotjjmwGOTcAQFtTXdG/WTvK/mkdvEalbsbpKXzL7es93UqFlXRUo1ezYVH46dljf41S9TEXXfDG2qWeeB2brgRipdOjeYsCQtt1BE1encIXJbv4eg7crXUiTe++d4nrNBROdju4+wON5G8JKp6tfqYZbkacBtU3nL18SNGQwZnE24LUf2qmX2/7Y/p5QPtSi6zUK6/kREVHssfs8D+1ilyG2PqvMEidK7Ahyiuo1F2QYdGrYUq852XXzRNA0upv3z18iij0+978QrZ6tw8lhwUSf6HvfrEY9vcUpZ7aXpW/rLuHOg0XXrsHte+g1HGDDvvKEFLdLljxha34xRlr6t+ka6n7gwJsxbXq95hLalS67ri9dmrRxnPB7ttA2hPWcUiZLIdMGjrZNGbODts9DO/ZSgaGZ7e8J5UMtul6j8PzNiIgo5nn7PA/tYpchtj6rrCqXeE8vufRu0dEjY6KopQ4Hujdta/sZRUSxz+cCnPD0y8eBCvUcxQq8rdpG71zymdeaFIzirJ2xwG1kx8yZT1tQZg0bL71bdnRrZGB3gLWOBpy5cN4jT9hu1KVqqfIyd+RkdVC2Qsc2TGaZM+vLeotLaKMPeXK+6tZZDiNPDSrX1Gv27J6TdX/xc76YvVwaV6vjNeDAlbOODVvK1vmrpcZ7lfRWl8gEGtHxGoXn+RERUczz9nmeJRzH5Nj6rLIq8Pqbbs1wCr72plQoVlqvuaBLmvVxON8gIt8Q7+HDh+5juBG0Z/duqVe7jl7zDl3JFoydrtfiBibjQl0HcoIfPXyounply5hFdU+JLZh9ef/hn+TspQtq5AmjTBnTpgu1YDEuoW7p7MXz6jW7/tcNyfBCOjVClPq5VDG2z/72GpF/wEzkaFwBebPmknnthqllijuvdK2ml0Tmth0q+bLl1msUF2ZsXi4zHbewtKvXTDWy8SVx8VlFRHGjYc92ajJ/6Ni5k+PWWS2bBdX/enRVeyPnK1K9dAV1JadwnvyxGtwArjKhOBI1J5jFHwdgXz74JkyQQI2WlXm7mNQpX03ecrxmCAxjcp/97TUiIqK4FRefVUTku/g/n4iIiIiIAgYDHCIiIiIiChgMcIiIiIiIKGAwwCEiIiIiooDBAIeIiIiIiAIGAxwiIiIiIgoYDHCIiIiIiChgMMCJI/89fCgHjh50ux07+T99b/Q49L9jbj//x6OH9D1EREQUHS5cvuT2WYsbJhaPTvw8J4oYBjhx5PxvF6Ret9Zut/FzZ+h7ow4BlPXndxszUN9LRERE0WHS/Fken7dnLp7X90YdP8+JIo4BThw5df6sXnLJkj6jXoo6BFD/PvhXrzllSRd9P5+IiIj4eU7kixjgxBH7A2ImvRR1dj8/a4bo+/lERETB7tGjR3L6wjm95pQiWXJJ+nQSvRZ1/DwnijgGOHHk5LkzesklOq/42B0QM/OKDxERUbS5dOWy3P/7vl5ziu7RFX6eE0UcA5w4cuq8Z4CTlSM4REREfuOk3Wd5NH/W8vOcKOIY4MQR6wEryVNPq2Ht6GI7QsQrPkRERNHmdCyMrvDznCjiGODEgSvX/pDbd+/oNafovhpz+kLMBlBERETBzi744Oc5Udzz2wDnwYMHcu63i2okxJr/anbj5p9qCPmff907kITH/X/+Vt97685tvSViUHyIYAY/A/trsEtPC6v+Bh1UkOv7y+kTcvmPK6ptpDdXr1/z2OewDrj//fef6uWPff3r1k2170RERDHNHz7P792/p5oJXLtxXW9xsksfC2t0RT2Pc6fVzwtrf/h5ThQ58R4+fBild/7/27sL+KauLw7gB3eGW/HiOhwGY7jLgDKkuEORYsWtuGtbrEiR4ToYrttwHTrc3W1/YPDPOXmPvqQvbZqkkLa/L598nuQlfQntve+8e++5hw4eJPeGjZQty4rkLUAB43yUrZDxpFYT/E2PL1usJNWuUJWmB8yljbu3fmkFiRE9BlX+sSwN7NiDvkuQUP6YV2/dSAHrV9Cl61flmGjRolH+7LlpYt9hlCp5Stmn56/jh+V1/1y/QvcfPfxSMCRLnJSyZXKljo1aUOE838s+S96+e0c+S/zlHLlwYjFjxKA8WXPSsK596PDp4zTcd6LsV/Vq7UGt3dyVrUAHTx6lWcsD6MS50/S/9++VvcY7OD8WLk6d3FsFGbtz6NRxatG3s7JlVK9SDRrRvb+yZcSVxJZ9O2nJxtV09tJ5k6CJM8BU+KE0dWjUktKlSqPsBQi/Ziz2l79LVtg1N833GC7r8O3k7VFXWSOa18mbimTJo2zBt+C7dTn5GR4h8XBvTZ2btFa2Qhae63OuT7ncOH721Jc6MmXS5FSvck3yaNKKSjWsIQGLKk7sOHRszQ6KEiWKsseIg5TZhrr8d0Ode+fBPWWvUfZMWah+lVrUoNrPFD16dGWvEepzgKCaeXnQkb9PyHpXz26Gh6esazltC84ZQ4HIgYD2cfHaFarr0YJ+3bTGpIsXt278tnubFAJ896fj0N40aOqYL4Uh4zsaPPuve6+Ouq0fxwyFV8Puban1AE/ae/gvuvfwgcldj8fPnkhh2bR3J+o1dojcFdHDx9Ts4E7zVi/9EtwwLnz45zfo3obWbt+k7A1k3oJz8+5taj+4J7Xs11WCHG1ww7iw3Lx3B9Xp1Jx2/LVX2Wuk10KUyez9+fyb9u5IfSZ40+mLZ4N8Jy9fv6KT589Q8iRJlT0AAAChFx7r8zfv3tKwGeMNdXAXuZDS/pwHTx6R79J51LJvV5PghmVKmz5IcLN4w0qq1Ko+zV25OEhww7hnxgi/SdRmoKfcINVCfQ5gG6cNcLhp1dy6HZule5YlF65eplodmkiBZgl38zp5/m9ly+jgqWPUyhBInLpwVtkTvE17tpPnyAEmBSbbf/SgoYDqLj/DEi68zly6oGwF0rbCPHn+jFoYCtV9Rw4oewJFi2r6X8aVgdd4bynAVboZVzTvz5UDR7+nL55T9gTFd8jG9h5CsWPGUvYAAACEXnirz7mO5BuMyzatDVLPa3GgZs68RwUHNSP9JtPzly+UPUbmdTnj1ppJC/yULSPU5wC2cdoAR++PmnFTbuVSZSl+3HjKHlO37t+VP+KCufJZPOb6nVvKGkkh6DHMK9R9erkQ3XVwv7JFdP/RA0OgMSzYwtASbpJ3UZqN+Tw6e/cxCVi4ydu7W186umYHnVi/myb185YubyruG7xs81plS78y0bYQ7T70hzTZa9UoW4nWzFhAv06aTd1bdCCvNl0oT9YcyrMAAAC2CW/1+eQFM+nYmVPKVuhoW1d2HthPk+fPVLaMShcuQet8A+j0b/to58I10tVca8Xm9SYtWqjPAWzjvAGOTmaSFnUbScEwZcBImjNisrLXVI7MWWnf0o20ZOJM2rFgNcWNE0d5JlDc2LFlyQMbe4weFKRJOEXSZDS650DaHbCWts5bSV2attG927Jl/y5ljWiYz4Qgd2i43yv3I942fxXtWriW+nfoTrFixlSeDZQxbbov77/y9/XSlKzF/Yy5f268OHElGKpauoL01dU6cOKIshY0baU2gGJ858xc+RKlKadrNvo+Zx5q16AZNfv5F+UZAAAA24Wn+px7WHAXc3Oli5SgxRP86K/lm2nZ5DlUKHd+5RlTausKdxMbMn0sffoc2F0sX/Zc5DtsvAR2UaNEpTQpUtG43kNkXcW9Mo6fPa1soT4HsJVTBjjc95X7uGpxK0a3Zm2VLZI/XL1CigMKHoDPeIBizszZZF0rccJEsty8b2eQ7mT82sUTZtLPFarJ4MX0qV2oU+NWVKt8VeWIQJwBhXH/V+6epsWF0NyRU8i9lpsM6kudIiU1rV2fWtZtrBwRSJtx5ff9O5W1QCN8J1GFFvVMHht2bVWeNVLH+/B3Z97srw2g2LMXpoEY6z5qoLzvwMmj6M/jh5W9AAAAtgtv9TmP/zHviVGxZBma5T1Rghr+eflz5CbfoeN0Ay61dYXH7ZhnXOOfUblVfZO63K1rK+XZQI+ePpYl6nMA2zllgKMWNFpF8xWg2LGMd2oY9zs17w2WKOF3VCiP6V2V9x9MB+cztQl5/9GgY1x+qfazbpYRLtDMxVCynfAgfz4fLc4CkzdbTmUrUN7sQfdlVlI+ckpp7Z0bFRfaPDBR+zAfFBlTaRnS++7M+wRbSjHJ77t622/UZoAneY0bpuwFAACwTXiqzzmw2frHbmVPoB4tOyhrgbiHRoY06ZQtIw48MriklXXOaGaOkwOZ1+X80LbyMNTnAPZzygBHrzmbm6q17hgu+s0LhRyZsihrgW7fN81Ywt28OMUju3D1kiy19IISxikmzbmkTC3LYzpBiaX30Y6tUaktOJwVxvzOEfc/5rtQIT0ypDEWqnrfnXnGla7N2sods+Bw2s49h/5UtgAAAEIvPNXn9x49kPG0Wly/ZnRJr2wF4vN9aNYylTa1i/TeYEfNxvBwZjXzetvSI1WyFPIa1OcAtnPOAMds1l6W2eyuhXm/VKa2hKh4TIx5Ckft4LzXb98qa4HUpmEtvuui18/1hwJFZakdEKh6qEkRreKBjyt+X69sBVLvwHAqR3M8P87hVdtCfMwePkmO1/vuzO/48BwAPPhw+ZQ5MpeBpb7Eeu8FAABgrfBUn+vV5f/+73/yGnO/790pGU+1tHXty9emvSy4i51e3a334HkDGepzANs5ZYBzReeuhavZXQu9zCLmf/h6x2jvfqRMmkxZC+S/aqlJvv3rd25Sh8G9gvSDTZooMVX7qbysJ0uURJZaKzavkxYZFfdB7jayf5BsJ3xXJ6OLsZk7UYLvZKnFd5TMXb5xTebG0T54lmam991pKwEeiMld6rilKF/23DJhGw+cdKtSSzkiUMJ4xr7PAAAAtghP9XlSnbqcB/3zHDXauei4RWTwtDHKViDt+XAXO623794GuYnJ9bZ5Xc71uwr1OYDtnHMMjtndHA4CtH/UTK/p1vyOT0j544t/X1hZC8TN07U7NaVKLd1kkF61to1MAhXGGU8Gdur5pQ9xuRI/ylKL7/i49+xA5ZrXocqtf6FyTevoNhGnTp5SBlyyPNlyyGfV4jz8nFCA715xIoElG1ZRnc7NZQJQ9TFrecCX/PZ63x1PPKby/XU+dRneTyZBW7R+paTV5PSYO//apxxhxOdUpbQxgAMAALBFeKrPOdDRG5+zYecWKl6/MtXq2ISKulWSMS3m2dqYNnDLly2XsmbEPTh4Ik4O1HhqB87W1rJvF5O6vFX/bvT8VWDSANTnALZzugCHBxveuHdb2TJKlTzFlyBAZdUdH707R5pCs0ktN2k2Nsd3Qzj/Pg/SMx8TwwWMd7c+VOXHcsoeolKFilG2jK7Klikec3Pz7u0g/YtV2oKeU0aWK24aLHEWlT7jh1GJBlWptHtNuZPEd21UHNgM7dxb1vW+Ow6g1EDsrKFAnW0IhhhPCjZq5mQpGD2G9QnS9O9WuYbFeQcAAABCEh7r81b13JU1U9zawq1Bet3VVNqud41r1guSGY5vctZo15gK1ilP9bu2CjIlRL3KNalwnu9lHfU5gH2cLsC5ee+OyQU8My/omPndHB6YlzxJUmXL6Kpek7YmJTP3XZ0xeAwlTRy0WVoPZ03x7tpHCiFzgzv3kueDozdQ0bwvMk/omSNz0MGVenhQ5NJJsyiD0sVN97tTKgDOyd9/0kgpNEPCn69Pu27KFgAAQOiFx/q8QsnSVO2nCsqWPk4VrVffa29Y5sqSXea+i65kWw1J8zoNv9ysZKjPAezjdAGOXjO0eRDAueXN+7KaN3kz8/eKFi2a5MHX4rslW+Yul0nHLBVEfFeoa7N2MuuwXt9WxgP7Vk71123J4TsnnCygTsVqyp5A5ued5LtEtGrafOrbrqtkiNHDE5e1b9icVk+fL5N5qfS+O7UC4DtJE/oMo5plK+vON8C4D+/YXoNphGc/i8cAAABYIzzW59xlbWJfbzlG7z04AcCiCb70XjMmh3GAxYGZFrfi8GSmRfMVVPaY4p/1Y+HiNGv4RKnz+TOpUJ8D2CfKp0+fzLLPh86hgwfJvWEjZcsyLhQCxvkoW86J+8jeuHNLso08ffHMUHimlf6u3KSunWk4JKcvnqVLN65RFMO/XFmyUZb0may+i6PFd2f4Ls41w/lwWku+M8Xd2PjOkD0FFjex83tev3Ob3rx7Q2mSp5JEB2pLEEBENGOxP/ks8Zf1wq65ab7HcFmHbydvj7rKGtG8Tt5UJEvw6W4hbPluXU5+hkdIeDA7Z+xyZo6oz3m+uUOnjtPjZ08obeo0lNs1u9UtROZ4HC3Pa8Pn8/nTJ6nLs2TILDcs7YH6HCKjZl4eMpku6+rZzfDwlHUtBDgAECkgwHE+CHCcS0QKcAAg4rImwEG7JQAAAAAARBgIcAAAAAAAIMJAgAMAAAAAABEGAhwAAAAAAIgwEOAAAAAAAECEgQAHAAAAAAAiDAQ4AAAAAAAQYSDAAQAAAACACAMBDgAAAAAARBgIcAAAAAAAIMJAgAMAAAAAABEGAhwAAAAAAIgwEOAAAAAAAECEgQAHAAAAAAAiDAQ4AAAAAAAQYSDAAQAAAACACAMBDgAAAAAARBgIcAAAAAAAIMJAgAMAAAAAABEGAhwAAAAAAIgwEOAAAAAAAECEgQAHAAAAAAAiDKcNcD5//kwrt2ygln27ULnmdahsszqyzvv4OXvcvHubhs0YTzXaNaZSjWuQW9dW5Ld0Pv3v/Xu6ceeWPDdpvp9yNAAAANgqrOpzfu0qw3u06NuZyjSpTRVbupHnyAF04tzf8vzCtcukPj9+7rRsA0Dk4ZQBzotXL6nj0N40eOoYOnjqGN17+IDuP3og67yvy/B+9PbdO+Xo0Nn+5x6q16UlLdu0lq7cuk5Pnj2ls5cu0LRFc6h5Hw86d+WiPLdx11blFQAAAGCLsKrPX75+RZ2GedEgw3scOnWcHjx5RLfv36Wtf+ymZoa6fPXWjbTr4B9Sn1+7dUN5FQBEFk4Z4HQd0Z/2Hv6LEsSLT15tutDmOcto67yVNKhTT0oYPwHtPLCPOg/vqxxtvQMnjsh7v377horlL0h+Q8fT3sUb6NdJs6lDwxZ0xhDo9Js4QjkaAAAA7BFW9TkHN3sO/UmxY8aiXq09aK1PAO1YsJqmDhhFWdJnooFTRtOpC2eUowEgsnG6AIcLrMOnj1PcOHFo0XhfalmvEWVKm57Sp3ahxjXr0eLxfhQndhwJVo6dOaW8KmT/ffpEo2dPlfXqZSqS/6hpVKZYSUqRNBl9nzMPdWvejvxHTqX3Hz7IMQAAAGC7sKrPf9+3U46PGSMGLZ00i1q7uVOOzFnIJWVqqlSqDC2fMpdKFSom3c4BIHJyugBn8YaVsmz+cwPKnimLrGtlzZiZGteoK+sL1y2XpTX+On6YLl2/SvHixKV+7T0pWtSgH51bdX6uUE3ZAgAAAFuFVX2+YM0yWTav05ByumaTdS0OfLiFKFq0aMoeAIhsnC7AuXLzuiyPnjlFPccM1n2cPG9sdr5+56YsrfHPtcuyLJQnPyVNlFjW9ZQrXkpZAwAAAFuFRX3OiQUu3bgq6xVLlpGlnvRp0kpXNQCInJwqwPn3f//KQEF25O8TtHnvDt3HsbPGpuyHTx7L0hpXbxsHGaZPnVaWlqRL7aKsAQAAgC3Cqj6//+ghvfvXmJSAu7oFB/U5QOTlVAFOjBgxKUb06LI+Y/AYGYwY3IOTA1jruwQJZfn42RNZWvL42VNlDQAAAGwRVvV5wgQJlDVr6vPgnweAiMupAhweF5M5XQZZf/XmtQxG1HtkcElLyRInkXVrZUmfWZanL56j//77T9b1nL5wVlkDAAAAW4RVfc7jaFOnSCnr6nw3eriV5/KNa8oWAEQ2TjcGp0jeArKcu2Ixffion9Fsor8vVW71C63ZtknZE7Ki+QpQjOgx6O7D+7R2u/7rOH10wPoVyhYAAADYKqzq85IFi8ly9vIAi+/LSQu4TgeAyMnpApxOjVtRooTfySScnYf1lYk4VZ8+f6IAQ6E1b/VSevbyuW7BxrMa+y6dF6RgS5sqDTWp7SbrI/wm0cbdphN5cuDTvE9nev7yhbJHn6X3V/H7NPBs8yV7DAAAQGQUVvV516ZtJfX0rft3qc2A7kHq7YB1K2jGYn9lS9+NO7do/NwZMkmoJajPAcIvpwtwuDAc3q0vxY4Vm/YdPUDlW9Q1FDBtqbN3H6rUsj6NnmWcy4Zz6Deo9rOsq7i5mmc1nr5oLi3duFrZG4gL24K58klufK9xw6i0e02ZYbmORzPDe7vRP9evUI2ylZSjgwrp/dlvu7dJN7i/jh9R9gAAAEQ+YVWfJ0+SlIZ28ZJ00DzPzo+GupwDkXaDetAPDaoZ3ncK5XLNRq7BZFHz9p0owVWX4X0tzpeD+hwg/HK6AIdV+OEnWjNjgQQjHz58NBQwZ2nngf1058E96ac7ptcgyXFvLnXyFBRdGdSolz0lftx4FDDOh1rVaywF46OnT2QisgtXL1PqFKlowZjpVL9KLTk2StQostQK6f3Zhl3GliHOzw8AABCZhVV9XrNsZUlM4JouI338yO97jvYfPUgv37ySYGnxhJmU5LtEcmyUKEEvddQMbCmSJqdYMWPKujnU5wDhV5RPnz59VtZtcujgQXJv2EjZsoz74nJwEVo8UPD81Uv0+s0b6WbGBWKUKEGDDxWnmuTmbr1JxbR40OPZyxfpzds3hoI0pUwWxu/LBS/fXeIJyDb4LVaODhTc+5+/8g/V7dxCZlRe6xOg7AUAZ8BdVnyWGLutFHbNTfM9hss6fDt5exgneWTzOnlTkSx5lC34Fny3Lic/wyMkHu6tqXOT1sqW9cKqPudJvG/dv0OxY8ainFmyUeKExsCmjkdzumD4eVMHjKJKpUznzOEucjwHD7f0cAuTOdTnAM6rmZeHpJ9nXT27GR6esq7llC04WnFix5E7P6WLlJCMLMEVhixF0mS6hSE3jzfp1ZG8fSbIdoJ48al4/kJUvkRpypUl+5f3ffLc2Ec4Qdz4sjRn6f0Z7vYAAADoc1R97jlygNTnZy9dkG2+IVmu+I/0Q8GiX4Ib9qU+jxdPllpRo0SVc9ELbhjqc4DwzekDHEdJkSSZTCjGfWr/+/RJ2RsUN3Ezl5SpZWktvhu0ee92SpY4KVUvU1HZCwAAAI708b+PUp8fPm28g6uHx9RyN3SG+hwg8ok0AU7WDJkpYfwE0jVtzgr95mZu5t57+C9Z537DoXHo5DFpTufBkpyOGgAAAByvcJ7vZalmYDP3+fNn8l9p7GLOrTvp06SVdWuhPgcI/yJNgBMtWjTJusKmB8ylodPHySRgPDjx9v27tGHnFmrq1UlSVRbIlZcqlgxdgJM/Rx4a0rk3NaxumgkGAAAAHMe9lhvlyJyVHj97Qg26taEt+3fR0xfPZYwPt+z0HjdUuphxFzivNl2UV1kP9TlA+BdpAhxWtXR5GRwZNVpUWr55HdXs4E75av1EFVu6UZ8J3vTi1UvKnTUH+QwZG2LfYHOck79h9Tom/X8BAADAsbhVZXL/4ZQlQyaZC6f7qIFUsmE1KlS3gozN2bRnu2Rg45uapQoZJwUNDdTnAOFfpApwGGd+WecbQLXLV5XsKJwumtNHF8qdX+7YLJ88B4UaAACAE8vokp7W+QRQ/w7dJbkAJySIGjUqpU6Rktyq1KL1vovol6q1laMBILKJdAEO47z5nHufUz+eXL+HjqzeTosn+MkdG+7KBgAAAM6N6+umteuT/8gptHfxBjrz237atXCtTC7KWdoAIPKKlAEOAAAAAABETAhwwhFOb/3gySN5AAAAAABAUAhwwhHOGFOmSW15vP/wQdkLAAAAAAAqBDgAAAAQJs5dvkhnL1348uDpGe48uEf/e/9eOcI65u+j93j77p1ytJGjfjYAhD9RPn369FlZt8mhgwfJvWEjZcuyInkLUMA4H2ULbMFd07j1hp3asFcywAGAdWYs9iefJf6yXtg1N833GC7r8O3k7VFXWSOa18mbimTJo2zBt+C7dTn5GR4h4ekWOCOpNb6vXUY3oIgWNSplTJuBfixcnNyq1JTkP8Gx9D5aSybOpIK58ilbjvvZAOBcmnl50JG/T8h6V89uhoenrGuhBSeC4InO+D98894dyh4AAADnwNMvpEyanOLEjiPbPKb0ys1rtGDNr1SjXWMaNmN8kBYYPfw+qZKl0H3w/Dh6HPWzASD8CPcBDrdq3H143+FNzmH1vmFl1MzJEs3yEgAAwJmM8xpCexavp+Nrd9LhVdto48wlso97d7Blm9ZSvS4t6dHTJ7JtCb9m96J1uo+82XIqR5ly1M8GgPAj3Ac43GpRvnndL01VjhJW7xtWyhQtKcufiv4gSwAAAGeUIF58ypIhE9UsW1m6ro/tNZjixYlL1+/cpDYDPOnVm9fKkY73LX82AHw96KIWQXh360t/LttMI7sPUPYAAAA4v1rlq5DfsPEyrvSf61doasBs5Zmw9y1/NgCEHQQ4EUiS7xIpawAAAOEHdxfzbN5B1rnLGLeofC3f8mcDQNhAgAMAAADfXJPabpIs4L///vvqCXO+5c8GAMdz2gBnz6E/qWXfLpIWuWnvTnTgxBHlGaOHTx5L5pOnz5/J9qL1K2R754F9sq26//ihDLyv1bEJlWpcg+p4NKMpC2fR67dvpK8tv4YfXKgxa9/3xp1bsr9Ge3d535od3Ml7xgTZb4+g59v8y/kGh7Oo8fn8vs9ywfzb7m3Sx7hc8zry6DTUi/48flie27Brq+7nVN28e9v4eds1lvNy69qK/JbOlyQM6ncxab6fcrTRu3/fyX5+8HfNx/P3X71dI1q8YaVyVCBbzu+PY4dkP99148QQQ6aNpSptGsh5Tl8098v/64Wrl6jnmMFUoUU9+b/i4ziJhCUh/f4BAIBjcRa0SqXKyPrew3/J0tzTF8+lrNd72COkn406ASB8ccoAZ9WWDdRxaG86eOqYFFpHz5yk9oN70cnzZ5QjiF6+fiUXteqF/74jB2T71IWzss3+MFz81vVoYQhSVtKl61fpybOnhgvdyzRr2UJq6NlWLnr5NfzgtJHMmvfd+sduucDn/Zxqkt+XJxD7ddMaqt+ttcWCOST653vpy/lykGHJiXN/y/kcO3ta2ROI01/2GjuEeo8bKgHDvYcP5LH70B/UdmB3ef/Dp48H+Zyq7X/ukQwz8nlvXZfz4knTpi2aQ837eNC5KxfluY2GIESLgx/ez49+E4fL8fz9X711g2LFjKUcZd/5qf+Hq7dupKa9OtKK39dLwMXn6bt0HvWfPFK+11+6tZG7cjzJG/9f8XFNeneUgNKcNb9/AADgeIVyfy/L6xZuFvYZP0yCDL2HWo/bytLPRp0AEP44XYDz+fNnGu9vnBDUs3l72jJ3OTWsXoc+ff5Eew7/KftZiqTJaIRnvy/jTpr93EC2K5Y03oHhC+n2g3rSs5fPKVtGV5oyYCTtWmi4EJ4+n7zadKF7jx9Qu4E95FitkN6XL7Q9Rw6QAKhEgSI0f8x02r90Iy0e7ycZzLilglsejp05Jcdby9bztUa/ScNp057tMrlZuwbNaPmUOZJSc+awCVT8+8LSQrRp9zblaFN8l6rriP7yeYvlL0h+Q8fT3sUb6NdJs6lDwxZ0xhDo9Js4Qjnast0H/6R+7bvRjgWraUyvQVS3YnXlGfvOT8XnwZXb1AGjaOfCNTSoU0+KEiUKbdi5hToM6UWxY8Wi8V5D5Tvl902aKLEEUUs3rlbewcja3z8AAHC85EmSypJvNn74+EHWtaJGiUrRokXTfdhL72ejTgAIn5wuwLn/6KEULnHjxKG2DZpSBpd0NMijJ/1uKFS4cFEljJ+A6lWuSfHjxZdtnpGYt9U8+GPnTJMCiAcP8gVz5VJlKXWKlJQrS3ZqWa8RrZw6j6JGC/rxg3tfKejmzpD9tctXpXmjplLx/IUoWeKkVChPfrlw5v38c2coM6Zby9bzDQkHWtv+2CPrPkPGUfcWHShf9tzS15gDMv+RU6h+lVr07/v/yTFaHDCMnj1V1quXqUj+o6ZRmWIlJQj8Pmce6ta8neH1U+n9h6CVkLn6VWtJsOiSMrV8R2plZM/5mZvY11u6GKRJkYoa16xHNctVlv3cTW2wRy+qUbaSfKf8vt1bdpTntv1p/Nkqa3//AADA8T7+91GWHMjww9ys4RPpzG/7dR98k8weej8bdQJA+GRfaRAGkiVJQtGjR5duSzMWzZWLZy5o0qVKoxwRMu42dvDkUXkdX9jGjhVbeSZQ5nQZqO0vTZUt63D3KG4piB0zlhRwegZ07C59efnnc8pJa4TV+TJ1rEu1nyrozpHDrRy923SmRAm/U/YE+uv4Yekqx3ME9GvvqVt5cKvOzxWqKVuWVfjhJ2XNlD3np8UBEQddWkXzFZQlB1Pliv8o6yr12PuPHshS5YjfPwAAsA23rLPEiRI5pFUmNPR+NuoEgPDJ6QIcDg46Nmoh636/LqByzX6WsRQ8YN1al25ck2UmQ1DAE3pZYn7RGxIORFjs2LFp8NQxMmjd/DF0+jjpDsWu37Yu4UBYnS9T31vtYqeHJz5TZ3TW+ufaZVly6xR36bKkXPFSypplmdKmV9ZM2XN+Whl13j/pd8Zz5u6GfPdNK0FcYwsdjxP693//yjpzxO8fAADY5s8TxsQyOTJlkeXXpPezUScAhE9OF+CwTo1b0ZwRk+Wi+MnzZ5INq3r7xpLFxBpqDvv0qV1kaUlIz5u7pgw8fP7yhQxYt/RQZ0J++NS6rC5hdb7cpU5NTGDLe1+9fUOW6VOnlaUl6aw4L71WKXvPTytubNMAhvFdNxZH52drW6P4PLTs/f0DAIDQ4wxpO/8yZsq05YaePYL72agTAMIfpwxwWKlCxWjjzCUyIJ0LFW467uzdh05fPKccYVnihMYEAY+fPZGlJQ+fBv+8Oe6qxXjg++Y5y0J81ChTSY4PSVidL3fv+i5BQll//OypLC159PSxshYo8LXB/9yQ3pvpdW+z9/y0+L0sCu45C+z5/QMAgNCbvGAmvXn3VuoFHjP5NYX0s1EnAIQvThvgMO4DywPS18xYQFkzZpZB75v2BJ9Ni6ndvC7fvP6lNUXPaZ2UyMHJZjgHduveHSngLD24SxQvQxo3ogqr82Xqe3MaaUu4BePvf84rW4GypDd+Xi7A1flk9NhyXip7zi+s2fr7BwAAoROwbrmkY2ZdmrSRhD9fi7U/G3UCQPjhdAEONxP7r1ws3cBU3L3phwJFZV2735JcrtkoaeIk0kd23qqlyl5TXDDNXLZQ2bIOZ/eKFTOmzKXC6Yf18HPV2jYkj2F9ZNJQa4TV+TLOAsd4ML+l74671V27bewmp1U0XwHpf8wTYq7dvknZa4rTRwesX6FshZ495xcWHPH7BwAA1uExkDxZ8+hZxoydtcpVliyYX4M1Pxt1AkD45HQBDs9kP2GeL3n7TJC0yYwLIZ6skXHa5JDEiR2HPJu1k/XZywPIf9USk3EWL169pA6De35JGmAtzpGvZjIb7juRNu42ndiSAwGeA4cLxMs3rlL8uPGUZ4IXVufLmtSqL9leOBBp1seDbt+/qzxj9Pu+nTRo6hhly1Raw+ua1HaT9RF+k3Q/b/M+ne0q4O05v7DgiN8/AAAwxfUYTxLNmSt5smWeQHr0rCn0U5PaMlkzq1m2Mo3sPiD4Lsc2sOdno04ACJ+cLsDheVB4vAZf2NZo15i6DO9HVVo3kIt7nt+kbqUaypHBq1u5hqQe5gJpgr8PlWhQVSbSbODZhn5sXFMKp/IlQj+IsU39ppIamS/IvcYNo3LN60hQ07R3JzlPTg3N88RMHTg6SOau4FhzvnU0k2NaK2aMGDS65yDpLscpnyu3+oXqeDSTWZl/alKLeoweJK1SBXPlU15higdX8nOcbYw/b2n3mvJafo9KLd3k89rTV9re83M0R/3+AQBAoF5jh1CpxjWobLM6VLODu0wgHbBuhcwxw926eWzLOK8hX5LDOJI9Pxt1AkD45HQBDndZmjpwlEzIyN2Sdvy1lx48eSTzlsweMUlSBluD89TzxI88Lw0nB+A7OPuOHpDxJJzGuVdrDxrYsYdytPX4Ynve6GnUs1Un6afLAw13H/qDjp45Kc/XKl9FJuXMkTl0KS6DO984sWPLczyxpi04zfOa6QuocJ7vJYC6cPWyZH/hLnQ8V8zSibMoc/qMytGmuBUqYJwPtarXWIKRR0+fyGv5PVIbCvcFY6bLRJwsSlTb7rrZc36O5qjfPwAACIrrER7Iny2jq9SX472G0p7F62VsS1iz5WejTgAIn6J8+vTJNEduKB06eJDcGzZStizjeUz4QtlaHz9+pPNXL0kGLx6wnyFNOpubrXlirr//OUfPXjynxN8lorzZcklB5wjcpYqbvLnQdDVchDtiYKT2fJMkSmw435wyFsYRbhnO99otY/pnnjyUu6FZixMgnL18kd68fUOpk6eknK7Z5P9k54H9kk2GB11u8FusHG0be87PkRz5+wfOYcZif/JZ4i/rhV1z03yP4bIO307eHnWVNaJ5nbypSBbTyXrh6/Ldupz8DI+QeLi3ps5NWitbkQPqBADn0czLg478fULWu3p2Mzw8ZV3LabOocVMxX9iXLVaKMrqkt6sg4WCmUO78Mps+Lx0V3DC+AC9TrCQVyJXXYVlftOfLXbMcFdwwHu9SukgJeYQUPHALUpNeHaXvMeM7VcXzF6LyJUpLv2P1/+TJc2OKZ3XyTHuE5vzCkiN//wAAIHxDnQAQvjhtgAPfXookyejY2VP02+5tksXNkv1HD8rSJWVqWQIAAAAAfCsIcMCirBkyS6sUd02bsyJA2WuKEwPsPfyXrHOLEwAAAADAt4QAByziSc2GdvGS9ekBc2no9HEy3oj7IvPYI54LqKlXJ/rw8YN00atYEgEOAAAAAHxbCHAgWFVLl5cBpVGjRaXlm9dJis18tX6iii3dqM8Eb8n2ljtrDvIZMhZ9kgEAAADgm0OAAyHibDnrfAMklSanv+YkCJw+mhMhDOncm5ZPnkOJEyZSjgYAAAAA+HYQ4IBVXNNllMnQ1voE0Mn1e+jI6u20eIIfNaxeR7qyAQAAAAA4AwQ4AAAAAAAQYSDAAafx8vUrmSH69ds3yh4AAIjoUPZ/WzwNBH///HAU9f2Cm2ICICwhwAGnMd7fh8o0qU2zl+unpAYAgIgHZf+39fjZE/n++fH+wwdlr+04qFHf78Hjh8pegK8LAQ4AAAAAAEQYCHAAAAAAACDCQIADTu/Vm9fkNW4Y9RwzWPpqAwAAAABYggAHnN7v+3bSxt1bafPeHbRpz3ZlLwAAgGU8yP3uw/v0v/fvlT0AEFkgwAGnVyh3PkoQL75xctE8+ZW9AAAAljXz8qDyzevSkb9PKHsAILJAgANOzzV9Jtq3ZIM8smV0VfYCAAAAAASFAAfChdixYlOc2HGULQAAAAAAfQhwAAAAAAAgwojy6dOnz8q6TQ4dPEjuDRspW5YVyVuAAsb5KFsh23PoT1q4dhldu32T0qV2oU6NW1KJAkWUZ019/vyZVm3dSJv3bKcb924btokypklL1cpUJLfKNSlKlCjKkUHxAPY1236jK7euy3b2TFmofpVaVK74j7Rh11Y6ce40lSpUjMqXKC3Ps/U7f6eT58/Qj4WLy3HmeLKye48eUD3Dz86TNYey18iWcx3hN4n+++8/at+wOT188oiWb15Hx86epgRx41GebDmpfYNmlCp5SuXooC5cvUxLNq6iE4bXvHj9itKmSk25smSn5j83oPSGn23Onu8zJL/t3kbrdmymq7dvUBTDvxyZs5J7zXr0Q8GiNGjqGFq1ZQO1/aUp9WjZUXkF0b/v/0djZ0+Tda82nXVbcu4/fkjzVi2hg6eO0dMXzyl54iT0U9GS1KZ+E/k8k+b7yXEDO/agaNGiybqKn19t+Ly/7dlG12/fohgxYlBu/n7qNKQCufLK7+H1O7eoZrnKVDBXPuVV/Luzgw6fPkFF8xUwfKcu8vNPXjhL2TJkpmFdvUz+T2w9P+3//YETRwznuJ2u3LhG2TNnoc5N2lBew///x48fadH6lbR573Z6+PQx5ciUlSqU/El+j/W8ePWSZiz2pwMnj9KHD++pTLFS1LVZW4oXJ65yRMTEn9lnib+sF3bNTfM9hss6fDt5e9RV1ojmdfKmIlnyKFvwLfhuXU5+hkdIPNxbG8qf1sqWdWwp+1WhLT8fPnlMfr/Ol5/5+u0bKl2kBKVJkSpIXW5PvRGcsCi32afPnwx11W9y3XL9zk36bLh84zq8Usky1LB6nWDPMehnTWr4rD/IZ33z7q1MyslObdhLMQ11oBZ/F6G5JuCJPvNULyXrOxeuke9eKzTXdwB6eHydOrauq2c3w8NT1rWcMsDhgo4LPK0Y0WPI67/PaVoB8sVanwnetPfwX8oeU1yYjes9hOLGMb0o5qwqw2aMp7XbNyl7TNWpWN3wR0uG4GdTkEK3/6SR8rqOjVoYLgzbKXsD1e/ais5cukCT+nlT1dIVlL22n+v3tcvI+XKlMnfloiAZYVIlS0EB430pXao0yh6jDx8/0MxfF9LsFQFSmJqLFjUqTRs02iRIs/UcQ/L23TsaPG2MbhY0Lhy7Gb7HW/fvSqBh/n1zmuiibpVk/cDy3ylRwu9kXfXHsUOSRvrZy+fKnkCu6TLSkC695Y+BmRfenHaaPy8XuOaiR49OQzv3lkD38OnjNMKznwStKq7ElmxYJb/bF65ekvNkXJhv8V8uv7PMnvNT/++rli4vlZoWJ13wHzWFpiycLZWouS5N2xgqjlbKltG7f99RvS4tpWLR4t+BGYPH2BW8OjsEOM4HAY5zCYsAx56yn9lSfl42BBM1O7jLPi3t+9tTLofE0eU2u3HnFvWbNIJOnPtb2WOKb1qO7TWYsmTIpOwJZM9nteWaILgAJzTXdwCW8O9rSAGO03VR4zsF4/2NgZBn8/a0Ze5yuTPBdy72HA56Edp1RH/5w+MsW15tutDmOcto67yVNKhTT0oYPwHtPLCPOg/vqxwdaNCU0RKk8EV+uwbNaPmUObR70TqaOWyC3Eng5xydktjWc1XxxRnfcZk/epqc67SBo+Rin+/M8N0Qc8N9JpLv0nn06b9P1LJeI1o83o/++HUTrZjqL3eJuBB69sK0wLP3HC3pN2m4fJ9633fx7wsbCvtZtGn3NuVo63HrVPtBPaXg5gQEUwaMpF0L19Lq6fPl/O89fkDtBvZQjg6q0zAvCW5ix4xFvVp70FqfANqxYDVNHTCKsqTPRAMNvyenLpxRjtbHf2TZMrnK97vebxGN7DHgS3Bj7/mpuJJsUqs+rfMNMHx3c6Ulie9MNu7ZQSrJ6mUqyv/rptm/UoNqP8truCVRDbpUK7dslOCGEzesmjaP/EdOoaSJk0gL5o27t5SjAAAcw56y39byM0XSZHJDKsl3iWS72c8NZLtiyTKy7ahyOSSOKrf5PBv3bC/BTdpUaWhMr0HGutl/BY33GkqZ02Wgc5cvUqMe7eR6QMvez+rIa4LQXt8B2MPpApz7jx7KXXW+G9C2QVPK4JKOBnn0pN8Nfwj8B6HFF6Z8Z52PXTTeVy7iM6VNT+lTu1DjmvXkgpO7M3FBcuzMKeVVRKcvnpPuSMxnyDjq3qID5cueW1pCOIDgiz4OAMxbSuxh67lq8R2aCX2GSaXA58qFdb/2xqh1y/5dslTtO3rAcDG7QSqVuSMnS8HEKZaTJkoszePe3frS4M69KEqUwF8BR5yjHj522x97ZD2475u7ooXW2DnTpHDkVhSuOCuXKkupU6SU74rPf+XUeRQ1mv6vOVc+fG58t2rppFnU2s2dcmTOQi4pU1OlUmWkQuIuDSH9HvDr+Q4Wf79cgRTPX0h5xr7z0ypZsCgN6NhdulDmy56LxvQeLPu5GwQHK2N6DpL/V67o+P+V75jxeZvfdbt47ZIs61SsRrmz5pDuIcsnz6FNs5ZSRpf08hwAgCPYW/bbWn7yhTe3tsc3XJQz7k7O21xGMkeVyyFxVLnNNyu5WxkHSGt9FlLt8lWNdXOatFSjbCUJVvhncfA02Kx1xJ7P6uhrgtBc3wHYy/6/YAdLliSJdA3iZu0Zi+bS+w8fKKrhIty8+xVbvGGlLHksCRcg5rJmzEyNaxi7QCxcF9jsHmBY5zsJ1X6qIIWsOW42792mc5CuUPaw9Vy1apSp9KVlQFU07/eyfPLsqUk3tEnzjH2Hm9T+xWLf1kbV61LNcsauX8wR56hHfV9Hf99Xbl6jgyePyu/HYI9ekmnNHFcc3C1Bz4I1xlYvHmuT0zWbrGtx4MJ3qULqe82vNe9jzOw9Py3u6qDFfw/qGJ+yxUrK34yKf17+HLll3fxuXqpkxtes2LxO7uwxDuhC078cAMAa9pT9jiw/tcLqffU4otzm7s98M46PHe7ZT7q4mePPMLxbP1nuP3rwS9cdez+ro68JQnN9B2Avpwtw+AKex7Ywv18XULlmP0s3Kx47YO7KTWNigKNnTlHPMYN1H5wMgPGAPNU/16/IUm2u1sPNsXzHw1FsPVetnFmCXoQnjJ9QWSN6/uqFLJ88f0YXrxkvXn+uUFWWlmgDJkeco55LN67J0tHft/q+mQwFtF6/Y5VeIggOcC/duCrrwZ0X3yHjrmrByZQ2g7Jmyp7zM5cxbdDWFW6NYzxI05xaCT5/afydUHFllDxJUrp57w7V8WhGbQd2p2NnrW+NAwCwlj1lvyPLT62wel89jii3/zx2SJacsIiDEUu4VaawMhE2t6gwez+ro68JQnN9B2AvpwtwGA+wmzNisjSF8sX6dEOkX719Y2kuVf37v3/pwZNHss53Kzbv3aH7UC/eOKsK4wtbzpTFuJk1OCE9by1bz9WcXpYr7R0gHlPDHj01vp7vjrmmzyjrIXHUOZrj7/vm3duy7ujvWy1QbXlfbipXC9WQXq9XEWnF0bkrxuw5P3NxdTLHRVdaXfTuyqktMvz9a/F4m99mLSX3Wm7SfZEHnzbt3YkGTh4lXQcAABzB3rLfkeWnVli9rx5HlNucYY1xMoCQZMmQWZb3Hxvrcns+a1hdE1hzfQfgCE4Z4DAe+7Bx5hIZTMd/CPcePqDO3n1k/AyLESMmxVAu7jn7Ew98C+7x66TZcixf9CdMkEDWHz97KktL1EDBnOEthBpQmAvcbzzQ1nM1Z949zRL1gpsLyWcvTO/gW+KoczTH3/d3CYytTLZ+35YkTmgcQPr42RNZWvLwadDn1d8BFtLrQ3reUv9le87PnHaslDn199Fa3D+d055unruc3KrUoqiGQGf1tt8kUw4AgCPYW/Y7svzUCqv31eOIcjtubOONzScvnskyONxVnfEYF2bPZw2rawIW0vUdgCM4bYDD+G4GD6ZbM2OB9PXkwGGTkhyA7z6rzbWccYT/SPQeGVzSUrLESWRdpd4JsZRukXFw8Pc/55UtU0m+MzYxcz9SPZxTnvHPZfacqy14TIXa1H383GlZhiQsz1FtGrf1+7ZEfd/LN68HyTqjdfrCWWUtELeGcZM+C+68uJWHU47awp7z+xr4rt3wbn1pZPf+ss130NCKAwCOYk/ZH1blp7OXy+ZyuGaVJX9HPPWDJXx9pGb8zJnZ+Bp7PmtYX7cEd30H4AhOF+BwphD/lYtN+qByU+4PBYrKuna/2m937orFFv/wJ/r7UuVWv8h8NqoSBQrLkgfQmY9RUHHTq/lcISrOAMPOX/1HllpcENx5cE/WUyrHMVvP1Rbcba1m2cqyzik4Lf08blLWNguH1TlyBhtm6/dtSS7XbNLlioOQeauWKntNcaE5c9lCZctUyYLFZMlpOS19Xh44yZlpbGHv+TkaX0hw32ye/E5LO/Hd81cvlTUAAPvYU/aHVfnpbOVySEobvkNOe82tM1w3W7J042oZW8kJGyr88JPss/ezOvqaIDTXdwD2croAp80AT5owz5e8fSZIakPGfUF5rADj1IYq7svJf8w8h0fnYX2/NM8yfi1nS5u3eqnkf9f+cbao01CCFL5wbdbHg27fv6s8Y8QZS8wnotIqXfQHubtx8tzfQfqNTl80R1JA8p0TbWYQW8/VVj1adZRsLTw5WMu+XXVz43PO/Ms3A1snwuoceR4A/i5s/b4t4fSUnspEqxyk+K9aIhfxKp6grMPgnpJJRk/Xpm2lKZ8nmWszoHuQwjVg3QqZHNJW9p6fo+0+9Ae16t9NJqo9fyUwON/+pzGNKw/2RTYbAHAUe8r+sCo/na1cDgmfL2dPYzwXHtdJfI2h4rqZP8P4uTNke7BHzy9dA+39rI6+JgjN9R2AvZwuwOE8+Rw8cMFXo11j6jK8H1Vp3UD+ADkVb91KNZQjSf7wuIsN3wHgeV/Kt6hLDTzbSl/OSi3r0+hZU+U4zteuTqLF+PgR3ftLN65L16/K3QfOKNVxaG/6qUkt6jF6EKVMmpyK5S+ovMIUF9g1y1WROx/8s/i1HsP6UPnmdWnRemNaxY6NWkofZJWt52or/mwT+gyVuzc8CLBCi3pUt3MLmbSLZ7Lnc7778L5ytFFYnSOnWx7dc5C8v6XvO1mixFQ4jzHldWjUrVxDUpByYTnB34dKNKgqk5o18GxDPzauKQVn+RL6GWI4m9jQLl5yfpzr/0f3mvK6doN60A8Nqhk+7xS5A8bzFdjKnvNztLLFSslcPVwRNezeVs6jZd8uNGDyKHm+iyHg0/7OAgDYw96yP6zKT2cql61RunAJ6qoEKhzk8Pm26NtZbliV+KWqfIaP/32k1vWbUNXSFeQ4lTWftU7F6srRphx9TRCa6zsAezldgMNN2lMHjpLxEdxsveOvvZLJ4/uceWj2iElyl1mLm2K5DydPgPXhw0c6ffEs7TywX7qJcZ9QHsTGc5mY40mxeHIszjvPf/jcosGtMdxtiy8EV0ydS+lSp1WODopnReaJIRm/dtfB/RIw8ABunimYCxRztp6rrQrlzi8TOP5coRrFiBZd7trz3Xqe8Zhn7m9Rt1GQAiWszpEvrNdMXyAVmfn3XbpICVo5bZ5uSs2QcA79iX29ZTI1HlfDd6S4IObBirFjxaJerT1kQL0l3JWPB0fyuCyeR4hfx/MIvHzzSgrsxRNmfpkNO7gBo5bYe36OxMHLLO+JMnv2x4//yXkcPHWMYsWIST1adqQmtdyUIwEAHMOesj+syk9nKpetxemVlxrqKp6MmrvCHzp1nLjLMY+b5PorYJwP9WrVSTk6UHCfNU7s2PJct+bG4EmPI68JQnt9B2CPKJ8+fQpsr7TBoYMHyb1hI2XLMu7LyX+A1uKLzfNXL0n2D/4jypAmXYh3l7mfKb/m9Zs3lDZVGnmdNXekOZUl/7HxsVkzZP4y+Jybzldt2SCTYPEFoB6eqIrvPjx4/EgG5KVNnUYKlJDYeq624tYmThnJn5XvlPCs9bFixlSe1RdW58hdwq7duiHr2u/bXvx/8fc/5+jZi+eU2BCU5M2WS+4gWovvMN66f0eCP55zSM1AU8ejuaFSvkRTB4yiSqUsz+cQEnvPz5G4UuHPy5U5T+AWGSoW7trBdz9ZYdfcNN9juKzDt5O3h3GSQDavkzcVyZJH2YJvwXfrcvIzPELi4d6aOjdprWxZz56yP6zKT2cql63FXc+vGx7c3SxdGherUkgz7WdNkiix4bPmtDo7K3PUNYEt13cAWs28PL5MaNvVs5vh4SnrWk4b4DgDawIcCL88Rw4wFLBPqV/7bpQ7aw5lb1Cl3WvSo6dPaN6oqVSiQBFlL4Q3CHCcDwIc5xLWAQ4AgCNYE+A4XRc1gK+F+yzz+KTDp41/JHr+uX5FghvG6bcBAAAAwLkhwIFISx3YqmaBMcfN/5zSknGe/vRpLI/JAgAAAADngAAHIi33Wm6UI3NW6QfcoFsb2rJ/l+Tp537G3LLTe9xQ2rBrq/QN9mrTRXkVRAQPXjyhV+9sm98IIKK69uC2sgYAEL4hwIFIiwdXTu4/XOYs4sGv3UcNpJINq1GhuhWoSa+OtGnPdpk0lVNJlypknBQUIoZbj+/TDwOaUtd5Y2j9kV0IdiDS2vX3IRr463Qq0b8JbTlpOq8bAEB4hQAHIjXOJrfOJ4D6d+hOPxQsKjNGR40aVbL7uFWpRet9F9EvVWsrR0NEs/vMYcPF3QwEOxCpaIOabvPHGn7vd9Prf98qzwIAhH/IohaMt+/e0fsP7yWVLk90BQDhlzaLWkjK5ilK5fMWpXJ5ilGCOPGUveBoyKL29Vy4c00CmXWHd9kdzCCLGgB8S8iiZqe4ceLITL4IbgAiljx581KLVi3JxcVF2WMKLTsQEXBQM3bdPKo8vD3Vn9iTFu/7TTe4SZAgAdWtV4+q18RM8gAQMSDAAYBIJ27cuDRw8GDa++cftHHzplAHO3efPlSeBXAu3P3MPKi5++yR8qypChUr0tgJ4+nE36dp3MQJ5OrqqjwDABC+IcABgEgtZ65coQ52Ko/oQG4TesiF5JHLZ5RnAb4+DrYXGYIYDr65yx+PqbEmqDl++hTNnDOb6rm5Kc8AAEQcdo/BCc60KVMMj6myHh7H4ABAxKEdg1O0WDFaunyZrFvC4wtXr1xF27dto1evXil79cWPHVfGj/C4nSKueShNkhTKMxAcjMGxDbfSHLlyVpaWAhktDmoqVq5EFStVooQJEyp7Q6dxg4Z0+NAhWccYHAD4ljAGBwDARsWKF5duO9x9x2/2LBmjYKllh8c1oHUHwgqPpQlNKw2PqdFrqbE1uAEACG8Q4AAAhIDvfHOwo3ZjGzB4kFxAWnLx7nW5AG3lO1hS8bb0GUS+W5cj4AGrqAENp3JWx9KMMwTMHERbkjNnTuleuWTZrxKUI6gBgMjsq3VRSxAvvswaDwDwLdx5cI/uPrwv69Z0UbMWd2Hj7mzbt26jO3fuKHuDlz1NRumOVcQ1N+VwyRRpu7Shi5oRB77c5YyXHNxYk8aZW2m4lZG7nvEybdq0yjNhQ9tFLU2KVOSSMrWsAwB8bReuXqJXb17LuqUual8twAEAcBaODHC0bt++bQx4DhykHdu3K3tDliZxcrm4z24IdtSgJzKIjAEOJwXgIEYNaLi1z1rcSlOshCGoqWQMar4mbYADAOAsEOAAACjCKsAxp7bunDt7LlQXh5y0gIMcvuDPkSajtPBExKAnogc4PHeSGsxwYMMBjTVJAVQ85osDGQ5qvkYrTXAQ4ACAM/omAc7qVaskCxEAgDPJlduYGvpr42BHDXh4GVJ2NnOFXXOTiyHY4ZYeDnw46EkQJ57ybPgTkQIcY/DykO48fRSqrmZaHHjz76YENYaHM42fGeHtLb+3AADOpF59N91092Ea4AAAgGXnz52jc4YHd2njgMfaMTxa2tYelyTJKXsaQ/ATTlp7wmOAwy0xd7g15spZCWJ4OzTdzFTqGBptQAMAAI6BAAcAwEm8fPnSpJWHA6DQtvKo1MCHW3i+LNNk/LLtDJwxwFG7lcnSELio2xzIhKZ7mTkeP8OTynJ3s1yGJa8DAEDYQIADAODEOHHBHcODg57bt25L0HP+/HnlWdtxYgMe28Nd3oxLw3ZiYzY3NSAKa98iwOHuY8w8gOGlLS0x5njcjEvatFTcEMhwEMPjZhDMAAB8XQhwAADCIbV7Gwc/Bw8clKUtXdxCogZCzLz1hzO+aYU2QLEnwFGDEpUarDC1GxlzVOCiRx0zwwGN2iqDeWcAAL49BDgAABEEd3HjwEdt9eEWH3U9LIIfW3GyBHb0yllZMp4biAMoe7uCORoHMRy0cCCTgJeGIIYDmm+Z0QwAAIKHAAcAIJJQgx1u+XllCIZ4nI8aFNk61ie84wCGcZcypg72x6B/AIDwCwEOAAAINQBiauCj4m5wKmdrEdJSAxbGrS5qlzFtqwvvw7gYAICICwEOAADYzDwQMhfS8yFRu4VZgmAFAADMRflsoKwDAAAAAACEa1GVJQAAAAAAQLiHAAcAAAAAACIMBDgAAAAAABBhIMABAAAAAIAIguj/eNEWpLXutwgAAAAASUVORK5CYII=;" parent="1" vertex="1">
          <mxGeometry x="-20" y="130" width="824" height="601" as="geometry" />
        </mxCell>
        <mxCell id="rWQBrJEAZ2Um7FXQGi53-2" value="&lt;font style=&quot;font-size: 33px;&quot;&gt;&lt;b style=&quot;font-size: 33px;&quot;&gt;Requisitos de&amp;nbsp;&lt;/b&gt;&lt;/font&gt;&lt;div style=&quot;font-size: 33px;&quot;&gt;&lt;font style=&quot;font-size: 33px;&quot;&gt;&lt;b style=&quot;font-size: 33px;&quot;&gt;Software&lt;/b&gt;&lt;/font&gt;&lt;/div&gt;" style="text;html=1;align=center;verticalAlign=middle;whiteSpace=wrap;rounded=0;fillColor=#f9d5e5;fontSize=33;" parent="1" vertex="1">
          <mxGeometry x="300" y="400" width="200" height="80" as="geometry" />
        </mxCell>
        <mxCell id="rWQBrJEAZ2Um7FXQGi53-3" value="&lt;span style=&quot;font-size: 27px;&quot;&gt;&lt;b&gt;Modelos Baseados em CenÃ¡rios&lt;/b&gt;&lt;/span&gt;" style="text;html=1;align=left;verticalAlign=middle;whiteSpace=wrap;rounded=0;fillColor=#f9d5e5;" parent="1" vertex="1">
          <mxGeometry x="10" y="160" width="260" height="70" as="geometry" />
        </mxCell>
        <mxCell id="rWQBrJEAZ2Um7FXQGi53-4" value="&lt;span style=&quot;font-size: 27px;&quot;&gt;&lt;b&gt;Modelos de Classe&lt;/b&gt;&lt;/span&gt;" style="text;html=1;align=left;verticalAlign=middle;whiteSpace=wrap;rounded=0;fillColor=#f9d5e5;" parent="1" vertex="1">
          <mxGeometry x="510" y="160" width="260" height="70" as="geometry" />
        </mxCell>
        <mxCell id="rWQBrJEAZ2Um7FXQGi53-5" value="&lt;span style=&quot;font-size: 27px;&quot;&gt;&lt;b&gt;Modelos Comportamentais&lt;/b&gt;&lt;/span&gt;" style="text;html=1;align=left;verticalAlign=middle;whiteSpace=wrap;rounded=0;fillColor=#f9d5e5;" parent="1" vertex="1">
          <mxGeometry x="10" y="540" width="260" height="70" as="geometry" />
        </mxCell>
        <mxCell id="rWQBrJEAZ2Um7FXQGi53-6" value="&lt;span style=&quot;font-size: 27px;&quot;&gt;&lt;b&gt;Modelos de Fluxo&lt;/b&gt;&lt;/span&gt;" style="text;html=1;align=left;verticalAlign=middle;whiteSpace=wrap;rounded=0;fillColor=#f9d5e5;" parent="1" vertex="1">
          <mxGeometry x="510" y="540" width="260" height="70" as="geometry" />
        </mxCell>
        <mxCell id="rWQBrJEAZ2Um7FXQGi53-8" value="&lt;div style=&quot;font-size: 22px;&quot;&gt;&lt;font style=&quot;font-size: 22px;&quot;&gt;Exemplos:&lt;/font&gt;&lt;/div&gt;&lt;font style=&quot;font-size: 22px;&quot;&gt;- Casos de Uso&lt;/font&gt;&lt;div style=&quot;font-size: 22px;&quot;&gt;&lt;font style=&quot;font-size: 22px;&quot;&gt;- HistÃ³rias de UsuÃ¡rio&lt;/font&gt;&lt;/div&gt;" style="text;html=1;align=left;verticalAlign=middle;whiteSpace=wrap;rounded=0;fillColor=#f9d5e5;fontStyle=0;fontSize=22;" parent="1" vertex="1">
          <mxGeometry x="10" y="240" width="260" height="80" as="geometry" />
        </mxCell>
        <mxCell id="rWQBrJEAZ2Um7FXQGi53-10" value="&lt;div style=&quot;font-size: 22px;&quot;&gt;&lt;font style=&quot;font-size: 22px;&quot;&gt;Exemplos:&lt;/font&gt;&lt;/div&gt;&lt;font style=&quot;font-size: 22px;&quot;&gt;- Diagramas de Classe&lt;/font&gt;&lt;div style=&quot;font-size: 22px;&quot;&gt;&lt;span style=&quot;background-color: initial; font-size: 22px;&quot;&gt;- Diagramas de ColaboraÃ§Ã£o&lt;/span&gt;&lt;/div&gt;" style="text;html=1;align=left;verticalAlign=middle;whiteSpace=wrap;rounded=0;fillColor=#f9d5e5;fontStyle=0;fontSize=22;" parent="1" vertex="1">
          <mxGeometry x="510" y="220" width="280" height="110" as="geometry" />
        </mxCell>
        <mxCell id="rWQBrJEAZ2Um7FXQGi53-11" value="&lt;div style=&quot;font-size: 22px;&quot;&gt;&lt;font style=&quot;font-size: 22px;&quot;&gt;Exemplos:&lt;/font&gt;&lt;/div&gt;&lt;font style=&quot;font-size: 22px;&quot;&gt;- Diagramas de Estado&lt;/font&gt;&lt;div style=&quot;font-size: 22px;&quot;&gt;&lt;span style=&quot;background-color: initial; font-size: 22px;&quot;&gt;- Diagramas de SequÃªncias&lt;/span&gt;&lt;/div&gt;" style="text;html=1;align=left;verticalAlign=middle;whiteSpace=wrap;rounded=0;fillColor=#f9d5e5;fontStyle=0;fontSize=22;" parent="1" vertex="1">
          <mxGeometry x="10" y="610" width="280" height="100" as="geometry" />
        </mxCell>
        <mxCell id="rWQBrJEAZ2Um7FXQGi53-12" value="&lt;div style=&quot;font-size: 22px;&quot;&gt;&lt;font style=&quot;font-size: 22px;&quot;&gt;Exemplos:&lt;/font&gt;&lt;/div&gt;&lt;font style=&quot;font-size: 22px;&quot;&gt;- Diagramas de Fluxo de Dados (DFD)&lt;/font&gt;&lt;div style=&quot;font-size: 22px;&quot;&gt;&lt;span style=&quot;background-color: initial; font-size: 22px;&quot;&gt;- Modelos de dados&lt;/span&gt;&lt;/div&gt;" style="text;html=1;align=left;verticalAlign=middle;whiteSpace=wrap;rounded=0;fillColor=#f9d5e5;fontStyle=0;fontSize=22;" parent="1" vertex="1">
          <mxGeometry x="510" y="600" width="280" height="100" as="geometry" />
        </mxCell>
      </root>
    </mxGraphModel>
  </diagram>
  <diagram id="U3hkpQCLEifi7r7LdJVk" name="PÃ¡gina-2">
    <mxGraphModel dx="1013" dy="554" grid="1" gridSize="10" guides="1" tooltips="1" connect="1" arrows="1" fold="1" page="1" pageScale="1" pageWidth="827" pageHeight="1169" math="0" shadow="0">
      <root>
        <mxCell id="0" />
        <mxCell id="1" parent="0" />
        <mxCell id="SXVkA5Zk60pPD9Yd78G1-1" value="Almoxarife" style="shape=umlActor;verticalLabelPosition=bottom;verticalAlign=top;html=1;" vertex="1" parent="1">
          <mxGeometry x="80" y="410" width="30" height="60" as="geometry" />
        </mxCell>
        <mxCell id="SXVkA5Zk60pPD9Yd78G1-2" value="Solicitar Material" style="ellipse;whiteSpace=wrap;html=1;" vertex="1" parent="1">
          <mxGeometry x="200" y="290" width="140" height="70" as="geometry" />
        </mxCell>
        <mxCell id="SXVkA5Zk60pPD9Yd78G1-3" value="&amp;lt;&amp;lt;inclui&amp;gt;&amp;gt;" style="html=1;verticalAlign=bottom;endArrow=open;dashed=1;endSize=8;curved=0;rounded=0;entryX=0;entryY=0.5;entryDx=0;entryDy=0;" edge="1" parent="1" source="SXVkA5Zk60pPD9Yd78G1-2" target="SXVkA5Zk60pPD9Yd78G1-4">
          <mxGeometry relative="1" as="geometry">
            <mxPoint x="360" y="540" as="sourcePoint" />
            <mxPoint x="280" y="540" as="targetPoint" />
          </mxGeometry>
        </mxCell>
        <mxCell id="SXVkA5Zk60pPD9Yd78G1-4" value="Verificar Estoque" style="ellipse;whiteSpace=wrap;html=1;" vertex="1" parent="1">
          <mxGeometry x="410" y="220" width="140" height="70" as="geometry" />
        </mxCell>
        <mxCell id="SXVkA5Zk60pPD9Yd78G1-5" value="Comprar Material" style="ellipse;whiteSpace=wrap;html=1;" vertex="1" parent="1">
          <mxGeometry x="200" y="430" width="140" height="70" as="geometry" />
        </mxCell>
        <mxCell id="SXVkA5Zk60pPD9Yd78G1-6" value="Emitir pedido de compra" style="ellipse;whiteSpace=wrap;html=1;" vertex="1" parent="1">
          <mxGeometry x="440" y="390" width="140" height="70" as="geometry" />
        </mxCell>
        <mxCell id="SXVkA5Zk60pPD9Yd78G1-7" value="&amp;lt;&amp;lt;estende&amp;gt;&amp;gt;" style="html=1;verticalAlign=bottom;endArrow=open;dashed=1;endSize=8;curved=0;rounded=0;entryX=0.5;entryY=1;entryDx=0;entryDy=0;exitX=0.5;exitY=0;exitDx=0;exitDy=0;" edge="1" parent="1" source="SXVkA5Zk60pPD9Yd78G1-5" target="SXVkA5Zk60pPD9Yd78G1-2">
          <mxGeometry relative="1" as="geometry">
            <mxPoint x="329" y="310" as="sourcePoint" />
            <mxPoint x="420" y="265" as="targetPoint" />
          </mxGeometry>
        </mxCell>
        <mxCell id="SXVkA5Zk60pPD9Yd78G1-8" value="Almoxarife" style="shape=umlActor;verticalLabelPosition=bottom;verticalAlign=top;html=1;" vertex="1" parent="1">
          <mxGeometry x="500" y="560" width="30" height="60" as="geometry" />
        </mxCell>
      </root>
    </mxGraphModel>
  </diagram>
  <diagram id="uBh9ViFGXCYLxwoZXVAg" name="PÃ¡gina-3">
    <mxGraphModel dx="573" dy="333" grid="1" gridSize="10" guides="1" tooltips="1" connect="1" arrows="1" fold="1" page="1" pageScale="1" pageWidth="827" pageHeight="1169" math="0" shadow="0">
      <root>
        <mxCell id="0" />
        <mxCell id="1" parent="0" />
        <mxCell id="GWYMIyl7u3DvbbzGFN3r-25" style="edgeStyle=none;rounded=0;orthogonalLoop=1;jettySize=auto;html=1;strokeColor=default;align=center;verticalAlign=middle;fontFamily=Helvetica;fontSize=17;fontColor=default;labelBackgroundColor=default;endArrow=none;endFill=0;" parent="1" source="GWYMIyl7u3DvbbzGFN3r-1" target="GWYMIyl7u3DvbbzGFN3r-16" edge="1">
          <mxGeometry relative="1" as="geometry" />
        </mxCell>
        <mxCell id="GWYMIyl7u3DvbbzGFN3r-33" style="edgeStyle=none;rounded=0;orthogonalLoop=1;jettySize=auto;html=1;strokeColor=default;align=center;verticalAlign=middle;fontFamily=Helvetica;fontSize=17;fontColor=default;labelBackgroundColor=default;endArrow=none;endFill=0;" parent="1" source="GWYMIyl7u3DvbbzGFN3r-1" target="GWYMIyl7u3DvbbzGFN3r-15" edge="1">
          <mxGeometry relative="1" as="geometry" />
        </mxCell>
        <mxCell id="GWYMIyl7u3DvbbzGFN3r-1" value="Cliente" style="shape=umlActor;verticalLabelPosition=bottom;verticalAlign=top;html=1;fontSize=17;" parent="1" vertex="1">
          <mxGeometry x="40" y="435" width="30" height="60" as="geometry" />
        </mxCell>
        <mxCell id="GWYMIyl7u3DvbbzGFN3r-2" value="Res" style="ellipse;whiteSpace=wrap;html=1;fontSize=17;" parent="1" vertex="1">
          <mxGeometry x="950" y="290" width="140" height="70" as="geometry" />
        </mxCell>
        <mxCell id="GWYMIyl7u3DvbbzGFN3r-3" value="&amp;lt;&amp;lt;inclui&amp;gt;&amp;gt;" style="html=1;verticalAlign=bottom;endArrow=open;dashed=1;endSize=8;curved=0;rounded=0;fontSize=17;" parent="1" source="GWYMIyl7u3DvbbzGFN3r-16" target="GWYMIyl7u3DvbbzGFN3r-30" edge="1">
          <mxGeometry x="-0.0646" y="10" relative="1" as="geometry">
            <mxPoint x="1120" y="550" as="sourcePoint" />
            <mxPoint x="1040" y="550" as="targetPoint" />
            <mxPoint y="-1" as="offset" />
          </mxGeometry>
        </mxCell>
        <mxCell id="GWYMIyl7u3DvbbzGFN3r-4" value="Verificar Estoque" style="ellipse;whiteSpace=wrap;html=1;fontSize=17;" parent="1" vertex="1">
          <mxGeometry x="1170" y="230" width="140" height="70" as="geometry" />
        </mxCell>
        <mxCell id="GWYMIyl7u3DvbbzGFN3r-6" value="&amp;lt;&amp;lt;estende&amp;gt;&amp;gt;" style="html=1;verticalAlign=bottom;endArrow=open;dashed=1;endSize=8;curved=0;rounded=0;exitX=1;exitY=1;exitDx=0;exitDy=0;fontSize=17;" parent="1" source="GWYMIyl7u3DvbbzGFN3r-16" target="GWYMIyl7u3DvbbzGFN3r-21" edge="1">
          <mxGeometry x="-0.002" y="-3" relative="1" as="geometry">
            <mxPoint x="1130" y="440" as="sourcePoint" />
            <mxPoint x="1180" y="275" as="targetPoint" />
            <mxPoint as="offset" />
          </mxGeometry>
        </mxCell>
        <mxCell id="GWYMIyl7u3DvbbzGFN3r-22" style="rounded=0;orthogonalLoop=1;jettySize=auto;html=1;endArrow=none;endFill=0;fontSize=17;" parent="1" source="GWYMIyl7u3DvbbzGFN3r-9" target="GWYMIyl7u3DvbbzGFN3r-14" edge="1">
          <mxGeometry relative="1" as="geometry" />
        </mxCell>
        <mxCell id="GWYMIyl7u3DvbbzGFN3r-23" style="edgeStyle=none;rounded=0;orthogonalLoop=1;jettySize=auto;html=1;strokeColor=default;align=center;verticalAlign=middle;fontFamily=Helvetica;fontSize=17;fontColor=default;labelBackgroundColor=default;endArrow=none;endFill=0;" parent="1" source="GWYMIyl7u3DvbbzGFN3r-9" target="GWYMIyl7u3DvbbzGFN3r-15" edge="1">
          <mxGeometry relative="1" as="geometry" />
        </mxCell>
        <mxCell id="GWYMIyl7u3DvbbzGFN3r-9" value="Agente&amp;nbsp;&lt;div style=&quot;font-size: 17px;&quot;&gt;de viagens&lt;/div&gt;" style="shape=umlActor;verticalLabelPosition=bottom;verticalAlign=top;html=1;fontSize=17;" parent="1" vertex="1">
          <mxGeometry x="50" y="235" width="30" height="60" as="geometry" />
        </mxCell>
        <mxCell id="GWYMIyl7u3DvbbzGFN3r-26" style="edgeStyle=none;rounded=0;orthogonalLoop=1;jettySize=auto;html=1;strokeColor=default;align=center;verticalAlign=middle;fontFamily=Helvetica;fontSize=17;fontColor=default;labelBackgroundColor=default;endArrow=none;endFill=0;" parent="1" source="GWYMIyl7u3DvbbzGFN3r-12" target="GWYMIyl7u3DvbbzGFN3r-14" edge="1">
          <mxGeometry relative="1" as="geometry" />
        </mxCell>
        <mxCell id="GWYMIyl7u3DvbbzGFN3r-12" value="Companhia&lt;div style=&quot;font-size: 17px;&quot;&gt;aÃ©rea&lt;/div&gt;" style="shape=umlActor;verticalLabelPosition=bottom;verticalAlign=top;html=1;fontSize=17;" parent="1" vertex="1">
          <mxGeometry x="730" y="235" width="30" height="60" as="geometry" />
        </mxCell>
        <mxCell id="GWYMIyl7u3DvbbzGFN3r-28" style="edgeStyle=none;rounded=0;orthogonalLoop=1;jettySize=auto;html=1;strokeColor=default;align=center;verticalAlign=middle;fontFamily=Helvetica;fontSize=17;fontColor=default;labelBackgroundColor=default;endArrow=none;endFill=0;" parent="1" source="GWYMIyl7u3DvbbzGFN3r-13" target="GWYMIyl7u3DvbbzGFN3r-20" edge="1">
          <mxGeometry relative="1" as="geometry" />
        </mxCell>
        <mxCell id="GWYMIyl7u3DvbbzGFN3r-13" value="Guia&amp;nbsp;&lt;div style=&quot;font-size: 17px;&quot;&gt;turÃ­stico&lt;/div&gt;" style="shape=umlActor;verticalLabelPosition=bottom;verticalAlign=top;html=1;fontSize=17;" parent="1" vertex="1">
          <mxGeometry x="730" y="420" width="30" height="60" as="geometry" />
        </mxCell>
        <mxCell id="GWYMIyl7u3DvbbzGFN3r-14" value="Reservar passagem" style="ellipse;whiteSpace=wrap;html=1;fontSize=17;" parent="1" vertex="1">
          <mxGeometry x="200" y="230" width="140" height="70" as="geometry" />
        </mxCell>
        <mxCell id="GWYMIyl7u3DvbbzGFN3r-15" value="Entregar passagem" style="ellipse;whiteSpace=wrap;html=1;fontSize=17;" parent="1" vertex="1">
          <mxGeometry x="200" y="330" width="140" height="70" as="geometry" />
        </mxCell>
        <mxCell id="GWYMIyl7u3DvbbzGFN3r-34" style="edgeStyle=none;rounded=0;orthogonalLoop=1;jettySize=auto;html=1;strokeColor=default;align=center;verticalAlign=middle;fontFamily=Helvetica;fontSize=17;fontColor=default;labelBackgroundColor=default;endArrow=none;endFill=0;" parent="1" source="GWYMIyl7u3DvbbzGFN3r-16" target="GWYMIyl7u3DvbbzGFN3r-9" edge="1">
          <mxGeometry relative="1" as="geometry" />
        </mxCell>
        <mxCell id="GWYMIyl7u3DvbbzGFN3r-16" value="Pagar Viagem" style="ellipse;whiteSpace=wrap;html=1;fontSize=17;" parent="1" vertex="1">
          <mxGeometry x="200" y="430" width="140" height="70" as="geometry" />
        </mxCell>
        <mxCell id="GWYMIyl7u3DvbbzGFN3r-18" value="ComissÃ£o do Agente de Viagem" style="ellipse;whiteSpace=wrap;html=1;fontSize=17;" parent="1" vertex="1">
          <mxGeometry x="200" y="565" width="140" height="70" as="geometry" />
        </mxCell>
        <mxCell id="GWYMIyl7u3DvbbzGFN3r-27" style="edgeStyle=none;rounded=0;orthogonalLoop=1;jettySize=auto;html=1;strokeColor=default;align=center;verticalAlign=middle;fontFamily=Helvetica;fontSize=17;fontColor=default;labelBackgroundColor=default;endArrow=none;endFill=0;" parent="1" source="GWYMIyl7u3DvbbzGFN3r-19" target="GWYMIyl7u3DvbbzGFN3r-12" edge="1">
          <mxGeometry relative="1" as="geometry" />
        </mxCell>
        <mxCell id="GWYMIyl7u3DvbbzGFN3r-19" value="Garantir assentos" style="ellipse;whiteSpace=wrap;html=1;fontSize=17;" parent="1" vertex="1">
          <mxGeometry x="530" y="160" width="140" height="70" as="geometry" />
        </mxCell>
        <mxCell id="GWYMIyl7u3DvbbzGFN3r-20" value="Organizar Tour" style="ellipse;whiteSpace=wrap;html=1;fontSize=17;" parent="1" vertex="1">
          <mxGeometry x="520" y="565" width="140" height="70" as="geometry" />
        </mxCell>
        <mxCell id="GWYMIyl7u3DvbbzGFN3r-29" style="edgeStyle=none;rounded=0;orthogonalLoop=1;jettySize=auto;html=1;strokeColor=default;align=center;verticalAlign=middle;fontFamily=Helvetica;fontSize=17;fontColor=default;labelBackgroundColor=default;endArrow=none;endFill=0;" parent="1" source="GWYMIyl7u3DvbbzGFN3r-21" target="GWYMIyl7u3DvbbzGFN3r-13" edge="1">
          <mxGeometry relative="1" as="geometry" />
        </mxCell>
        <mxCell id="GWYMIyl7u3DvbbzGFN3r-21" value="Pagar Tour" style="ellipse;whiteSpace=wrap;html=1;fontSize=17;" parent="1" vertex="1">
          <mxGeometry x="520" y="455" width="140" height="70" as="geometry" />
        </mxCell>
        <mxCell id="GWYMIyl7u3DvbbzGFN3r-24" style="edgeStyle=none;rounded=0;orthogonalLoop=1;jettySize=auto;html=1;entryX=0.086;entryY=0.764;entryDx=0;entryDy=0;entryPerimeter=0;strokeColor=default;align=center;verticalAlign=middle;fontFamily=Helvetica;fontSize=17;fontColor=default;labelBackgroundColor=default;endArrow=none;endFill=0;" parent="1" source="GWYMIyl7u3DvbbzGFN3r-1" target="GWYMIyl7u3DvbbzGFN3r-14" edge="1">
          <mxGeometry relative="1" as="geometry" />
        </mxCell>
        <mxCell id="GWYMIyl7u3DvbbzGFN3r-32" style="edgeStyle=none;rounded=0;orthogonalLoop=1;jettySize=auto;html=1;strokeColor=default;align=center;verticalAlign=middle;fontFamily=Helvetica;fontSize=17;fontColor=default;labelBackgroundColor=default;endArrow=none;endFill=0;" parent="1" source="GWYMIyl7u3DvbbzGFN3r-30" target="GWYMIyl7u3DvbbzGFN3r-12" edge="1">
          <mxGeometry relative="1" as="geometry" />
        </mxCell>
        <mxCell id="GWYMIyl7u3DvbbzGFN3r-30" value="Pagar Passagens" style="ellipse;whiteSpace=wrap;html=1;fontSize=17;" parent="1" vertex="1">
          <mxGeometry x="520" y="330" width="140" height="70" as="geometry" />
        </mxCell>
        <mxCell id="GWYMIyl7u3DvbbzGFN3r-35" value="&amp;lt;&amp;lt;inclui&amp;gt;&amp;gt;" style="html=1;verticalAlign=bottom;endArrow=open;dashed=1;endSize=8;curved=0;rounded=0;fontSize=17;" parent="1" source="GWYMIyl7u3DvbbzGFN3r-16" target="GWYMIyl7u3DvbbzGFN3r-18" edge="1">
          <mxGeometry relative="1" as="geometry">
            <mxPoint x="349" y="470" as="sourcePoint" />
            <mxPoint x="481" y="460" as="targetPoint" />
          </mxGeometry>
        </mxCell>
        <mxCell id="GWYMIyl7u3DvbbzGFN3r-36" value="Agendar Tour" style="ellipse;whiteSpace=wrap;html=1;fontSize=17;" parent="1" vertex="1">
          <mxGeometry x="200" y="110" width="140" height="70" as="geometry" />
        </mxCell>
        <mxCell id="GWYMIyl7u3DvbbzGFN3r-37" value="&amp;lt;&amp;lt;estende&amp;gt;&amp;gt;" style="html=1;verticalAlign=bottom;endArrow=open;dashed=1;endSize=8;curved=0;rounded=0;fontSize=17;entryX=0.5;entryY=0;entryDx=0;entryDy=0;" parent="1" source="GWYMIyl7u3DvbbzGFN3r-36" target="GWYMIyl7u3DvbbzGFN3r-14" edge="1">
          <mxGeometry x="0.2" relative="1" as="geometry">
            <mxPoint x="170" y="190" as="sourcePoint" />
            <mxPoint x="492" y="555" as="targetPoint" />
            <mxPoint as="offset" />
          </mxGeometry>
        </mxCell>
      </root>
    </mxGraphModel>
  </diagram>
  <diagram id="VTioXvw8CEXX607TBs75" name="PÃ¡gina-4">
    <mxGraphModel dx="674" dy="392" grid="1" gridSize="10" guides="1" tooltips="1" connect="1" arrows="1" fold="1" page="1" pageScale="1" pageWidth="827" pageHeight="1169" math="0" shadow="0">
      <root>
        <mxCell id="0" />
        <mxCell id="1" parent="0" />
        <mxCell id="e4gYrtUumZO91Z6Rq2a1-1" style="rounded=0;orthogonalLoop=1;jettySize=auto;html=1;endArrow=none;endFill=0;fontSize=17;" parent="1" source="e4gYrtUumZO91Z6Rq2a1-3" target="e4gYrtUumZO91Z6Rq2a1-6" edge="1">
          <mxGeometry relative="1" as="geometry" />
        </mxCell>
        <mxCell id="e4gYrtUumZO91Z6Rq2a1-3" value="Guia TurÃ­stico" style="shape=umlActor;verticalLabelPosition=bottom;verticalAlign=top;html=1;fontSize=17;" parent="1" vertex="1">
          <mxGeometry x="40" y="235" width="30" height="60" as="geometry" />
        </mxCell>
        <mxCell id="e4gYrtUumZO91Z6Rq2a1-4" style="edgeStyle=none;rounded=0;orthogonalLoop=1;jettySize=auto;html=1;strokeColor=default;align=center;verticalAlign=middle;fontFamily=Helvetica;fontSize=17;fontColor=default;labelBackgroundColor=default;endArrow=none;endFill=0;" parent="1" source="e4gYrtUumZO91Z6Rq2a1-5" target="e4gYrtUumZO91Z6Rq2a1-6" edge="1">
          <mxGeometry relative="1" as="geometry" />
        </mxCell>
        <mxCell id="e4gYrtUumZO91Z6Rq2a1-5" value="Viajante" style="shape=umlActor;verticalLabelPosition=top;verticalAlign=bottom;html=1;fontSize=17;labelPosition=center;align=center;" parent="1" vertex="1">
          <mxGeometry x="40" y="30" width="30" height="60" as="geometry" />
        </mxCell>
        <mxCell id="e4gYrtUumZO91Z6Rq2a1-6" value="Check-in em Grupo" style="ellipse;whiteSpace=wrap;html=1;fontSize=17;" parent="1" vertex="1">
          <mxGeometry x="220" y="230" width="140" height="70" as="geometry" />
        </mxCell>
        <mxCell id="e4gYrtUumZO91Z6Rq2a1-7" value="Entregar passagem" style="ellipse;whiteSpace=wrap;html=1;fontSize=17;" parent="1" vertex="1">
          <mxGeometry x="240" y="515" width="140" height="70" as="geometry" />
        </mxCell>
        <mxCell id="e4gYrtUumZO91Z6Rq2a1-8" style="edgeStyle=none;rounded=0;orthogonalLoop=1;jettySize=auto;html=1;strokeColor=default;align=center;verticalAlign=middle;fontFamily=Helvetica;fontSize=17;fontColor=default;labelBackgroundColor=default;endArrow=none;endFill=0;" parent="1" source="e4gYrtUumZO91Z6Rq2a1-9" target="e4gYrtUumZO91Z6Rq2a1-5" edge="1">
          <mxGeometry relative="1" as="geometry" />
        </mxCell>
        <mxCell id="e4gYrtUumZO91Z6Rq2a1-9" value="Check-in Individual" style="ellipse;whiteSpace=wrap;html=1;fontSize=17;" parent="1" vertex="1">
          <mxGeometry x="220" y="25" width="140" height="70" as="geometry" />
        </mxCell>
        <mxCell id="e4gYrtUumZO91Z6Rq2a1-10" value="Check-in de bagagem" style="ellipse;whiteSpace=wrap;html=1;fontSize=17;" parent="1" vertex="1">
          <mxGeometry x="500" y="25" width="140" height="70" as="geometry" />
        </mxCell>
        <mxCell id="e4gYrtUumZO91Z6Rq2a1-11" value="&amp;lt;&amp;lt;estende&amp;gt;&amp;gt;" style="html=1;verticalAlign=bottom;endArrow=open;dashed=1;endSize=8;curved=0;rounded=0;fontSize=17;" parent="1" source="e4gYrtUumZO91Z6Rq2a1-10" target="e4gYrtUumZO91Z6Rq2a1-9" edge="1">
          <mxGeometry x="0.0084" y="-2" relative="1" as="geometry">
            <mxPoint x="440" y="270" as="sourcePoint" />
            <mxPoint x="492" y="555" as="targetPoint" />
            <mxPoint as="offset" />
          </mxGeometry>
        </mxCell>
        <mxCell id="emmQCJ8bxWDnFQ6A4kzE-1" value="&amp;lt;&amp;lt;inclui&amp;gt;&amp;gt;" style="html=1;verticalAlign=bottom;endArrow=open;dashed=1;endSize=8;curved=0;rounded=0;fontSize=17;exitX=0.5;exitY=0;exitDx=0;exitDy=0;" parent="1" source="e4gYrtUumZO91Z6Rq2a1-6" target="e4gYrtUumZO91Z6Rq2a1-9" edge="1">
          <mxGeometry x="-0.0646" y="10" relative="1" as="geometry">
            <mxPoint x="340" y="465" as="sourcePoint" />
            <mxPoint x="460" y="465" as="targetPoint" />
            <mxPoint y="-1" as="offset" />
          </mxGeometry>
        </mxCell>
        <mxCell id="emmQCJ8bxWDnFQ6A4kzE-2" value="" style="endArrow=block;endSize=16;endFill=0;html=1;rounded=0;strokeColor=default;align=center;verticalAlign=middle;fontFamily=Helvetica;fontSize=11;fontColor=default;labelBackgroundColor=default;exitX=0.5;exitY=0;exitDx=0;exitDy=0;exitPerimeter=0;" parent="1" source="e4gYrtUumZO91Z6Rq2a1-3" target="e4gYrtUumZO91Z6Rq2a1-5" edge="1">
          <mxGeometry width="160" relative="1" as="geometry">
            <mxPoint x="330" y="150" as="sourcePoint" />
            <mxPoint x="490" y="150" as="targetPoint" />
          </mxGeometry>
        </mxCell>
      </root>
    </mxGraphModel>
  </diagram>
  <diagram id="f3wcSow7a94yQpNNR_8_" name="PÃ¡gina-5">
    <mxGraphModel dx="573" dy="333" grid="1" gridSize="10" guides="1" tooltips="1" connect="1" arrows="1" fold="1" page="1" pageScale="1" pageWidth="827" pageHeight="1169" math="0" shadow="0">
      <root>
        <mxCell id="0" />
        <mxCell id="1" parent="0" />
        <mxCell id="k3uiizEsVD54UWetFdSf-1" value="&amp;lt;&amp;lt;estende&amp;gt;&amp;gt;" style="html=1;verticalAlign=bottom;endArrow=open;dashed=1;endSize=8;curved=0;rounded=0;fontSize=17;exitX=0;exitY=0.5;exitDx=0;exitDy=0;" parent="1" source="k3uiizEsVD54UWetFdSf-3" target="k3uiizEsVD54UWetFdSf-2" edge="1">
          <mxGeometry x="-0.0011" y="-2" relative="1" as="geometry">
            <mxPoint x="1104" y="500" as="sourcePoint" />
            <mxPoint x="390" y="520" as="targetPoint" />
            <mxPoint as="offset" />
          </mxGeometry>
        </mxCell>
        <mxCell id="k3uiizEsVD54UWetFdSf-2" value="Servir Comida" style="ellipse;whiteSpace=wrap;html=1;fontSize=17;" parent="1" vertex="1">
          <mxGeometry x="220" y="380" width="140" height="70" as="geometry" />
        </mxCell>
        <mxCell id="k3uiizEsVD54UWetFdSf-3" value="Servir vinho" style="ellipse;whiteSpace=wrap;html=1;fontSize=17;" parent="1" vertex="1">
          <mxGeometry x="490" y="380" width="140" height="70" as="geometry" />
        </mxCell>
        <mxCell id="k3uiizEsVD54UWetFdSf-4" style="edgeStyle=none;rounded=0;orthogonalLoop=1;jettySize=auto;html=1;strokeColor=default;align=center;verticalAlign=middle;fontFamily=Helvetica;fontSize=11;fontColor=default;labelBackgroundColor=default;endArrow=none;endFill=0;" parent="1" source="k3uiizEsVD54UWetFdSf-5" target="k3uiizEsVD54UWetFdSf-2" edge="1">
          <mxGeometry relative="1" as="geometry" />
        </mxCell>
        <mxCell id="k3uiizEsVD54UWetFdSf-5" value="GarÃ§on" style="shape=umlActor;verticalLabelPosition=bottom;verticalAlign=top;html=1;fontSize=17;" parent="1" vertex="1">
          <mxGeometry x="120" y="385" width="30" height="60" as="geometry" />
        </mxCell>
      </root>
    </mxGraphModel>
  </diagram>
  <diagram id="ggLP5oAFLgkiWRGBR3jO" name="PÃ¡gina-6">
    <mxGraphModel dx="674" dy="392" grid="1" gridSize="10" guides="1" tooltips="1" connect="1" arrows="1" fold="1" page="1" pageScale="1" pageWidth="827" pageHeight="1169" math="0" shadow="0">
      <root>
        <mxCell id="0" />
        <mxCell id="1" parent="0" />
        <mxCell id="JUAccAIi-J0JtXamOfO5-1" value="&amp;lt;&amp;lt;inclui&amp;gt;&amp;gt;" style="html=1;verticalAlign=bottom;endArrow=open;dashed=1;endSize=8;curved=0;rounded=0;fontSize=17;" parent="1" source="JUAccAIi-J0JtXamOfO5-2" target="JUAccAIi-J0JtXamOfO5-3" edge="1">
          <mxGeometry x="0.0476" y="5" relative="1" as="geometry">
            <mxPoint x="1104" y="500" as="sourcePoint" />
            <mxPoint x="1024" y="500" as="targetPoint" />
            <mxPoint as="offset" />
          </mxGeometry>
        </mxCell>
        <mxCell id="JUAccAIi-J0JtXamOfO5-2" value="Cancelar Compra" style="ellipse;whiteSpace=wrap;html=1;fontSize=17;" parent="1" vertex="1">
          <mxGeometry x="220" y="380" width="140" height="70" as="geometry" />
        </mxCell>
        <mxCell id="JUAccAIi-J0JtXamOfO5-3" value="Estornar Pagamento" style="ellipse;whiteSpace=wrap;html=1;fontSize=17;" parent="1" vertex="1">
          <mxGeometry x="450" y="380" width="140" height="70" as="geometry" />
        </mxCell>
        <mxCell id="adZE4dou5I8Ig-enyyH0-3" style="edgeStyle=none;rounded=0;orthogonalLoop=1;jettySize=auto;html=1;strokeColor=default;align=center;verticalAlign=middle;fontFamily=Helvetica;fontSize=11;fontColor=default;labelBackgroundColor=default;endArrow=none;endFill=0;" parent="1" source="adZE4dou5I8Ig-enyyH0-1" target="JUAccAIi-J0JtXamOfO5-2" edge="1">
          <mxGeometry relative="1" as="geometry" />
        </mxCell>
        <mxCell id="adZE4dou5I8Ig-enyyH0-1" value="Cliente" style="shape=umlActor;verticalLabelPosition=bottom;verticalAlign=top;html=1;fontSize=17;" parent="1" vertex="1">
          <mxGeometry x="120" y="385" width="30" height="60" as="geometry" />
        </mxCell>
        <mxCell id="adZE4dou5I8Ig-enyyH0-2" value="Empresa de&amp;nbsp;&lt;div&gt;pagamentos&lt;/div&gt;" style="shape=umlActor;verticalLabelPosition=bottom;verticalAlign=top;html=1;fontSize=17;" parent="1" vertex="1">
          <mxGeometry x="620" y="385" width="30" height="60" as="geometry" />
        </mxCell>
        <mxCell id="adZE4dou5I8Ig-enyyH0-4" style="edgeStyle=none;rounded=0;orthogonalLoop=1;jettySize=auto;html=1;entryX=0.5;entryY=0.5;entryDx=0;entryDy=0;entryPerimeter=0;strokeColor=default;align=center;verticalAlign=middle;fontFamily=Helvetica;fontSize=11;fontColor=default;labelBackgroundColor=default;endArrow=none;endFill=0;" parent="1" source="JUAccAIi-J0JtXamOfO5-3" target="adZE4dou5I8Ig-enyyH0-2" edge="1">
          <mxGeometry relative="1" as="geometry" />
        </mxCell>
      </root>
    </mxGraphModel>
  </diagram>
</mxfile>
